<svg xmlns="http://www.w3.org/2000/svg" xmlns:xlink="http://www.w3.org/1999/xlink" viewBox="0 0 3009 1324.64"><defs><style>.cls-1{mask:url(#mask);filter:url(#luminosity-noclip-2);}.cls-10,.cls-2,.cls-20,.cls-32,.cls-33,.cls-34,.cls-71,.cls-72{mix-blend-mode:multiply;}.cls-2{fill:url(#linear-gradient);}.cls-3{fill:none;}.cls-4{isolation:isolate;}.cls-17,.cls-5,.cls-75{fill:#fff;}.cls-6{fill:#f4623a;opacity:0.44;}.cls-7{fill:#939598;}.cls-8{clip-path:url(#clip-path);}.cls-9{fill:url(#Áåçûìÿííûé_ãðàäèåíò_46);}.cls-10,.cls-72{opacity:0.3;}.cls-10{fill:url(#Áåçûìÿííûé_ãðàäèåíò_18);}.cls-11{fill:url(#linear-gradient-2);}.cls-12{fill:url(#Áåçûìÿííûé_ãðàäèåíò_46-2);}.cls-13{fill:url(#linear-gradient-3);}.cls-14{fill:#f0d7a5;}.cls-15{fill:url(#linear-gradient-4);}.cls-16{fill:#dbb484;}.cls-17,.cls-33,.cls-74,.cls-75{opacity:0.5;}.cls-17{mix-blend-mode:soft-light;}.cls-18{fill:url(#Áåçûìÿííûé_ãðàäèåíò_20);}.cls-19{fill:url(#Áåçûìÿííûé_ãðàäèåíò_19);}.cls-20,.cls-32{opacity:0.4;}.cls-20{fill:url(#Áåçûìÿííûé_ãðàäèåíò_19-2);}.cls-21{fill:url(#Áåçûìÿííûé_ãðàäèåíò_34);}.cls-22{fill:url(#Áåçûìÿííûé_ãðàäèåíò_24);}.cls-23{fill:url(#Áåçûìÿííûé_ãðàäèåíò_19-3);}.cls-24{fill:url(#Áåçûìÿííûé_ãðàäèåíò_19-4);}.cls-25{fill:#ec6a6b;}.cls-26{fill:url(#Áåçûìÿííûé_ãðàäèåíò_24-2);}.cls-27{fill:url(#Áåçûìÿííûé_ãðàäèåíò_24-3);}.cls-28{fill:url(#Áåçûìÿííûé_ãðàäèåíò_24-4);}.cls-29{fill:url(#Áåçûìÿííûé_ãðàäèåíò_24-5);}.cls-30,.cls-48,.cls-49,.cls-50,.cls-51,.cls-52,.cls-53,.cls-56,.cls-57,.cls-61,.cls-62,.cls-63,.cls-64,.cls-65,.cls-67,.cls-68,.cls-70,.cls-71{opacity:0.2;}.cls-30,.cls-48,.cls-49,.cls-50,.cls-51,.cls-52,.cls-53,.cls-56,.cls-57,.cls-61,.cls-62,.cls-63,.cls-64,.cls-65,.cls-67,.cls-68,.cls-70{mix-blend-mode:color-burn;}.cls-30{fill:url(#Áåçûìÿííûé_ãðàäèåíò_22);}.cls-31{fill:url(#Áåçûìÿííûé_ãðàäèåíò_22-2);}.cls-32{fill:url(#Áåçûìÿííûé_ãðàäèåíò_22-3);}.cls-33{fill:url(#Áåçûìÿííûé_ãðàäèåíò_57);}.cls-34{fill:#5d656d;opacity:0.42;}.cls-35{fill:url(#linear-gradient-5);}.cls-36{fill:url(#linear-gradient-6);}.cls-37{fill:url(#linear-gradient-7);}.cls-38{fill:url(#linear-gradient-8);}.cls-39{fill:url(#linear-gradient-9);}.cls-40{mask:url(#mask-2);}.cls-41{fill:url(#linear-gradient-10);}.cls-42{fill:#c09a6e;}.cls-43,.cls-44{opacity:0.6;mix-blend-mode:overlay;}.cls-43{fill:url(#linear-gradient-11);}.cls-44{fill:url(#linear-gradient-12);}.cls-45{fill:url(#linear-gradient-13);}.cls-46{fill:url(#linear-gradient-14);}.cls-47{fill:url(#Áåçûìÿííûé_ãðàäèåíò_77);}.cls-48{fill:url(#Áåçûìÿííûé_ãðàäèåíò_22-4);}.cls-49{fill:url(#Áåçûìÿííûé_ãðàäèåíò_22-5);}.cls-50{fill:url(#Áåçûìÿííûé_ãðàäèåíò_22-6);}.cls-51{fill:url(#Áåçûìÿííûé_ãðàäèåíò_22-7);}.cls-52{fill:url(#Áåçûìÿííûé_ãðàäèåíò_22-8);}.cls-53{fill:url(#Áåçûìÿííûé_ãðàäèåíò_22-9);}.cls-54{fill:#ee7778;}.cls-55{fill:#fec0b9;}.cls-56{fill:url(#Áåçûìÿííûé_ãðàäèåíò_22-10);}.cls-57{fill:url(#Áåçûìÿííûé_ãðàäèåíò_22-11);}.cls-58{fill:#feb1a8;}.cls-59{fill:url(#Áåçûìÿííûé_ãðàäèåíò_22-12);}.cls-60{fill:url(#Áåçûìÿííûé_ãðàäèåíò_77-2);}.cls-61{fill:url(#Áåçûìÿííûé_ãðàäèåíò_22-13);}.cls-62{fill:url(#Áåçûìÿííûé_ãðàäèåíò_22-14);}.cls-63{fill:url(#Áåçûìÿííûé_ãðàäèåíò_22-15);}.cls-64{fill:url(#Áåçûìÿííûé_ãðàäèåíò_22-16);}.cls-65{fill:url(#Áåçûìÿííûé_ãðàäèåíò_22-17);}.cls-66{fill:url(#Áåçûìÿííûé_ãðàäèåíò_46-3);}.cls-67{fill:url(#Áåçûìÿííûé_ãðàäèåíò_22-18);}.cls-68{fill:url(#Áåçûìÿííûé_ãðàäèåíò_22-19);}.cls-69{fill:#fe9083;}.cls-70{fill:url(#Áåçûìÿííûé_ãðàäèåíò_22-20);}.cls-71{fill:#b396c7;}.cls-72{fill:url(#Áåçûìÿííûé_ãðàäèåíò_153);}.cls-73{fill:url(#Áåçûìÿííûé_ãðàäèåíò_22-21);}.cls-76{filter:url(#luminosity-noclip);}</style><filter id="luminosity-noclip" x="788.38" y="-8513.63" width="448.03" height="32766" filterUnits="userSpaceOnUse" color-interpolation-filters="sRGB"><feFlood flood-color="#fff" result="bg"/><feBlend in="SourceGraphic" in2="bg"/></filter><mask id="mask" x="788.38" y="-8513.63" width="448.03" height="32766" maskUnits="userSpaceOnUse"><g class="cls-76"/></mask><linearGradient id="linear-gradient" x1="951.41" y1="502.7" x2="1139.78" y2="455.61" gradientUnits="userSpaceOnUse"><stop offset="0"/><stop offset="1" stop-color="#fff"/></linearGradient><clipPath id="clip-path"><path class="cls-3" d="M1645.66,591.91c-147.41,192.54-9.76,538.62,239.66,603.14s414.19-77.12,565.84-80.3c188.92-4,331.81-73.58,314.21-317-7.59-104.85-145.58-441.6-341.76-547.92C2150,101.56,1652,170.42,1645.66,591.91Z"/></clipPath><linearGradient id="Áåçûìÿííûé_ãðàäèåíò_46" x1="1786.03" y1="1165.72" x2="1786.03" y2="841.19" gradientUnits="userSpaceOnUse"><stop offset="0" stop-color="#cbc1f7"/><stop offset="1" stop-color="#e8dcf7"/></linearGradient><linearGradient id="Áåçûìÿííûé_ãðàäèåíò_18" x1="1831.47" y1="1165.72" x2="1831.47" y2="847.24" gradientUnits="userSpaceOnUse"><stop offset="0" stop-color="#ccedff"/><stop offset="1" stop-color="#9d68c2"/></linearGradient><linearGradient id="linear-gradient-2" x1="1788.03" y1="659.07" x2="2466.99" y2="659.07" gradientUnits="userSpaceOnUse"><stop offset="0" stop-color="#f0d7a5"/><stop offset="1" stop-color="#d4ab78"/></linearGradient><linearGradient id="Áåçûìÿííûé_ãðàäèåíò_46-2" x1="2259.9" y1="935.78" x2="2259.9" y2="872.74" xlink:href="#Áåçûìÿííûé_ãðàäèåíò_46"/><linearGradient id="linear-gradient-3" x1="1854.6" y1="927.37" x2="2326.83" y2="927.37" gradientUnits="userSpaceOnUse"><stop offset="0" stop-color="#bd9366"/><stop offset="1" stop-color="#d4ab78"/></linearGradient><linearGradient id="linear-gradient-4" x1="829.99" y1="786.62" x2="839.77" y2="625.21" xlink:href="#linear-gradient-3"/><linearGradient id="Áåçûìÿííûé_ãðàäèåíò_20" x1="2222.55" y1="1010.73" x2="2718.86" y2="1010.73" gradientUnits="userSpaceOnUse"><stop offset="0" stop-color="#ffa9a2"/><stop offset="0.98" stop-color="#ffc2a9"/></linearGradient><linearGradient id="Áåçûìÿííûé_ãðàäèåíò_19" x1="2332.14" y1="995.64" x2="2379.22" y2="995.64" gradientUnits="userSpaceOnUse"><stop offset="0" stop-color="#ff7c7c"/><stop offset="0.98" stop-color="#ff9e8b"/></linearGradient><linearGradient id="Áåçûìÿííûé_ãðàäèåíò_19-2" x1="2321.02" y1="977.38" x2="2547.87" y2="977.38" xlink:href="#Áåçûìÿííûé_ãðàäèåíò_19"/><linearGradient id="Áåçûìÿííûé_ãðàäèåíò_34" x1="2424.79" y1="992.61" x2="2558.32" y2="992.61" gradientUnits="userSpaceOnUse"><stop offset="0.02" stop-color="#ff8b83"/><stop offset="1" stop-color="#ff7c7c"/></linearGradient><linearGradient id="Áåçûìÿííûé_ãðàäèåíò_24" x1="2291.63" y1="1023.73" x2="2402.03" y2="1023.73" gradientUnits="userSpaceOnUse"><stop offset="0.02" stop-color="#ffc2a9"/><stop offset="1" stop-color="#ffbdb8"/></linearGradient><linearGradient id="Áåçûìÿííûé_ãðàäèåíò_19-3" x1="2250.97" y1="1029.15" x2="2328.94" y2="1029.15" xlink:href="#Áåçûìÿííûé_ãðàäèåíò_19"/><linearGradient id="Áåçûìÿííûé_ãðàäèåíò_19-4" x1="2249.25" y1="997.84" x2="2325.03" y2="997.84" xlink:href="#Áåçûìÿííûé_ãðàäèåíò_19"/><linearGradient id="Áåçûìÿííûé_ãðàäèåíò_24-2" x1="2231.84" y1="1012.4" x2="2270.24" y2="1012.4" xlink:href="#Áåçûìÿííûé_ãðàäèåíò_24"/><linearGradient id="Áåçûìÿííûé_ãðàäèåíò_24-3" x1="2254.4" y1="1024.34" x2="2289.95" y2="1024.34" xlink:href="#Áåçûìÿííûé_ãðàäèåíò_24"/><linearGradient id="Áåçûìÿííûé_ãðàäèåíò_24-4" x1="2222.69" y1="988.18" x2="2271.32" y2="988.18" xlink:href="#Áåçûìÿííûé_ãðàäèåíò_24"/><linearGradient id="Áåçûìÿííûé_ãðàäèåíò_24-5" x1="2366.46" y1="934.07" x2="2438.25" y2="934.07" xlink:href="#Áåçûìÿííûé_ãðàäèåíò_24"/><linearGradient id="Áåçûìÿííûé_ãðàäèåíò_22" x1="2504.38" y1="1032.65" x2="2718.86" y2="1032.65" gradientUnits="userSpaceOnUse"><stop offset="0.02" stop-color="#ff9e8b"/><stop offset="1" stop-color="#ff7c7c"/></linearGradient><linearGradient id="Áåçûìÿííûé_ãðàäèåíò_22-2" x1="2591.45" y1="964.1" x2="2611.44" y2="964.1" xlink:href="#Áåçûìÿííûé_ãðàäèåíò_22"/><linearGradient id="Áåçûìÿííûé_ãðàäèåíò_22-3" x1="2229.5" y1="1018.41" x2="2401.09" y2="1018.41" xlink:href="#Áåçûìÿííûé_ãðàäèåíò_22"/><linearGradient id="Áåçûìÿííûé_ãðàäèåíò_57" x1="1788.03" y1="488.88" x2="2454.19" y2="488.88" gradientUnits="userSpaceOnUse"><stop offset="0" stop-color="#b8c5c6"/><stop offset="1" stop-color="#4834bb"/></linearGradient><linearGradient id="linear-gradient-5" x1="2122.5" y1="441.27" x2="2122.5" y2="362.67" xlink:href="#linear-gradient-2"/><linearGradient id="linear-gradient-6" x1="1788.03" y1="401.97" x2="2456.96" y2="401.97" xlink:href="#linear-gradient-3"/><linearGradient id="linear-gradient-7" x1="816.13" y1="245.63" x2="883.79" y2="257.72" xlink:href="#linear-gradient-2"/><linearGradient id="linear-gradient-8" x1="783.6" y1="442.07" x2="504.52" y2="459.24" xlink:href="#linear-gradient-3"/><linearGradient id="linear-gradient-9" x1="790.65" y1="729.36" x2="996.04" y2="505.29" gradientUnits="userSpaceOnUse"><stop offset="0" stop-color="#bd9366"/><stop offset="1" stop-color="#a97b5c"/></linearGradient><filter id="luminosity-noclip-2" x="788.38" y="292.32" width="448.03" height="405.54" filterUnits="userSpaceOnUse" color-interpolation-filters="sRGB"><feFlood flood-color="#fff" result="bg"/><feBlend in="SourceGraphic" in2="bg"/></filter><mask id="mask-2" x="788.38" y="292.32" width="448.03" height="405.54" maskUnits="userSpaceOnUse"><g class="cls-1"><polygon class="cls-2" points="791.95 367 1236.41 292.32 1232.83 607.91 788.38 697.86 791.95 367"/></g></mask><linearGradient id="linear-gradient-10" x1="951.41" y1="502.7" x2="1139.78" y2="455.61" gradientUnits="userSpaceOnUse"><stop offset="0" stop-color="#9d6c5c"/><stop offset="1" stop-color="#865448"/></linearGradient><linearGradient id="linear-gradient-11" x1="835.92" y1="149.51" x2="748.14" y2="542.31" gradientUnits="userSpaceOnUse"><stop offset="0" stop-color="#fde9a5"/><stop offset="1" stop-color="#fff"/></linearGradient><linearGradient id="linear-gradient-12" x1="613.48" y1="353.34" x2="637" y2="481.82" xlink:href="#linear-gradient-11"/><linearGradient id="linear-gradient-13" x1="2131.2" y1="946.13" x2="2131.2" y2="376.51" gradientUnits="userSpaceOnUse"><stop offset="0" stop-color="#77483b"/><stop offset="1" stop-color="#a97b5c"/></linearGradient><linearGradient id="linear-gradient-14" x1="2000.95" y1="935.77" x2="2100.65" y2="434.72" xlink:href="#linear-gradient-13"/><linearGradient id="Áåçûìÿííûé_ãðàäèåíò_77" x1="2576.99" y1="1049.31" x2="2576.99" y2="609.27" gradientUnits="userSpaceOnUse"><stop offset="0.02" stop-color="#ffc2a9"/><stop offset="1" stop-color="#ffa9a2"/></linearGradient><linearGradient id="Áåçûìÿííûé_ãðàäèåíò_22-4" x1="2294.13" y1="754.93" x2="2328.31" y2="754.93" xlink:href="#Áåçûìÿííûé_ãðàäèåíò_22"/><linearGradient id="Áåçûìÿííûé_ãðàäèåíò_22-5" x1="2395.43" y1="623.59" x2="2444.94" y2="623.59" xlink:href="#Áåçûìÿííûé_ãðàäèåíò_22"/><linearGradient id="Áåçûìÿííûé_ãðàäèåíò_22-6" x1="2278.59" y1="801.21" x2="2329.45" y2="801.21" xlink:href="#Áåçûìÿííûé_ãðàäèåíò_22"/><linearGradient id="Áåçûìÿííûé_ãðàäèåíò_22-7" x1="2298.74" y1="824.67" x2="2338.15" y2="824.67" xlink:href="#Áåçûìÿííûé_ãðàäèåíò_22"/><linearGradient id="Áåçûìÿííûé_ãðàäèåíò_22-8" x1="2336.2" y1="861.91" x2="2366.09" y2="861.91" xlink:href="#Áåçûìÿííûé_ãðàäèåíò_22"/><linearGradient id="Áåçûìÿííûé_ãðàäèåíò_22-9" x1="2308.69" y1="749.69" x2="2647.11" y2="749.69" xlink:href="#Áåçûìÿííûé_ãðàäèåíò_22"/><linearGradient id="Áåçûìÿííûé_ãðàäèåíò_22-10" x1="2621.43" y1="933.84" x2="2882.66" y2="933.84" xlink:href="#Áåçûìÿííûé_ãðàäèåíò_22"/><linearGradient id="Áåçûìÿííûé_ãðàäèåíò_22-11" x1="2497.08" y1="686.87" x2="2550.61" y2="686.87" xlink:href="#Áåçûìÿííûé_ãðàäèåíò_22"/><linearGradient id="Áåçûìÿííûé_ãðàäèåíò_22-12" x1="2322.1" y1="807.38" x2="2420.18" y2="807.38" xlink:href="#Áåçûìÿííûé_ãðàäèåíò_22"/><linearGradient id="Áåçûìÿííûé_ãðàäèåíò_77-2" x1="1530.34" y1="830.33" x2="2133.91" y2="830.33" xlink:href="#Áåçûìÿííûé_ãðàäèåíò_77"/><linearGradient id="Áåçûìÿííûé_ãðàäèåíò_22-13" x1="1910.35" y1="596.54" x2="1958.99" y2="596.54" xlink:href="#Áåçûìÿííûé_ãðàäèåíò_22"/><linearGradient id="Áåçûìÿííûé_ãðàäèåíò_22-14" x1="2070.8" y1="671.64" x2="2115.85" y2="671.64" xlink:href="#Áåçûìÿííûé_ãðàäèåíò_22"/><linearGradient id="Áåçûìÿííûé_ãðàäèåíò_22-15" x1="2080.35" y1="750.62" x2="2122.47" y2="750.62" xlink:href="#Áåçûìÿííûé_ãðàäèåíò_22"/><linearGradient id="Áåçûìÿííûé_ãðàäèåíò_22-16" x1="2080.35" y1="774.48" x2="2105.42" y2="774.48" xlink:href="#Áåçûìÿííûé_ãðàäèåíò_22"/><linearGradient id="Áåçûìÿííûé_ãðàäèåíò_22-17" x1="2050.5" y1="828.09" x2="2078.25" y2="828.09" xlink:href="#Áåçûìÿííûé_ãðàäèåíò_22"/><linearGradient id="Áåçûìÿííûé_ãðàäèåíò_46-3" x1="1643.24" y1="1087.56" x2="1643.24" y2="784.15" xlink:href="#Áåçûìÿííûé_ãðàäèåíò_46"/><linearGradient id="Áåçûìÿííûé_ãðàäèåíò_22-18" x1="1724.01" y1="704.16" x2="2006.36" y2="704.16" xlink:href="#Áåçûìÿííûé_ãðàäèåíò_22"/><linearGradient id="Áåçûìÿííûé_ãðàäèåíò_22-19" x1="1687.93" y1="762.43" x2="2038.56" y2="762.43" xlink:href="#Áåçûìÿííûé_ãðàäèåíò_22"/><linearGradient id="Áåçûìÿííûé_ãðàäèåíò_22-20" x1="1880.2" y1="638.6" x2="1882.06" y2="638.6" xlink:href="#Áåçûìÿííûé_ãðàäèåíò_22"/><linearGradient id="Áåçûìÿííûé_ãðàäèåíò_153" x1="1563.15" y1="982.8" x2="1747.94" y2="982.8" gradientUnits="userSpaceOnUse"><stop offset="0" stop-color="#9d68c2"/><stop offset="1" stop-color="#ccedff"/></linearGradient><linearGradient id="Áåçûìÿííûé_ãðàäèåíò_22-21" x1="1965.44" y1="765.76" x2="2092.88" y2="765.76" xlink:href="#Áåçûìÿííûé_ãðàäèåíò_22"/></defs><g class="cls-4"><g id="layer_2"><rect class="cls-5" y="22.43" width="3009" height="1302.21"/><path class="cls-6" d="M2176,100.7c0-354.71,287.57-642.29,642.3-642.29S3460.53-254,3460.53,100.7,3173,743,2818.25,743,2176,455.42,2176,100.7Z"/></g><g id="layer_1"><g id="_16" data-name="16"><path class="cls-7" d="M1358.58,1169.31a2.22,2.22,0,0,0,.1-.67,2.35,2.35,0,0,0-1.15-2,2.46,2.46,0,0,0-1.09-.42l-40.54-12-.17,0-.23,0H1315l-.23,0a.9.9,0,0,1-.16,0l-46.55,12.07a2.33,2.33,0,0,0-2.16,2.32h0l.15,56.83a2.32,2.32,0,0,0,.1.65s0,.08,0,.13a2.29,2.29,0,0,0,.29.56l.06.07a2,2,0,0,0,.41.42l.09.07a2.45,2.45,0,0,0,.58.3l.06,0,46,14.65a2.56,2.56,0,0,0,.71.11,2.27,2.27,0,0,0,1-.24l41.67-14.85,0,0a2.35,2.35,0,0,0,.56-.31l.11-.09a2,2,0,0,0,.39-.42l0,0a2.56,2.56,0,0,0,.27-.55c0-.05,0-.09,0-.14a2.19,2.19,0,0,0,.1-.63h0l-.12-55.67C1358.52,1169.41,1358.56,1169.37,1358.58,1169.31Zm-43.39-10.39,35.51,10.5-9.64,3-26.59,8-39.92-10.94Zm-44.56,11.55.89-.23,42.46,11.64-.18,55.55-43-13.7Zm44.73,66.77.18-55.27,26.1-8.1,12-3.59.22.06.11,53.15Z"/><polygon class="cls-7" points="1289.5 1164.92 1329.61 1176.18 1330.08 1234.07 1342.21 1228.78 1342.46 1172.3 1303.47 1161.15 1289.5 1164.92"/></g><g id="_15" data-name="15"><path class="cls-7" d="M1178.08,1230.29h-68.9v-68.9h30.25V1175h8.39v-13.61h30.26Zm-64.93-4h60.95v-61h-22.3V1179h-16.34v-13.61h-22.31Z"/><polygon class="cls-7" points="1121.47 1203.91 1118.06 1207.94 1119.98 1207.94 1119.98 1216.13 1122.95 1216.13 1122.95 1207.94 1124.88 1207.94 1121.47 1203.91"/><polygon class="cls-7" points="1133.41 1207.94 1130 1203.91 1126.58 1207.94 1128.51 1207.94 1128.51 1216.13 1131.48 1216.13 1131.48 1207.94 1133.41 1207.94"/><rect class="cls-7" x="1116.02" y="1218.22" width="19.42" height="3.25"/><rect class="cls-7" x="1137.31" y="1161.47" width="12.37" height="16.32"/></g><path id="_14" data-name="14" class="cls-7" d="M1016.91,1219.58a.56.56,0,0,0,0-.12,1.82,1.82,0,0,0,.08-.52h0l-.1-47.23a.91.91,0,0,0,.07-.14,1.85,1.85,0,0,0,.08-.56,2,2,0,0,0-1-1.69,1.93,1.93,0,0,0-.93-.36l-34.4-10.17-.15,0-.17,0h-.39l-.24,0-.11,0L940.22,1169a2,2,0,0,0-1.83,2h0l.13,48.22h0a1.91,1.91,0,0,0,.09.54l0,.12a2.16,2.16,0,0,0,.24.48l0,.06a1.71,1.71,0,0,0,.36.35l.07.06a1.89,1.89,0,0,0,.49.25l0,0,39,12.43a2.08,2.08,0,0,0,.6.09,2,2,0,0,0,.8-.19l35.37-12.61,0,0a1.66,1.66,0,0,0,.47-.26l.09-.07a2.31,2.31,0,0,0,.34-.36l0,0A1.71,1.71,0,0,0,1016.91,1219.58Zm-14.9-45.36-21.77,6.54v-18l30.07,8.9Zm-23.09-11.16v17.72l-33.22-9.11Zm-36.55,9.48.64-.17,36,10-.15,47-36.4-11.59Zm38,56.65.15-46.9,22-6.84,10.25-3.08.18.06.09,45.1Z"/><g id="_13" data-name="13"><path class="cls-7" d="M843.2,1171.24,836,1165.8l6.19-16.51a.11.11,0,0,1,0,0,2.19,2.19,0,0,0,.11-.63h0V1141a2,2,0,0,0-2-2h-57a2,2,0,0,0-2,2v7.63h0a1.9,1.9,0,0,0,.11.63s0,0,0,0l6.18,16.61-7.09,5.34a2,2,0,0,0-.79,1.59,2,2,0,0,0,.17.75v51.21a2,2,0,0,0,2,2h60a2,2,0,0,0,2-2v-41.28l.18-10.68A2,2,0,0,0,843.2,1171.24Zm-5.38.93h-3a.7.7,0,0,0-.14,0h-2v-3.85Zm-52.57-29.23h53.07v5H785.25Zm.38,6.32h52.3l-6.09,16.27a0,0,0,0,1,0,0H791.69s0,0,0,0Zm45.78,18.08v4.81l-39,0v-4.83Zm-40.39,1,.11-.11v4h-5.26Zm48.82,54.52h-56V1173.7l.27-.21H789l44.74,0,.13,0h5.71l.26.2Z"/><path class="cls-7" d="M820.16,1189.93a.84.84,0,0,0,.84-.84,9.36,9.36,0,0,0-.84-2.08,9.3,9.3,0,0,0-.85,2.08A.85.85,0,0,0,820.16,1189.93Z"/><path class="cls-7" d="M816.15,1189.5a.79.79,0,0,0,.79-.79,8.87,8.87,0,0,0-.79-1.94,8.87,8.87,0,0,0-.79,1.94A.79.79,0,0,0,816.15,1189.5Z"/><path class="cls-7" d="M818.74,1191.72a.82.82,0,0,0,.2-.54,9.36,9.36,0,0,0-.84-2.08,15.58,15.58,0,0,0-.73,1.6A9.56,9.56,0,0,1,818.74,1191.72Z"/><path class="cls-7" d="M822.31,1198.5a13.58,13.58,0,0,0-3.13-6.09l-.06-.07-.15-.15,0,0h0a10,10,0,0,0-7.41-2.85V1189h-.21v.35c-.68-.06-8.46-.55-10.92,9.18a.11.11,0,0,0,.07.13h0a.1.1,0,0,0,.1-.08l.09-.32h3.48a1.46,1.46,0,0,0,0,.2.11.11,0,0,0,.08.13h0a.11.11,0,0,0,.11-.08,1.84,1.84,0,0,1,0-.25h3.69a2.64,2.64,0,0,0,0,.29.1.1,0,0,0,.09.11h0a.11.11,0,0,0,.11-.1c0-.1,0-.2,0-.3h3v.22h.21v-.22h2.91c0,.1,0,.2,0,.3a.1.1,0,0,0,.11.1h0a.1.1,0,0,0,.1-.11c0-.1,0-.2,0-.29h3.68l.06.25a.1.1,0,0,0,.1.08h0a.11.11,0,0,0,.08-.13l-.05-.2H822a3,3,0,0,1,.08.32.12.12,0,0,0,.11.08h0A.11.11,0,0,0,822.31,1198.5Z"/><path class="cls-7" d="M809.63,1210.9a2.31,2.31,0,0,1-2.3-2.31.59.59,0,1,1,1.18,0,1.13,1.13,0,0,0,2.25,0v-12.08a.59.59,0,1,1,1.18,0v12.08A2.31,2.31,0,0,1,809.63,1210.9Z"/></g><g id="_12" data-name="12"><path class="cls-5" d="M2962.33,189.6a1.32,1.32,0,0,0,0-.28,1.37,1.37,0,0,0-.07-.29.64.64,0,0,0,0-.07,1.86,1.86,0,0,0-.27-.5l-.07-.09a2.11,2.11,0,0,0-.4-.39l-.07,0a1.94,1.94,0,0,0-.61-.26l-34.8-9h0l-.09,0h-.09l-.27,0h-.33l-8.6.81-2.78,4.25,11.41-1.07,25.15,6.52-5.36.8a1.84,1.84,0,0,0-.62,0l-31-5.65-.79,1.21,29.61,5.4-36.15,9-.09,0-.14,0h-.14l-38.9-8.58,32.28-5.84-.79-1.2-32.48,5.87h0l25.44-6.37,6.93.3-2.68-4.1-4.36-.19h-.32l-.13,0-.12,0-40.48,10.15-.12.05a2.17,2.17,0,0,0-.44.19l-.09.06a2,2,0,0,0-.42.39l0,0a1.63,1.63,0,0,0-.28.52l0,.07a2.61,2.61,0,0,0-.1.57v0h0v0a3,3,0,0,0,.06.43v0a.08.08,0,0,1,0,0,2.05,2.05,0,0,0,.66,1l.06.05a1.74,1.74,0,0,0,.5.27.38.38,0,0,0,.1,0,1.72,1.72,0,0,0,.55.1l11.11.2-6.73,13.78-.06.18a.8.8,0,0,0-.07.2s0,0,0,0,0,.24-.06.36a.47.47,0,0,0,0,.17V209c0,.07,0,.13,0,.2l0,.17a1.38,1.38,0,0,0,.08.17,1.54,1.54,0,0,0,.08.19.57.57,0,0,1,.1.13,1.25,1.25,0,0,0,.12.17l.16.15.13.12a1.73,1.73,0,0,0,.32.2h0a1.55,1.55,0,0,0,.38.13l6.73,1.72v26.82s0,0,0,.07,0,.15,0,.21a.9.9,0,0,0,0,.19c0,.06,0,.12.05.18l.08.19.08.16.11.16.11.14.14.15.14.12.16.12.16.08.2.09.08,0,39.94,13.06a2.23,2.23,0,0,0,.62.1,2,2,0,0,0,1.22-.43l37.8-12.41.07,0,.2-.08a.42.42,0,0,0,.14-.09.39.39,0,0,0,.17-.11l.15-.11a.93.93,0,0,1,.13-.15l.12-.15.11-.15a.8.8,0,0,1,.08-.16,1.54,1.54,0,0,1,.08-.19c0-.06,0-.12.05-.18a1.13,1.13,0,0,0,0-.18,1.65,1.65,0,0,0,0-.21s0,0,0-.07l.33-26.8,7.73-2.07a1.51,1.51,0,0,0,.3-.1s.05,0,.06,0h0l.26-.17.07,0,.21-.2s0,0,.08-.07l.14-.19a1.48,1.48,0,0,1,.08-.13,2,2,0,0,0,.26-.91c0-.06,0-.13,0-.18a1,1,0,0,1,0-.15,1.09,1.09,0,0,0,0-.25v0c0-.06-.05-.11-.08-.18a.55.55,0,0,0,0-.17v0l-6.94-14.28,12.94-1.93.15-.05a1.63,1.63,0,0,0,.37-.13,1.08,1.08,0,0,0,.26-.14,2.26,2.26,0,0,0,.29-.23,2.09,2.09,0,0,0,.2-.22,2.32,2.32,0,0,0,.19-.31c0-.09.09-.19.13-.29a1,1,0,0,0,0-.1,2.05,2.05,0,0,0,.06-.49h0ZM2863,208.22l-3.38-.86,3.38-6.92,3.66-7.49a.2.2,0,0,0,0-.08l.08-.16s0-.08,0-.11l37.17,8.19s0,0,0,0a2,2,0,0,0-.11.2l-7,15.86L2867,209.24Zm41.3,41.67L2867,237.7V213.33l30.57,7.81h0a3,3,0,0,0,.43.06h.12a2.09,2.09,0,0,0,.51-.09,1.07,1.07,0,0,0,.22-.1,2,2,0,0,0,.32-.17,1.54,1.54,0,0,0,.19-.17,2.06,2.06,0,0,0,.25-.26l.14-.22a1,1,0,0,0,.1-.17l5.07-11.53ZM2941.33,238l-35.56,11.68.7-41.08,5,11.41a1.22,1.22,0,0,0,.12.19l.12.2a1.68,1.68,0,0,0,.26.27l.18.17a2.06,2.06,0,0,0,.33.17l.21.1a1.89,1.89,0,0,0,.53.08h.13a1.74,1.74,0,0,0,.39-.05h0l27.83-7.41Zm8.68-30.62-4.33,1.16-4,1.06-27.25,7.25-7-15.84a.41.41,0,0,1-.05-.09l35-8.76v.12a2.13,2.13,0,0,0,.23.67h0l4.38,8.38Z"/><path class="cls-5" d="M2909.08,178l-.06-.48a12.33,12.33,0,0,0-.21-1.34,13.36,13.36,0,0,0-.59-2,14.9,14.9,0,0,0-1.2-2.4,13.2,13.2,0,0,0-2-2.4,12.29,12.29,0,0,0-2.75-2,12.15,12.15,0,0,0-6.86-1.48h-.3l-.22,0-.44.06a6.09,6.09,0,0,0-.87.17,11.57,11.57,0,0,0-1.67.52,12,12,0,0,0-2.89,1.65,11.38,11.38,0,0,0-2.11,2.18,11.22,11.22,0,0,0-1.34,2.3,12.66,12.66,0,0,0-.64,2.11,10.54,10.54,0,0,0-.2,1.67,8.29,8.29,0,0,0,0,1.06c0,.25,0,.37,0,.37l.06-.36a6.47,6.47,0,0,1,.18-1,10.18,10.18,0,0,1,.49-1.53,9.93,9.93,0,0,1,2.51-3.61,9.58,9.58,0,0,1,4.65-2.34,9.66,9.66,0,0,1,2.6-.11,8.53,8.53,0,0,1,4.66,1.95,8.34,8.34,0,0,1,1.49,1.63,8,8,0,0,1,.9,1.69,9.45,9.45,0,0,1,.41,1.52,7.87,7.87,0,0,1,.09,1.19,6.58,6.58,0,0,1,0,.75c0,.17,0,.26,0,.26h-5.28l8.43,12.92,8.44-12.92Z"/></g><g id="_11" data-name="11"><path class="cls-5" d="M2789.33,208.43a1.09,1.09,0,0,0,0-.25v0l-.08-.18a1.09,1.09,0,0,0-.05-.17l0,0-2.28-4.7h0l-.87-1.79-1.51-3.12-3.65-8.33,0,0a2,2,0,0,0-1.51-1.27l-33.58-6.13v4l28,5.1-33,8.26-.09,0-.14,0h-.14L2704.71,192l29.85-5.4v-4l-34.85,6.31a1.84,1.84,0,0,0-.92.47h0a.75.75,0,0,0-.21.19l-.07.07a8.67,8.67,0,0,0-.8,1.34s0,0,0,.05l-8.23,16.84c0,.06,0,.13-.07.18a1.52,1.52,0,0,0-.06.2s0,0,0,0,0,.24-.05.36a.91.91,0,0,0,0,.17V209l.06.2a1,1,0,0,0,0,.17.67.67,0,0,0,.08.17,1.54,1.54,0,0,0,.08.19,1.13,1.13,0,0,1,.1.13,1.25,1.25,0,0,0,.12.17c.05.06.11.1.16.15l.13.12a1.73,1.73,0,0,0,.32.2h0a1.79,1.79,0,0,0,.39.13l6.73,1.72v26.82s0,0,0,.07,0,.15,0,.21,0,.14,0,.19a1.27,1.27,0,0,1,.06.18,1.54,1.54,0,0,0,.08.19c0,.05.05.1.08.16s.06.1.1.16l.12.14a1,1,0,0,0,.14.15l.14.12.16.12.16.08a1.21,1.21,0,0,0,.2.09l.08,0,39.93,13.06a2.24,2.24,0,0,0,.63.1,2,2,0,0,0,1.22-.43l37.8-12.41.06,0,.2-.08a.38.38,0,0,0,.15-.09.45.45,0,0,0,.17-.11l.15-.11a.93.93,0,0,1,.13-.15l.12-.15.1-.15.08-.16a1.54,1.54,0,0,0,.08-.19l.06-.18a1.1,1.1,0,0,0,0-.18.82.82,0,0,0,0-.21s0,0,0-.07l.33-26.8,7.74-2.07a1.24,1.24,0,0,0,.29-.1l.07,0h0a1.78,1.78,0,0,0,.27-.17l.06,0,.22-.2s.05,0,.08-.07l.14-.19a.35.35,0,0,1,.08-.13,1.91,1.91,0,0,0,.25-.91c0-.06,0-.13,0-.18A.44.44,0,0,1,2789.33,208.43Zm-91.85-.21-3.38-.86,3.38-6.92,3.78-7.73,0-.1h0l37.14,8.19s0,0,0,0a2.12,2.12,0,0,0-.12.2l-7,15.86-29.92-7.63Zm41.3,41.67-37.33-12.19V213.33l30.57,7.81h0l.43.06h.13a1.82,1.82,0,0,0,.51-.09l.21-.09a2.57,2.57,0,0,0,.33-.18l.19-.16a3.2,3.2,0,0,0,.25-.27,1.59,1.59,0,0,0,.13-.22,1,1,0,0,0,.11-.17l5.07-11.53ZM2775.84,238l-35.56,11.68.7-41.08,5,11.41c0,.07.08.13.11.19a2.39,2.39,0,0,0,.13.21,2.06,2.06,0,0,0,.25.26c.07.06.12.12.19.17a2,2,0,0,0,.32.17l.22.1a2.34,2.34,0,0,0,.53.08h.13a1.74,1.74,0,0,0,.39-.05h.05l27.83-7.41Zm4.35-29.46-4,1.06L2749,216.85,2742,201a.41.41,0,0,0-.05-.09l34.9-8.72.46.08a2.13,2.13,0,0,0,.13.43l2.89,6,4.21,8.7Z"/><polygon class="cls-5" points="2746.51 173.9 2740.14 163.79 2733.77 173.9 2737.21 173.9 2737.21 190.01 2743.07 190.01 2743.07 173.9 2746.51 173.9"/></g><g id="_10" data-name="10"><path class="cls-5" d="M2615.73,187.42h0a2,2,0,0,0-.12-.64.19.19,0,0,0,0-.07,1.89,1.89,0,0,0-.31-.53l-.06-.07a1.91,1.91,0,0,0-.47-.38l-.08-.05a2.14,2.14,0,0,0-.6-.21h0l-56.14-8.29h-.39a2,2,0,0,0-.35,0h0a1.88,1.88,0,0,0-.77.36l-25,17.84-.06.05a1.84,1.84,0,0,0-.25.23l-.1.12-.16.24a.91.91,0,0,0-.07.14,1.45,1.45,0,0,0-.11.29.61.61,0,0,0,0,.11,1.61,1.61,0,0,0-.05.44v44.65h0a1.91,1.91,0,0,0,.11.64s0,.05,0,.08a2.11,2.11,0,0,0,.31.52.27.27,0,0,0,.07.08,1.7,1.7,0,0,0,.46.38l.09.05a2,2,0,0,0,.59.21h0l57.29,8.7a1.51,1.51,0,0,0,.3,0h0a2,2,0,0,0,.64-.11,1.55,1.55,0,0,0,.22-.12,2.2,2.2,0,0,0,.31-.15l23.71-17.48.07-.06.22-.21.1-.12.16-.24s.05-.09.07-.13a2.83,2.83,0,0,0,.11-.31l0-.09a2,2,0,0,0,.05-.43l.22-45.46Zm-25.29,60-.41-41.3,21.71-16.36-.2,42.12Zm-32.38-66.22L2610.6,189l-21.41,16.14-53.09-8.22ZM2534.51,198l0,0,54.14,8.39.42,41.87-54.61-8.3Z"/><polygon class="cls-5" points="2541.53 190.56 2598.34 199.07 2598.57 208.22 2605.56 203.6 2605.64 193.12 2549.2 185.09 2541.53 190.56"/></g><g id="_9" data-name="9"><path class="cls-5" d="M2457.09,208.43a1.09,1.09,0,0,0,0-.25v0L2457,208a1.09,1.09,0,0,0,0-.17l0,0-3.87-8-4.67-10h0a2,2,0,0,0-1.5-1.25l-30.11-5.5-2.21,3.64,26.69,4.87-33,8.26-.09,0-.14,0h-.14L2372.27,192l29.67-5.37-2.22-3.63-32.36,5.85h0l-.09,0-.07,0a2.53,2.53,0,0,0-.84.35h0a5.81,5.81,0,0,0-1.09,1.69l0,.05L2357,207.81c0,.06,0,.13-.07.18a1.52,1.52,0,0,0-.06.2s0,0,0,0,0,.24-.05.36a.91.91,0,0,0,0,.17V209l.06.2a1,1,0,0,0,0,.17.67.67,0,0,0,.08.17,1.54,1.54,0,0,0,.08.19.57.57,0,0,1,.1.13,1.25,1.25,0,0,0,.12.17c0,.06.11.1.16.15l.13.12a1.73,1.73,0,0,0,.32.2h0a1.79,1.79,0,0,0,.39.13l6.73,1.72v26.82s0,0,0,.07,0,.15,0,.21a.9.9,0,0,0,0,.19c0,.06,0,.12,0,.18l.08.19c0,.05.05.1.08.16s.06.1.1.16l.12.14a1,1,0,0,0,.14.15l.14.12.16.12.16.08.2.09.08,0,39.93,13.06a2.36,2.36,0,0,0,.63.1,2,2,0,0,0,1.22-.43l37.8-12.41.07,0,.19-.08a.38.38,0,0,0,.15-.09.39.39,0,0,0,.17-.11l.15-.11a.93.93,0,0,1,.13-.15l.12-.15.11-.15a.8.8,0,0,1,.08-.16c0-.07,0-.12.07-.19l.06-.18a1.1,1.1,0,0,0,0-.18.82.82,0,0,0,0-.21s0,0,0-.07l.33-26.75.2-.05,7.74-2.07a1.24,1.24,0,0,0,.29-.1l.07,0h0a1.78,1.78,0,0,0,.27-.17l.06,0,.22-.2s0,0,.08-.07l.14-.19a.35.35,0,0,1,.08-.13,1.91,1.91,0,0,0,.25-.91c0-.06,0-.13,0-.18A.44.44,0,0,1,2457.09,208.43Zm-92.05-.21-3.38-.86,3.38-6.92,3.78-7.73,0-.1h0l37.14,8.19s0,0,0,0l-.12.2-7,15.86L2369,209.24Zm41.3,41.67L2369,237.7V213.33l30.56,7.81h0l.43.06h.13a2.09,2.09,0,0,0,.51-.09,1.07,1.07,0,0,0,.22-.1,2,2,0,0,0,.32-.17,1.54,1.54,0,0,0,.19-.17,1.88,1.88,0,0,0,.24-.25c.06-.08.1-.15.15-.23s.07-.1.1-.17l5.07-11.53ZM2443.4,238l-35.56,11.68.7-41.08,5,11.41a2,2,0,0,0,1.83,1.19h.2a2.2,2.2,0,0,0,.5-.06l27.63-7.36Zm4.55-29.46-4,1.06-27.43,7.3-7-15.89a.41.41,0,0,0-.05-.09l34.9-8.72.46.08a2.13,2.13,0,0,0,.13.43l2.44,5,3.77,7.77.91,1.9Z"/><polygon class="cls-5" points="2411.04 181.59 2413.99 159.66 2408.27 164.85 2402.56 159.66 2405.51 181.59 2400.18 178.65 2408.21 191.81 2408.27 191.7 2408.34 191.81 2416.37 178.65 2411.04 181.59"/></g><g id="_8" data-name="8"><path class="cls-7" d="M684.51,1170.88h0a2,2,0,0,0-2,2h0l-31.2,10.89,12.42-16s0,0,0,0a2.85,2.85,0,0,0,.16-.3,2.22,2.22,0,0,0,.14-.32l0-.06a3,3,0,0,0,.07-.51h0a1.91,1.91,0,0,0-.1-.58l0-.15a2.17,2.17,0,0,0-.24-.45.16.16,0,0,1,0-.07,2.1,2.1,0,0,0-.37-.36l-.07-.05-.1-.06a2.14,2.14,0,0,0-.56-.25h0L622,1153.86a.9.9,0,0,0-.16,0,1.38,1.38,0,0,0-.2,0h-.4l-.22,0-.17,0-.19.08-.17.08-.18.11-.15.11a1.37,1.37,0,0,0-.17.17l-.1.1-14.08,17.15a2.06,2.06,0,0,0-.47,1.3,2.2,2.2,0,0,0,.05.44l.14,49.32a2.12,2.12,0,0,0,.08.57.49.49,0,0,1,0,.11,1.62,1.62,0,0,0,.25.49l0,.07a2.45,2.45,0,0,0,.36.36l.08.07a2.45,2.45,0,0,0,.51.26l0,0,40.28,12.83a2.29,2.29,0,0,0,.62.1,2.14,2.14,0,0,0,.75-.16,1.7,1.7,0,0,0,.22,0l36-13,0,0a1.8,1.8,0,0,0,.49-.27l.09-.07a2.28,2.28,0,0,0,.37-.39v0a1.72,1.72,0,0,0,.24-.49s0-.08,0-.12a1.84,1.84,0,0,0,.08-.53l.41-49.56h0A2,2,0,0,0,684.51,1170.88ZM682,1221l-33.27,12,.15-46.84a2,2,0,0,0,.71-.41l32.8-11.45Zm-59.86-62.88,36.34,9.57-11.88,15.32a2.05,2.05,0,0,0-.41,1.13L609.45,1174v-.35Zm-12.73,17.27,37.4,10.33.16.16a1.43,1.43,0,0,0,.27.15l-.15,47.14-37.56-12Z"/><path class="cls-7" d="M686,1171.5l-14.21-13.56-.1-.07a1.73,1.73,0,0,0-.43-.27,1.5,1.5,0,0,0-.22-.11l-.08,0-34.45-10.22a1.7,1.7,0,0,0-.45-.08h0a1.93,1.93,0,0,0-.72.1l0,0a1.86,1.86,0,0,0-.65.38h0l0,0a1.82,1.82,0,0,0-.44.58l0,.08a1.09,1.09,0,0,0-.1.25,1.19,1.19,0,0,0-.05.32,1.08,1.08,0,0,0,0,.19s0,.05,0,.07a2.38,2.38,0,0,0,.1.65l0,0a2.19,2.19,0,0,0,.35.61l0,.06,10.43,11.9.16.16,1.46,1.34a2.06,2.06,0,0,0,1.39.54,2,2,0,0,0,1.44-.6,1.2,1.2,0,0,0,.19-.27l31.94,9.17,1.77,1.69a2.05,2.05,0,0,0,1.41.57,2.09,2.09,0,0,0,1.49-.64,2,2,0,0,0-.07-2.9Zm-36.15-9.2a2,2,0,0,0-.5-1.24l-7-7.83,27,8,10,9.51Z"/></g><g id="_7" data-name="7"><path class="cls-7" d="M521.44,1170a.76.76,0,0,0,0-.11,1.89,1.89,0,0,0-.25-.49l0-.06a2,2,0,0,0-.36-.36l-.08-.07a1.75,1.75,0,0,0-.51-.26l0,0-37.41-12.27h0a2.8,2.8,0,0,0-.28-.06l-.11,0h-.09a1.71,1.71,0,0,0-.32,0h0a2.7,2.7,0,0,0-.39.08h0l-41.41,12.28-.06,0a2.37,2.37,0,0,0-.53.26l-.06,0a2.22,2.22,0,0,0-.38.37l-.06.07a2.13,2.13,0,0,0-.25.5.76.76,0,0,0,0,.11,2.26,2.26,0,0,0-.09.58v13.74a1.53,1.53,0,0,0,0,.3l.1,37.69a2.11,2.11,0,0,0,.09.56.56.56,0,0,0,0,.12,1.89,1.89,0,0,0,.25.49l0,.06a2.16,2.16,0,0,0,.37.37l.08.06a1.89,1.89,0,0,0,.51.26l.05,0,40.23,12.81h0a2,2,0,0,0,1.24,0h0l38.44-12.32,0,0a1.75,1.75,0,0,0,.51-.26l.08-.06a2.1,2.1,0,0,0,.36-.37l0-.06a1.89,1.89,0,0,0,.25-.49.56.56,0,0,0,0-.12,2.05,2.05,0,0,0,.09-.56h0v-52.22A2.19,2.19,0,0,0,521.44,1170Zm-78.61,50.79-.09-35.16h0l37.6,10.76v36.36Zm39.2-60.35,32.76,10.75-33.12,9.43-35.92-9.42ZM480.34,1182V1195l-37.62-10.86a.88.88,0,0,0,0-.16v-11.84l.47-.14Zm1.37,12.64V1182l.15,0h0l35.25-10,.32.1v12.06Zm0,38.07v-36.37l35.72-10.81v35.73Z"/><polygon class="cls-7" points="493.07 1162.46 455 1174.31 454.9 1188.2 465.05 1190.96 465.11 1177.41 503.1 1166.05 493.75 1162.46 493.07 1162.46"/><polygon class="cls-7" points="461.36 1164.52 497.94 1176.71 497.94 1190.06 507.15 1187.88 507.15 1173.64 470.02 1161.88 461.36 1164.52"/></g><path id="_6" data-name="6" class="cls-7" d="M365.79,1188.09a1.17,1.17,0,0,0,0-.26h0c0-.07-.05-.13-.08-.19a.55.55,0,0,0-.06-.18h0l-8.42-17.36-.08-.12a1.63,1.63,0,0,0,0-.31,2,2,0,0,0-1.68-2l-39.46-7.2a1.84,1.84,0,0,0-.74,0,1.74,1.74,0,0,0-.72,0l-41.21,7.45a2,2,0,0,0-1.61,1.56l0,0a.08.08,0,0,0-.06,0,1.94,1.94,0,0,0-.34.47h0l0,.06-8.49,17.38c0,.07,0,.13-.07.19a.86.86,0,0,0-.07.21s0,0,0,0,0,.25-.06.37a.5.5,0,0,0,0,.18v.22c0,.07,0,.13,0,.2s0,.13,0,.18.06.12.08.18l.09.19a.61.61,0,0,1,.1.14l.13.18c.05,0,.11.09.16.15a.87.87,0,0,0,.14.12,1.08,1.08,0,0,0,.33.2s0,0,0,0a1.7,1.7,0,0,0,.4.13l6.94,1.78v27.68s0,0,0,.06,0,.15,0,.22,0,.14,0,.19l.06.19a1.67,1.67,0,0,0,.08.2l.08.16.11.16.12.15c0,.06.1.11.14.16l.15.12.16.12.17.08.2.1.09,0,41.2,13.46a2.11,2.11,0,0,0,.65.11,2.05,2.05,0,0,0,1.26-.44l39-12.8.07,0,.21-.08a.75.75,0,0,0,.15-.09,1.08,1.08,0,0,0,.18-.11,1,1,0,0,1,.15-.13l.13-.15.13-.15s.06-.11.1-.16l.09-.17c0-.06.05-.12.08-.19s0-.12.05-.19a.52.52,0,0,0,0-.18,1.92,1.92,0,0,0,0-.22s0,0,0-.06l.34-27.66,8-2.14a1.08,1.08,0,0,0,.3-.11l.07,0h0a1.81,1.81,0,0,0,.27-.18l.07,0a2.23,2.23,0,0,0,.22-.21l.08-.06c.06-.07.1-.14.15-.21a.94.94,0,0,1,.09-.12,2.25,2.25,0,0,0,.26-1c0-.06,0-.13,0-.19A.66.66,0,0,1,365.79,1188.09Zm-50.25-8.82-.09,0-.18,0h-.1l-36.69-8.09,36.78-6.66h0l34.37,6.28Zm-48,7.71,3.48-7.13,3.9-8s0-.07,0-.1h0l38.32,8.45s0,0,0,0a2.12,2.12,0,0,0-.12.2L306,1196.8l-30.87-7.87-4.11-1.06Zm7.59,6.17,31.54,8h0a2.32,2.32,0,0,0,.45.06h.11a2.54,2.54,0,0,0,.54-.09l.22-.1a3.65,3.65,0,0,0,.34-.18,1.62,1.62,0,0,0,.2-.18,1.48,1.48,0,0,0,.24-.26,1.82,1.82,0,0,0,.15-.23c0-.06.08-.11.11-.18l5.23-11.9-.64,42.74-38.51-12.58Zm76.75,25.46-36.69,12.05.72-42.4,5.18,11.78a1.32,1.32,0,0,0,.12.2,2.39,2.39,0,0,0,.13.21,2.23,2.23,0,0,0,.26.27,1.54,1.54,0,0,0,.19.17,1.59,1.59,0,0,0,.34.18,1.47,1.47,0,0,0,.22.1,1.77,1.77,0,0,0,.56.09H323l.41-.06h.06l28.71-7.64Zm4.49-30.41-4.12,1.09-28.12,7.49-7.18-16.35-.06-.09,36-9,.48.09a2.23,2.23,0,0,0,.13.44l3,6.16,4.35,9Z"/><path id="_5" data-name="5" class="cls-7" d="M192.83,1183.82a.56.56,0,0,0,0-.12,2.43,2.43,0,0,0,.09-.55h0v-14.06h0a2.27,2.27,0,0,0-.1-.58l0-.11a2.19,2.19,0,0,0-.27-.5l-.06-.08a2.52,2.52,0,0,0-.41-.39l0,0a1.91,1.91,0,0,0-.56-.26s0,0-.05,0l-40.92-11.17h-.12l-.21,0h-.4a.69.69,0,0,0-.2,0l-.12,0L105.66,1167a2.05,2.05,0,0,0-2,2v14.09a2,2,0,0,0,0,.24,2,2,0,0,0,.63,1.43l0,0a2.24,2.24,0,0,0,.43.31l.27.14.11,0,1.48.44-.27,37.33h0a2,2,0,0,0,.08.56.49.49,0,0,1,0,.11,1.74,1.74,0,0,0,.25.49.1.1,0,0,0,0,0,1.85,1.85,0,0,0,.36.38l.08.06a1.83,1.83,0,0,0,.5.26l0,0,41.61,14h0a2.17,2.17,0,0,0,.62.1h0a2,2,0,0,0,.68-.13h0l37-14.26h0a2.27,2.27,0,0,0,.48-.27l.1-.08a2.29,2.29,0,0,0,.36-.4l0,0a1.92,1.92,0,0,0,.21-.46.36.36,0,0,0,0-.11,1.75,1.75,0,0,0,.08-.51v0h0l.76-37.19,1.81-.59,0,0a1.75,1.75,0,0,0,.51-.26l.08-.06a2.16,2.16,0,0,0,.36-.38.1.1,0,0,0,0,0A1.89,1.89,0,0,0,192.83,1183.82Zm-42.22,50.84.06-38h0v-.9l35-11.54h0l-.76,37.26ZM150,1160l36,9.83-36,10.88-38.71-10.88Zm-40.37,22.4a2.22,2.22,0,0,0-.85-.26l-1-.3v-11.13l.82-.21L149.24,1182l0,12.39Zm41.06,11.88,0-12.36,37.84-11.41.4.11v11l-1.78.58h0a2.17,2.17,0,0,0-.35.15Zm-40-9.37,0,0a2,2,0,0,0,.09-.59s0-.08,0-.12l38.57,11.59v.86l-.05,38.1-38.87-13.07Z"/><g id="_4" data-name="4"><polygon class="cls-5" points="2235.51 226.57 2238.6 226.57 2238.6 217.32 2240.61 217.32 2237.06 212.77 2233.51 217.32 2235.51 217.32 2235.51 226.57"/><polygon class="cls-5" points="2244.91 226.57 2248 226.57 2248 217.32 2250 217.32 2246.45 212.77 2242.9 217.32 2244.91 217.32 2244.91 226.57"/><rect class="cls-5" x="2231.62" y="228.29" width="20.17" height="2.75"/><path class="cls-5" d="M2280.71,200.12l-12-18.4v0l-.18-.22-.09-.11a1.56,1.56,0,0,0-.2-.16l-.19-.14a2.3,2.3,0,0,0-.67-.27h0l-.17,0-.26,0h-52.51l-.27,0H2214a1.69,1.69,0,0,0-.24.08l-.16,0a1.41,1.41,0,0,0-.24.13l-.12.06-.18.15-.14.12-.1.13a1,1,0,0,0-.16.2l0,0-11.82,18.43a2.14,2.14,0,0,0-.85,1.7V246a2.13,2.13,0,0,0,2.14,2.13h77.35a2.13,2.13,0,0,0,2.14-2.13V201.86A2.14,2.14,0,0,0,2280.71,200.12ZM2215.62,185h50.15l10.74,16.48h-71.46Zm-11.37,17.91h73.08v40.94h-73.08Z"/><polygon class="cls-5" points="2246.84 202.21 2235.81 202.21 2237.57 180.91 2245.09 180.91 2246.84 202.21"/><rect class="cls-5" x="2235.81" y="202.21" width="11.03" height="8.08"/></g><g id="_3" data-name="3"><path class="cls-7" d="M2117.38,216.89h-16.14a8.07,8.07,0,0,0,7,8v9.38h-4.53v2.15h11.2v-2.15h-4.52v-9.38A8.07,8.07,0,0,0,2117.38,216.89Z"/><path class="cls-7" d="M2127,201.82l-37.92-20.43-.08,0a1,1,0,0,0-.22-.09l-.19-.06-.21,0-.21,0h-65a2.08,2.08,0,0,0-.66.11,2.13,2.13,0,0,0-2,2.13v42.08a2.44,2.44,0,0,0,0,.48l0,.12a2.19,2.19,0,0,0,.12.33l.08.14.19.27.1.12a2.22,2.22,0,0,0,.36.32h0l31.13,20.92a2.18,2.18,0,0,0,1.19.36,1.88,1.88,0,0,0,.53-.07l72.43-.32.22,0a1.52,1.52,0,0,0,.21,0,1.66,1.66,0,0,0,.21-.06l.19-.06.21-.11.15-.09a1.24,1.24,0,0,0,.22-.18l.1-.08a1.69,1.69,0,0,0,.2-.25l.06-.06a3.24,3.24,0,0,0,.17-.32s0,0,0-.05a2.29,2.29,0,0,0,.12-.37s0,0,0,0a2,2,0,0,0,0-.43h0v-42A2.13,2.13,0,0,0,2127,201.82Zm-39.47-16.41,33.05,17.81h-66.84l-26.16-17.81Zm-62.78.24,28.07,18.66.2.14v38.87l-28.27-19Zm29.7,58.53V204.74h68.95l1.16.62v38.51Z"/></g><g id="_2" data-name="2"><path class="cls-7" d="M1919.93,201.76a2.13,2.13,0,0,0-2.14,2.13v40.53h-64.08V189.23h56.52a2.14,2.14,0,1,0,0-4.27h-58.66a2.14,2.14,0,0,0-2.14,2.14v59.46a2.13,2.13,0,0,0,2.14,2.13h68.36a2.13,2.13,0,0,0,2.14-2.13V203.89A2.13,2.13,0,0,0,1919.93,201.76Z"/><path class="cls-7" d="M1967.19,234.23l-42.44-73.5a2.13,2.13,0,0,0-2.92-.79l-20.55,11.87a2.13,2.13,0,0,0-1.07,1.85,2.08,2.08,0,0,0,.29,1.07l42.43,73.5a2.15,2.15,0,0,0,1.85,1.07,2.1,2.1,0,0,0,1.07-.29l20.55-11.87a2.14,2.14,0,0,0,.79-2.91Zm-21.63,10-40.3-69.8,16.86-9.73,40.3,69.8Z"/></g><g id="_1" data-name="1"><rect class="cls-7" x="1734.94" y="225.04" width="17.52" height="2.6"/><rect class="cls-7" x="1734.94" y="220.98" width="17.52" height="2.59"/><polygon class="cls-7" points="1740.59 219.62 1746.86 219.62 1746.86 216.96 1752.48 216.96 1743.72 206.66 1734.96 216.96 1740.59 216.96 1740.59 219.62"/><path class="cls-7" d="M1784,175.32h-83.35a2.14,2.14,0,0,0-2.14,2.14V197.9a2.13,2.13,0,0,0,2.14,2.13h4.86v46a2.13,2.13,0,0,0,2.13,2.13H1777a2.13,2.13,0,0,0,2.14-2.13V200H1784a2.13,2.13,0,0,0,2.14-2.13V177.46A2.14,2.14,0,0,0,1784,175.32Zm-74.22,22.59h0v-.08a2,2,0,0,0-.14-.74H1775a2,2,0,0,0-.14.74v.07h0v46h-65.09Zm67.77-2.15-.27,0a.66.66,0,0,0-.28-.05h-69.35a.64.64,0,0,0-.28.05l-.27,0h-4.32V179.6h79.08v16.16Z"/></g><line class="cls-3" x1="3081.96" y1="77.41" x2="-155.16" y2="43.29"/><g class="cls-8"><path class="cls-9" d="M1695.13,1126.45l149.1-285.26,32.69,66.65-70.62,257.88S1727.83,1156.51,1695.13,1126.45Z"/><polygon class="cls-10" points="1798.87 927.98 1786.03 1162.47 1806.3 1165.72 1876.92 907.84 1847.19 847.24 1798.87 927.98"/><path class="cls-11" d="M1854.6,955.16S1803.77,647.38,1788,441.27c0,0,435.48-68.8,668.93-78.6,0,0,8.34,36.68,9.81,69.37L2467,437l-13,6,7.52,393.9s-79.78,66.81-134.71,87.3C2326.83,924.19,1948.69,959.1,1854.6,955.16Z"/><path class="cls-12" d="M2193.16,935.78,2187.67,884l144-11.28.43,51S2278.59,928.51,2193.16,935.78Z"/><path class="cls-13" d="M1854.6,955.16s98.86-48.73,221.13-54.78,251.1,23.81,251.1,23.81S1974.19,955.18,1854.6,955.16Z"/><g class="cls-4"><polygon class="cls-14" points="953.99 650 720.43 575.69 973.63 540.18 1207.19 614.49 953.99 650"/><polygon class="cls-15" points="948.48 850.27 718.59 759.92 720.43 575.69 953.99 650 948.48 850.27"/><polygon class="cls-16" points="953.99 650 1207.19 614.49 1201.68 806.52 948.48 850.27 953.99 650"/></g><path class="cls-17" d="M2291.87,764.27c-.52-.16-4.82-1.92-5.7-7.77-1-6.26,6.53-12,8-11.9h.62C2291.76,746.61,2284.36,753.09,2291.87,764.27Z"/><path class="cls-17" d="M2289.18,816a31.15,31.15,0,0,1-8.29-.42s-13.3-9.83-4.09-20.86c0,0,1.25-.57,3.32-1.4a18.71,18.71,0,0,0-1.56,13.67C2280.48,814,2286.85,815.68,2289.18,816Z"/><path class="cls-18" d="M2718.86,1035.63c-4.91,43.12-36.29,85.31-36.29,85.31-65.74-91.22-111.82-118.65-111.82-118.65a527,527,0,0,1-66.37,27.85.55.55,0,0,0-.2.1c-63.73,22-119.95,29.41-129.95,28-11.85-1.76-39.13-11.7-45.19-13.93a.15.15,0,0,1-.1,0l-1.14-.41c-40.85-2.33-76.83-14.4-76.83-14.4s-21.59-1-21.59-6.57,26.82-22.52,26.82-22.52-33.65-1.66-33.65-3.63,2.28-11.13,25.16-15.73,51.3,0,56.22,0c1.81,0,8.23.15,17.09.15,11.59,0,27.48-.36,42.81-1.91,4.76-.47,9.52-1,14-1.76,30.08-4.92,94.48-35.67,94.48-35.67a33.64,33.64,0,0,0-10.15-2.28c-4.61-.26-17.24,6.26-35.31,9.16a1.23,1.23,0,0,0-.36.11,102.78,102.78,0,0,1-11.08,1.19c-24.23,1.29-49.08-5.9-49.7-14.08s8.8-17,11.76-18c2.22-.72,35.77,1.55,68.07,1.3,10.72-.06,21.23-.47,30.5-1.3a122.64,122.64,0,0,0,19.51-3.42c26.87-6.62,47.22-18.94,70.77-11.8,19.62,6,32.93,27.39,39.81,41.68a96.92,96.92,0,0,1,5.28,13.25C2612.43,961.54,2718.86,1035.63,2718.86,1035.63Z"/><path class="cls-19" d="M2379.22,992.61s-27.22,5.13-47.08,5.8c0,0,36.05.89,40.46-.57A13,13,0,0,0,2379.22,992.61Z"/><path class="cls-20" d="M2547.87,952.23s-19.91,9.44-35.49,17.17c-27.84,13.82-40.71,33.92-59.34,50.27s-46.35,20.61-46.35,20.61a10.56,10.56,0,0,0-5.64-3.21c-3.26-.82-18.38.89-23.4,1.51,4.25-.78,11.55-2.59,12.11-4.56.73-2.43-2.79-11.34-13.56-11.65-7.14-.26-24.33-1.91-30.44-1.55,3.73-.36,4.5-.36,13.46-3.37,11-3.67,5.9-8.33-.67-12.73s-31.74-6.37-31.74-6.37c13.41-.36,5.85-8.54,2.64-12.27-1-1.19-4.19-3-8.43-5,11.59,0,27.48-.36,42.81-1.91,4.76-.47,9.52-1,14-1.76,30.08-4.92,94.48-35.67,94.48-35.67a33.64,33.64,0,0,0-10.15-2.28c-4.61-.26-17.24,6.26-35.31,9.16,3.32-.93,29.82-8.59,30.08-16.51.16-4.61-5.9-9.48-11.39-12.94,10.72-.06,21.23-.47,30.5-1.3a122.64,122.64,0,0,0,19.51-3.42h.16l-4.92,8.81s-.26,15.53,18.64,20.13C2533.48,949.27,2547.87,952.23,2547.87,952.23Z"/><path class="cls-21" d="M2558.32,953.87s-37.93-12.75-70,17.34c-33.3,31.26-30.34,44.23-63.56,62.82,0,0,13.86-3.65,39.69-29.15S2501.75,951.91,2558.32,953.87Z"/><path class="cls-22" d="M2291.68,1022.37c-.74-3.92,7,11.66,35.13-9.64,19.37,3.14,40.15,24.6,49.23,25.58s26-4.28,26-4.28-19.78,4.2-24.52,2.73-30.68-24.36-49.54-27C2295.51,1005.28,2291.68,1022.37,2291.68,1022.37Z"/><path class="cls-23" d="M2328.94,1044.22l-1.14-.41c-40.85-2.33-76.83-14.4-76.83-14.4,2.07-11.28,27.85-14.91,31.06-15.32-14,2.54-26.14,12-26.14,12s2.64,5.64,12.48,7.3,23.29-11,23.29-11C2293.58,1027.86,2326.86,1043.29,2328.94,1044.22Z"/><path class="cls-24" d="M2256.2,1000.32s11.2-3,32.29-3,36.54,1.48,36.54,1.48-42.92-7.84-75.78,0Z"/><path class="cls-25" d="M2356.91,1019.67s13-3.43,18.39-4.16a36.18,36.18,0,0,1,9.81,0S2363.53,1019.67,2356.91,1019.67Z"/><path class="cls-25" d="M2381.19,986.57s5.39,35.09,24,47.46C2405.22,1034,2373.09,1015.51,2381.19,986.57Z"/><path class="cls-25" d="M2400.55,1030.22s-13.44,7.83-21.68,8.21c0,0,15.31-.85,25.73-4.77Z"/><path class="cls-26" d="M2231.84,1023.73a34.54,34.54,0,0,0,25.18-3.65c12.75-7.35,15.14-18.11,11.93-19.76S2231.35,1008.09,2231.84,1023.73Z"/><path class="cls-27" d="M2254.4,1026.79s5.37,8,16.91,6.64,18.64-13.67,18.64-13.67-5.6-4.91-12.24-4.66S2256.22,1023.64,2254.4,1026.79Z"/><path class="cls-28" d="M2222.69,995.64s9,3.11,23.87-.29,24.16-13.14,24.75-14.39S2235.77,974.31,2222.69,995.64Z"/><path class="cls-29" d="M2367.92,939.75s18.91,12.1,43.43,10.33,29.91-19.71,25.5-25.31-53.48-6.38-59.35-6.87S2363,930.21,2367.92,939.75Z"/><path class="cls-25" d="M2472.34,941.77l24.74,2.29s-21.16,3.46-49.95,9.11Z"/><path class="cls-30" d="M2718.86,1035.63c-4.91,43.12-36.29,85.31-36.29,85.31-65.74-91.22-111.82-118.65-111.82-118.65a527,527,0,0,1-66.37,27.85c3.83-1.81,56-30.24,67.34-37.53,26.16-16.83,18.65-36.45,18.65-36.45s13.36-4.92,15.74-11.75l0,0a96.92,96.92,0,0,1,5.28,13.25C2612.43,961.54,2718.86,1035.63,2718.86,1035.63Z"/><path class="cls-31" d="M2611.44,957.61s-9.31,1.06-17.16,23.35c0,0-6.37-20.91,0-30.7S2611.44,957.61,2611.44,957.61Z"/><path class="cls-32" d="M2328.94,1044.22s-36.35-16.85-37.28-21.85,17.43-18.64,39.06-12.07,38.86,25.61,48.5,26.72,21.87-5.92,21.87-5.92-15-18.79-18.09-28.13-3.78-10.36-3.78-10.36-35.59,6.82-59.36,5.82-49.79-1.93-63.66,1.89c0,0-24.55,12.59-26.58,21.52s21.35,7.57,21.35,7.57S2297.81,1043.77,2328.94,1044.22Z"/><path class="cls-33" d="M2454,443s-61.86,35.23-125.59,56.42c0,0-425.35,12.83-451.51,6.71S1809.57,446,1809.57,446L1788,441.27l77.15,74.43s460.23,23.43,467.81,20.54,121.2-83.94,121.2-83.94Z"/><path class="cls-34" d="M2320.38,424.8s16.85,37.63,8,74.61l3.71,422.69s78.06-38.67,129.4-85.21L2454,443l13-6s2.39-33.09-10-74.28C2457,362.67,2381.94,411.71,2320.38,424.8Z"/><path class="cls-35" d="M1788,441.27s372.22-13.21,532.35-16.47c0,0,87.53-21.92,136.58-62.13C2457,362.67,2122.56,380.58,1788,441.27Z"/><path class="cls-36" d="M1788,441.27s410.8-9.29,532.35-16.47c0,0,80.67-16,136.58-62.13,0,0-93.07,36.25-278.52,51.48S1788,441.27,1788,441.27Z"/><polygon class="cls-37" points="791.95 367 432.6 207.58 848.1 125.66 1236.41 292.32 791.95 367"/><polygon class="cls-38" points="788.38 697.86 436.25 501.46 432.6 207.58 791.95 367 788.38 697.86"/><polygon class="cls-39" points="791.95 367 1236.41 292.32 1232.83 607.91 788.38 697.86 791.95 367"/><g class="cls-40"><polygon class="cls-41" points="791.95 367 1236.41 292.32 1232.83 607.91 788.38 697.86 791.95 367"/></g><path class="cls-42" d="M1056.4,208.48l-18.53,4.08-21.26,4.69c-8.2,1.87-17.46,3.88-27.66,5.6L839.82,250.57,690.7,278.28c-10.14,2.05-19.52,3.47-27.83,4.7l-21.53,3.27-18.76,2.85L641.11,285l21.26-4.68c8.21-1.85,17.47-3.89,27.67-5.62L839.16,247,988.29,219.3c10.13-2.06,19.51-3.51,27.83-4.71l21.52-3.27Z"/><polygon class="cls-43" points="988.81 200.94 1046.71 220.24 641.8 302.51 580.71 277.54 988.81 200.94"/><polygon class="cls-44" points="579.22 359.88 637.21 400.51 639.86 303.79 580.71 277.54 579.22 359.88"/><path class="cls-34" d="M2117,941.85l-15.44-437.92-12.86,1-8.34-75.46c34.15-13.86,59.14-20.4,98.09-32.22l-120.22,32.22S2073.91,886.05,2117,941.85Z"/><path class="cls-45" d="M2074.28,429.47s-2.52,336,41.59,512.45l-62.81,4.21s-51.41-295.08-66.17-460.54c-1.65-18.89-2.89-36.13-3.46-51,0,0,118.55-36.86,242.07-52.44l53.48-5.65C2270.23,378.07,2129.83,402.92,2074.28,429.47Z"/><path class="cls-46" d="M2117,941.84l-63.93,4.29-2.23-13c-10-58.76-51-302.8-63.94-447.55l-3.46-51,90.85-5.13S2072.88,765.41,2117,941.84Z"/><path class="cls-34" d="M1840.63,866.31l127.25-7.22s44.41,8,61.41,7.22S2079.93,832,2079.93,832l-53.91-5.1,79.4-47.17,9.35-37.75-73.06-3.47s30.39-27.86,62.93-56l-4-18.7-211.26,30.44L1837,691s65.62-18,99.51-48.56,28.25-46.48,28.25-46.48l-99.61,26.77-55.7,21.53Z"/><path class="cls-47" d="M2882.66,943.55c-14.23,34.79-34.89,93.39-38.62,104l-.62,1.71c-104.73-125.07-191.18-204-222-230.94-1.34-1.19-2.48-2.13-3.36-3-.67-.57-1.3-1.09-1.87-1.56-.2-.2-.41-.36-.56-.51s-.37-.31-.52-.42c-3.78-3.26-5.8-4.92-5.8-4.92s-15,17-32.3,22.32c-15.28,4.65-127.36,31.21-158.73,37.68-4.09.88-6.83,1.4-7.77,1.45-8.17.68-70.45-1.76-72.42-2.27s-3.94-4.56-3.73-6.68,13.88-11,27.44-12.43,21.43,3.57,35.46.62a45.77,45.77,0,0,0,5-1.39c14.13-5,33.39-18.23,33.39-18.23s-7.14.42-16.87.94c-15.28.82-37,2-47.63,2.27-17.4.47-76.26,1.25-78.23-2s-.25-13-.25-13-9.06-.72-11.76-1.71-9.83-9.11-9.57-13.25,7.35-13.51,27.69-22.57a77.63,77.63,0,0,1,9.68-3.47l.21-.05c11.8-3.57,26-5.8,36.19-7.09l.41-.06c7.72-.93,13.05-1.34,13.05-1.34l-5.44-.16c-15.63-.36-59.84-1.65-63.88-4.09-4.92-2.95-5.54-8.18-4.92-11.75s18.33-15.37,43.49-18c21.33-2.18,48.87-.21,56.79.46,1.45.16,2.22.21,2.22.21a299.78,299.78,0,0,0,68.7-9.84c14-3.67,28.48-9.57,41.06-15.58a4.8,4.8,0,0,1,.51-.26c20.76-10,36.4-20.45,36.4-22,0-1.81-6.89-13.67-19.11-21.75a.15.15,0,0,0-.1-.05,44.79,44.79,0,0,0-19.36-7.3c-24.23-3-56.9,4.25-77.19-1.34a21.57,21.57,0,0,1-8.8-4.92,35.68,35.68,0,0,1-6.63-7.92l-.05-.05c-8.54-13.31-11.18-31.84-8.07-33.86,4.6-2.95,77.18,20.29,105.61,21.28,19.56.67,50.68-2.39,74.6.57h0c10.87,1.34,20.29,3.88,26.4,8.59,17,13,40.28,76.83,46.28,93.86l1.45,4.19c68.29,88.27,177.93,167.32,218.42,195l3.57,2.43c5.59,3.83,9.47,6.37,11.13,7.45Z"/><path class="cls-48" d="M2294.13,744.6s20.23-.23,29.06,4.55,5.15,11.28-2.82,14.47-26.24.78-26.24.78Z"/><path class="cls-49" d="M2395.43,625.52s10.77,3.6,27.81,4.21,21.7-4.78,21.7-6.5-13.38-5.83-13.38-5.83Z"/><path class="cls-50" d="M2278.59,794s12.61-7.55,32.63-7.06,21.76,14.3,13.82,19.45-30.91,9.16-30.91,9.16Z"/><path class="cls-51" d="M2298.74,818.55s26.5-3.84,36.2,2.21-5,10.68-12.61,11.21S2298.74,818.55,2298.74,818.55Z"/><path class="cls-52" d="M2336.2,859.09a71.54,71.54,0,0,1,21.81-2.28c11.4.73,9.32,7.88,2.45,9.56a34.41,34.41,0,0,1-14.1,0Z"/><path class="cls-53" d="M2647.11,733.83s-37.48,42.81-37.79,74.18c0,0-15,17-32.3,22.32-15.28,4.65-127.36,31.21-158.73,37.68a20.26,20.26,0,0,0,.41-11.59c-2.27-9.84-16.46-9.11-16.46-9.11l16.46-16.67a4.81,4.81,0,0,1,.06-.62c.31-3.63,1.19-22.73-15.12-26.61,0,0,13.41-3.58,19.31-8.65s1.71-20.91-6.89-23.5c-8.33-2.49-102.81,4.71-107.37,5.07l.21-.05,36.19-7.09.41-.06,7.61-1.5,6.73-1.29s29.1.41,37-6.42-5.75-21.64-12.22-25.68c1.45.16,2.22.21,2.22.21a299.78,299.78,0,0,0,68.7-9.84c37.28-9.78,78-35.3,78-37.89s-14.39-26.2-38.57-29.1-56.9,4.25-77.19-1.34a21.57,21.57,0,0,1-8.8-4.92l-6.63-7.92c1.25.72,24.28,13.72,71,10.56,47.06-3.21,98.88-21.8,101.06-22.62h0c10.87,1.34,20.29,3.88,26.4,8.59C2617.81,653,2641.11,716.8,2647.11,733.83Z"/><path class="cls-54" d="M2358.54,767.79s31.47.25,42,0,45.36-5.15,45.36-5.15-38.5,6.13-45.36,7.11S2358.54,767.79,2358.54,767.79Z"/><path class="cls-54" d="M2291,817.17S2323.07,809,2349.8,807c0,0-38.47,8.41-57.37,11.8Z"/><path class="cls-54" d="M2454,794.77s-23.54,3.92-47.41,8.66c0,0,40.87-4.66,50.35-6Z"/><path class="cls-54" d="M2435.62,829.1l-22.16,13.22s32.38-10.77,46.77-17.31Z"/><path class="cls-55" d="M2436.77,626.35a43.82,43.82,0,0,1-9,1.4,128.06,128.06,0,0,1-29.19-1.66l-3.16-.56c-8.65-12.07-1.24-16-1.24-16l4.4.41c7,.83,20.81,2.75,30.8,6.58a38.11,38.11,0,0,1,4,1.76h.05C2440.71,621.59,2442.26,624.54,2436.77,626.35Z"/><path class="cls-55" d="M2321.58,760.85c-6.1,3.57-19,4-29.66,3.47l-.05-.05c-.52-.16-4.82-1.92-5.7-7.77-1-6.26,6.53-12,8-11.9h.62c3.47.1,20.19.82,27.18,5.9a6.65,6.65,0,0,1,2.9,3.88C2325.57,757.23,2324.22,759.35,2321.58,760.85Z"/><path class="cls-55" d="M2321,806a20.36,20.36,0,0,1-6.27,3.63c-9.58,3.62-18.07,6-25.42,6.42h-.15a31.15,31.15,0,0,1-8.29-.42s-13.3-9.83-4.09-20.86c0,0,1.25-.57,3.32-1.4,6.47-2.59,21.12-7.45,32-4,1.14.36,2.17.77,3.16,1.19C2324.17,794.5,2326.4,801.08,2321,806Z"/><path class="cls-55" d="M2327.74,831.05a17.23,17.23,0,0,1-5.43.93,213,213,0,0,1-23.76-.57c-3-.31-5.08-.67-5.65-1.08-1.7-1.25-.46-11.5-.46-11.5s2.38-.15,5.95-.26c8.6-.36,24.13-.62,29.72,1.14l.83.31C2334.37,822.46,2334.68,828.72,2327.74,831.05Z"/><path class="cls-55" d="M2360.88,865.37h-.05c-3.78,1.71-11.24,2.7-21.75,1.87a6.44,6.44,0,0,1-1,0s-4.09-2.18-2.95-7.87c0,0,.93-.21,2.43-.52,4.82-.93,15.74-2.59,22.06-.16a12.71,12.71,0,0,1,1.44.68C2364.76,861.44,2364.5,863.77,2360.88,865.37Z"/><path class="cls-56" d="M2882.66,943.55l-38.62,104-.62,1.71c-104.73-125.07-191.18-204-222-230.94,31.22,26.45,169.24,142.83,201.39,151.48C2859.11,979.68,2867,933,2867,933l3.57,2.43,11.13,7.45Z"/><path class="cls-17" d="M2321.58,760.85c-1.29-1.24-2.43-2.74-2.43-4.35,0-2.28,1.61-4.6,2.8-6a6.65,6.65,0,0,1,2.9,3.88C2325.57,757.23,2324.22,759.35,2321.58,760.85Z"/><path class="cls-17" d="M2321,806c-2.28-.82-4.61-2.27-5.49-4.76a19.7,19.7,0,0,1-.26-10.66C2324.17,794.5,2326.4,801.08,2321,806Z"/><path class="cls-17" d="M2327.74,831.05c-1.91-.88-3.62-2.17-3.83-4.09-.41-3.36,2.44-6,4.2-7.25l.83.31C2334.37,822.46,2334.68,828.72,2327.74,831.05Z"/><path class="cls-17" d="M2298.55,831.41c-3-.31-5.08-.67-5.65-1.08-1.7-1.25-.46-11.5-.46-11.5s2.38-.15,5.95-.26c-.83,2.33-2.79,8.55-.77,11.65A9,9,0,0,0,2298.55,831.41Z"/><path class="cls-17" d="M2339.08,867.24a6.44,6.44,0,0,1-1,0s-4.09-2.18-2.95-7.87c0,0,.93-.21,2.43-.52A12.19,12.19,0,0,0,2339.08,867.24Z"/><path class="cls-17" d="M2360.88,865.37h-.05a3.51,3.51,0,0,1-2.23-2.89,7.05,7.05,0,0,1,1-3.84,12.71,12.71,0,0,1,1.44.68C2364.76,861.44,2364.5,863.77,2360.88,865.37Z"/><path class="cls-17" d="M2398.57,626.09l-3.16-.56c-8.65-12.07-1.24-16-1.24-16l4.4.41C2397.48,611.44,2395.51,615.79,2398.57,626.09Z"/><path class="cls-17" d="M2436.77,626.35c-2.54-1.5-5.54-3.72-5.18-5.79a3.12,3.12,0,0,1,1.82-2.28h.05C2440.71,621.59,2442.26,624.54,2436.77,626.35Z"/><path class="cls-57" d="M2533.48,686.72c0-1.81-6.89-13.67-19.11-21.75,1.82.68,26.3,10.15,36.24,22.89,0,0-44.16,17.08-53.53,20.91C2517.84,698.73,2533.48,688.32,2533.48,686.72Z"/><path class="cls-58" d="M2453,744.59l24.86-5.38S2470,748.53,2453,744.59Z"/><path class="cls-58" d="M2463.5,777.47l24.85-3S2478.21,784.53,2463.5,777.47Z"/><path class="cls-58" d="M2472,811.6l25.08-2.61S2485.73,816.51,2472,811.6Z"/><path class="cls-59" d="M2322.1,811.77s57.39,2.47,98.08-9C2420.18,802.78,2364,802,2322.1,811.77Z"/><path class="cls-60" d="M2119.06,763.65s1.19,9.06-2,13.2-57.72,15.48-73.09,16.46c-1.4.1-3.21.26-5.34.47h-.1c-20.91,2-71.39,9-71.39,9s37.17,16.42,46.64,17c0,0,1.25-.47,3.68-1.19A184.72,184.72,0,0,1,2048.6,813c22.58-2.28,34.64,1.5,36.29,2.79s0,11.13-1,14.08-48.71,17.65-60.16,19.62a4,4,0,0,1-.82.11c-12.69,1-57.16-17.09-69.17-17.09-12.27,0-108.4,1.92-121.66-2S1803,806,1803,806s-31.42,35.41-69.37,93.29c-32.41,49.39-69.53,115.19-96,189.27,0,0-94.17-70.61-107.27-109.85,0,0,85.16-85.78,166.39-169,9.21-9.37,18.32-18.74,27.28-28,14.55-15,28.68-29.51,41.72-43.08,0,0,6.84-99.6,16.42-111.61l.46-.52c1.45-1.4,4.25-2.69,7.92-3.88,21-6.84,72.74-11.08,93.6-17.71,24.49-7.87,68.18-32.87,70.62-32.87s10.56,14.24,10,23.81-18.22,36.19-40.8,41.73c-12.89,3.21-28.62,1.81-42,1l-1.76-.15c-1,0-2.38-.1-4.09-.21-7.61-.31-14-.15-18.17,1.66-9.06,3.93-12.64,22.16-13.83,31V671c-.41,2.85-.57,4.71-.57,4.71s70,2.33,106.29,1.86a533.42,533.42,0,0,0,56.53-3.67c1.5-.21,2.85-.42,4-.52,1.5-.15,2.64-.36,3.46-.52h.06a2,2,0,0,0,.62-.1c.36,0,.57-.1.57-.1,2-.47,26.5-20.61,50-23s51.51,5.23,52,9.47-3.46,17-5.9,20.92-60.31,10.82-88.78,20.14c-5.08,1.65-10.46,3.21-15.9,4.65-25.1,6.73-51.3,11-51.3,11s33.76,6.84,58.6,10.25c7.25,1,13.78,1.71,18.43,1.87,20.61.62,30.08-1.66,52.65-.37s47.37,9.17,48.72,13.1-1.81,16.36-6.11,19.78A13.74,13.74,0,0,1,2119.06,763.65Z"/><path class="cls-61" d="M1918.94,590s-8.83,4.94-8.59,9.6,27.88,7.11,48.64-8.34Z"/><path class="cls-62" d="M2115.85,659.07s-20.84-2.86-36.78,6-5.37,18.31,2.94,19.38,22.63-1.94,22.63-1.94Z"/><path class="cls-63" d="M2122.47,738.57S2090.35,737,2082,748.2s17.41,14.55,17.41,14.55Z"/><path class="cls-64" d="M2096.06,766.34s-16,2.6-15.71,11.75,25.07,1.62,25.07,1.62Z"/><path class="cls-65" d="M2078.25,817.55S2049.35,830,2050.54,836s19.62,0,19.62,0Z"/><path class="cls-66" d="M1718.34,784.15S1718,865,1730.6,875s25.55-8.59,25.55-8.59-82.93,133.85-112.35,221.16c0,0-71-30.39-113.46-108.87C1530.34,978.69,1695,804.7,1718.34,784.15Z"/><path class="cls-55" d="M1959,591.25a26.62,26.62,0,0,1-3.26,2.39c-11.23,6.88-30,8.28-38.1,6.21h-.05c-2.85-.73-4.35-1.87-3.73-3.37.72-1.71,2.43-3.57,4.92-5.54l0-.05c8.23-6.52,23.86-13.67,31.53-16.93,2.69-1.19,4.4-1.86,4.4-1.86C1961.27,579.45,1959,591.25,1959,591.25Z"/><path class="cls-55" d="M2111.19,680s-1.45.41-3.72.93c-5.65,1.29-16.52,3.21-24.18,1a12.42,12.42,0,0,1-6.16-3.62c-2.69-3.11-1.66-8,4.55-12.17,5.54-3.67,15.33-6.68,30.19-7,1.29,0,2.64,0,4,0C2115.85,659.07,2118.8,668,2111.19,680Z"/><path class="cls-55" d="M2123.31,762.82l-2.18.15h-.05a25.13,25.13,0,0,1-2.95.16c-2.28.1-4.71.1-7.14,0h-.06c-7.09-.15-14.34-1.09-19.2-3.26-.05,0-.05,0-.05,0-4.25-2-6.63-4.87-5.44-9.11.67-2.43,3-4.51,6.11-6.21,9.63-5.28,27.75-7.15,35.15-5.39h.1c1.66.42,2.75,1,3.06,1.76C2137.18,757.33,2123.31,762.82,2123.31,762.82Z"/><path class="cls-55" d="M2117.09,776.85a6,6,0,0,1-1.39.62c-4.56,1.6-17.14,3.67-25.58,3.42-4.66-.11-8.07-.88-8.12-2.9a7.81,7.81,0,0,1,2.84-5.9c5.59-5.23,18.12-8,26.09-8.91h.06c4-.52,6.88-.57,7.09-.21,0,.06.05.11.05.16a11,11,0,0,1,.67,2.69C2119.42,769.39,2119.68,775.19,2117.09,776.85Z"/><path class="cls-55" d="M2083.91,829.91a12.38,12.38,0,0,1-1.35.73c-3,1.65-10.92,5.59-18.53,6.52-3.83.57-7.66.31-10.72-1.4a.45.45,0,0,1-.25-.46c0-2.8,14.28-14.19,26.5-18.18a28,28,0,0,1,5.33-1.29S2088.47,821.16,2083.91,829.91Z"/><path class="cls-67" d="M2006.36,673.88C1967.9,679.73,1827.71,695.7,1786,733c-22.65,20.25-47.37,42.38-62,48.8,14.55-15,28.68-29.51,41.72-43.08,0,0,6.84-99.6,16.42-111.61l.46-.52s16.15,12.22,47.06,10.3a520.58,520.58,0,0,0,58.86-7.4l35.46,8.18c-22.57,5.59-53.94-2.9-66,2.33s-14.4,35.72-14.4,35.72,70,2.33,106.29,1.86A533.42,533.42,0,0,0,2006.36,673.88Z"/><path class="cls-25" d="M1843.54,675.69,1832.12,673s6.22-14.77,17-22.1C1849.13,650.87,1843.52,668,1843.54,675.69Z"/><path class="cls-68" d="M2013.81,831.26c.73,6.68,4.92,13.3,9.12,18.38-12.69,1-57.16-17.09-69.17-17.09-12.27,0-108.4,1.92-121.66-2S1803,806,1803,806s-31.42,35.41-69.37,93.29l-45.71,2.9V855.33l8.8-45.61c9.21-9.37,18.32-18.74,27.28-28,14.55-15,28.68-29.51,41.72-43.08,0,0,6.84-99.6,16.42-111.61l.46-.52c1.45-1.4,4.25-2.69,7.92-3.88,14,10.61,67.61,14.6,85.58,15.63-7.61-.31-14-.15-18.17,1.66-9.06,3.93-12.64,22.16-13.83,31V671c-.41,2.85-.57,4.71-.57,4.71s70,2.33,106.29,1.86a533.42,533.42,0,0,0,56.53-3.67c1.5-.21,2.85-.42,4-.52,1.5-.15,2.64-.36,3.46-.52h.06a2,2,0,0,0,.62-.1c.36,0,.57-.1.57-.1s-10.62,20.91-8.7,31.52l.15.62c-25.1,6.73-51.3,11-51.3,11s33.76,6.84,58.6,10.25c0,0-8.69,9.37-10.66,17.86s3.21,18.85,3.21,18.85-2.59,13.87,7.45,21.38c9.53,7.19,23.4,9.42,24.75,9.63-20.91,2-71.39,9-71.39,9s37.17,16.42,46.64,17c0,0,1.25-.47,3.68-1.19C2015,823.08,2013.4,827.53,2013.81,831.26Z"/><path class="cls-69" d="M1955.21,715.81l-20.62,2s66.58,12.34,97.65,10.08C2032.24,727.93,1983.42,722,1955.21,715.81Z"/><path class="cls-25" d="M2100.62,762.3s-48.77-1.19-71.33.92c0,0,64.64,3.16,89.95,2.64l-.18-2.21S2102.07,763,2100.62,762.3Z"/><path class="cls-25" d="M1936.55,760.6s44.67,3.09,62.66,3.34c0,0-48.07,3-54.28,2S1936.55,760.6,1936.55,760.6Z"/><path class="cls-25" d="M1967.17,802.78l-17,3.23s44.91,13.84,63.65,13.81C2013.81,819.82,1983.42,811.3,1967.17,802.78Z"/><path class="cls-70" d="M1882,638.67l-1.76-.15c1.19.05,1.86.1,1.86.1S1882,638.62,1882,638.67Z"/><path class="cls-58" d="M1931.2,708a108.82,108.82,0,0,1-24.52,2.94S1919.43,722.67,1931.2,708Z"/><path class="cls-58" d="M1936.55,746.06a108.41,108.41,0,0,1-24.67-1.07S1922.56,758.68,1936.55,746.06Z"/><path class="cls-58" d="M1943.54,782a109.19,109.19,0,0,1-24.68-1.07S1929.54,794.63,1943.54,782Z"/><path class="cls-17" d="M1917.63,599.85h-.05c-2.85-.73-4.35-1.87-3.73-3.37.72-1.71,2.43-3.57,4.92-5.54l0-.05c2.33-.31,5.07-.41,6.31.83C1926.79,593.33,1921,597.57,1917.63,599.85Z"/><path class="cls-17" d="M1959,591.25a26.62,26.62,0,0,1-3.26,2.39,12.48,12.48,0,0,1-.16-2.08,31.26,31.26,0,0,0-5.22-17.6c2.69-1.19,4.4-1.86,4.4-1.86C1961.27,579.45,1959,591.25,1959,591.25Z"/><path class="cls-17" d="M2088.62,674.29c.52,2.85-2.07,5.49-5.33,7.61a12.42,12.42,0,0,1-6.16-3.62c-2.69-3.11-1.66-8,4.55-12.17C2084.22,667.41,2087.79,669.94,2088.62,674.29Z"/><path class="cls-17" d="M2111.19,680s-1.45.41-3.72.93a47.37,47.37,0,0,0,4.4-21.8c1.29,0,2.64,0,4,0C2115.85,659.07,2118.8,668,2111.19,680Z"/><path class="cls-17" d="M2096.08,753.09c.41,3.36-1.66,5.48-4.35,6.83-.05,0-.05,0-.05,0-4.25-2-6.63-4.87-5.44-9.11.67-2.43,3-4.51,6.11-6.21A14.43,14.43,0,0,1,2096.08,753.09Z"/><path class="cls-17" d="M2123.31,762.82l-2.18.15c9.58-10.71,6.37-23.76,6.37-23.76h.1c1.66.42,2.75,1,3.06,1.76C2137.18,757.33,2123.31,762.82,2123.31,762.82Z"/><path class="cls-17" d="M2090.12,780.89c-4.66-.11-8.07-.88-8.12-2.9a7.81,7.81,0,0,1,2.84-5.9l2.18-.26a7.84,7.84,0,0,1,4.45,5.23A4.87,4.87,0,0,1,2090.12,780.89Z"/><path class="cls-17" d="M2117.09,776.85a6,6,0,0,1-1.39.62c1.39-6.11-.93-12.37-.93-12.37l4,.72C2119.42,769.39,2119.68,775.19,2117.09,776.85Z"/><path class="cls-17" d="M2064,837.16c-3.83.57-7.66.31-10.72-1.4a.45.45,0,0,1-.25-.46l3.57-3.16s5.38-1,7.25,2A3.6,3.6,0,0,1,2064,837.16Z"/><path class="cls-17" d="M2083.91,829.91a12.38,12.38,0,0,1-1.35.73c1.87-9.27-4-12.79-4-12.79l1-.73a28,28,0,0,1,5.33-1.29S2088.47,821.16,2083.91,829.91Z"/><path class="cls-25" d="M1718.35,787.58s7.19,71.43,19.28,78.63,24-7.45,24-7.45l-8.91,11.7s-2.29,11.44-19.62,8.83-14.71-91.71-14.71-91.71Z"/><path class="cls-71" d="M1691.1,815.48s-6.43,73.62,4,94.54,30,8.89,30,8.89l-11.1,19.77s-18.31-2.34-26.15-31.11S1691.1,815.48,1691.1,815.48Z"/><path class="cls-72" d="M1563.15,1025.6S1688.28,925.18,1747.94,878c0,0-78.64,133-104.14,209.52C1643.8,1087.56,1588.45,1059.56,1563.15,1025.6Z"/><path class="cls-73" d="M1965.44,762.43s34.1,2,63.85.79,63.59-.25,63.59-.25-69.56,6.13-86.52,6.13S1965.44,762.43,1965.44,762.43Z"/><g class="cls-74"><path class="cls-75" d="M2688.4,797.92a5.78,5.78,0,0,0-1.89-5.27,6.09,6.09,0,0,0-4,4c-.46,1.89.7,4.18,2.62,4.48s3.79-2.14,2.68-3.74Z"/><path class="cls-75" d="M2709.4,817.64a3,3,0,0,0,.82-2.48,3,3,0,0,0-1.19.23,1.05,1.05,0,0,0-.62,1c.05.55.64.86,1.16,1.07l-.42.18Z"/><path class="cls-75" d="M2712.19,819.9a1.39,1.39,0,0,1,.41.7,2.23,2.23,0,0,1-1.73-1.07c-.25-.3-.5-.72-.31-1.06s.43-.33.65-.5c.42-.35.61-1.11,1.16-1.07a.68.68,0,0,1,.54.66,2,2,0,0,1-.23.89l-.83,1.86Z"/><path class="cls-75" d="M2679.23,788c0-.57-1-.64-1.28-.17a2.12,2.12,0,0,0,0,1.66,2,2,0,0,0,1.68-1.45Z"/><path class="cls-75" d="M2695.7,844.46a2,2,0,0,0-.33-.76.69.69,0,0,0-.73-.27c-.44.14-.48.75-.8,1.08s-.91.38-1.1.8.21.9.66,1a1.94,1.94,0,0,0,1.28-.37,2.25,2.25,0,0,0,.89-.81.86.86,0,0,0-.18-1.1Z"/><path class="cls-75" d="M2663.51,800.88a.52.52,0,0,1-.6.4.93.93,0,0,1-.62-.46.88.88,0,0,1-.17-.44.67.67,0,0,1,.69-.67.71.71,0,0,1,.65.73.79.79,0,0,1-.71.71Z"/><path class="cls-75" d="M2700.92,818.26a.8.8,0,0,0,1.08-.83,1.44,1.44,0,0,0-.86-.14.7.7,0,0,0-.55.62.45.45,0,0,0,.62.4Z"/><path class="cls-75" d="M2713,822.58a2.27,2.27,0,0,0,1.19-1.58l-1.67-.17a1.57,1.57,0,0,0-.78.06.9.9,0,0,0-.26,1.32,1.24,1.24,0,0,0,1.4.34Z"/><path class="cls-75" d="M2671.17,802.39l-.56-.09a.68.68,0,0,0,0,.86.59.59,0,0,0,.83,0,.49.49,0,0,0-.25-.75Z"/><path class="cls-75" d="M2705,818.92c-.25.27,0,.73.38.85a10,10,0,0,0,1.1.12,1.36,1.36,0,0,1,.88.67.64.64,0,0,1,0,.64.78.78,0,0,1-.36.25,4,4,0,0,1-2.11.44,1.87,1.87,0,0,1-1.61-1.29,1.43,1.43,0,0,1,1.83-1.71Z"/><path class="cls-75" d="M2713.37,813.69a.91.91,0,0,0,.23-1.22,1.25,1.25,0,0,0-1.2-.52c-.21,0-.44.12-.46.33s.1.25.2.35l1.18,1.22Z"/><path class="cls-75" d="M2696.3,800.28a1.51,1.51,0,0,1-2.38.17,3.73,3.73,0,0,1,1.62-1.41,1.29,1.29,0,0,1,1.72.83c-.22.36-.45.71-.68,1.07Z"/><path class="cls-75" d="M2699.92,813.16l.09-.59a1.3,1.3,0,0,0-.89,0c-.28.14-.38.6-.1.73a.64.64,0,0,0,.34,0l1.09-.11Z"/><path class="cls-75" d="M2691.15,807.29a3.58,3.58,0,0,0-.31-1.41,1.23,1.23,0,0,0-1.17-.71,1.19,1.19,0,0,0-.62.34,1.34,1.34,0,1,0,2,1.74Z"/><path class="cls-75" d="M2690.6,802.2l-.61-.78a1.67,1.67,0,0,0-.6.45.94.94,0,0,0,1.16.59Z"/><path class="cls-75" d="M2669.4,790.41a12.37,12.37,0,0,0-5.17-2.32,2,2,0,0,0-.91,0,1.75,1.75,0,0,0-1.16,1.24,3.67,3.67,0,0,0,1.26,3.9,4.53,4.53,0,0,0,4.14.64,3.06,3.06,0,0,0,1.85-1.42,1.72,1.72,0,0,0-.44-2.15.37.37,0,0,0-.13.61Z"/><path class="cls-75" d="M2697.26,843.25a.53.53,0,0,1-.6.41.94.94,0,0,1-.62-.47.89.89,0,0,1-.17-.43.67.67,0,0,1,.69-.68.72.72,0,0,1,.65.74.79.79,0,0,1-.71.7Z"/><path class="cls-75" d="M2704.58,804.85c-.46-.17-.92.23-1.24.61s-.69.83-1.18.77a.47.47,0,0,1-.34-.2c-.16-.3.23-.59.44-.87a3.34,3.34,0,0,0,.3-.76,1.66,1.66,0,0,1,1.57-1,.92.92,0,0,1,.44.89.93.93,0,0,1-.64.77Z"/><path class="cls-75" d="M2692.43,804c-.46-.17-.93.23-1.24.61s-.69.83-1.18.77a.47.47,0,0,1-.34-.2c-.16-.3.23-.59.43-.87a3,3,0,0,0,.31-.76,1.66,1.66,0,0,1,1.57-1,.92.92,0,0,1,.44.89.93.93,0,0,1-.64.77Z"/><path class="cls-75" d="M2687,796.73a2.41,2.41,0,0,0-.81-.87.38.38,0,0,0-.17-.08.4.4,0,0,0-.33.14.77.77,0,0,0-.07.86,1,1,0,0,0,.75.47.66.66,0,0,0,.47-.13.36.36,0,0,0,.09-.45.08.08,0,0,0-.07.11Z"/><path class="cls-75" d="M2736.67,859.78a1.43,1.43,0,0,1,.41.7,2.25,2.25,0,0,1-1.73-1.06c-.25-.31-.5-.73-.31-1.07s.43-.32.64-.5c.43-.35.62-1.11,1.17-1.06a.67.67,0,0,1,.54.65,1.88,1.88,0,0,1-.24.89c-.27.62-.54,1.24-.82,1.86Z"/><path class="cls-75" d="M2700,806.78c0,.37.46.57.81.45a8.55,8.55,0,0,0,1-.56,1.32,1.32,0,0,1,1.1,0,.67.67,0,0,1,.41.49.73.73,0,0,1-.14.42,4,4,0,0,1-1.43,1.62,1.86,1.86,0,0,1-2.06-.07,1.46,1.46,0,0,1-.5-1.36,1.45,1.45,0,0,1,.94-1.1Z"/><path class="cls-75" d="M2703.49,803.52c0,.37.46.58.81.46s.62-.41.95-.56a1.31,1.31,0,0,1,1.11,0,.61.61,0,0,1,.4.49.79.79,0,0,1-.13.41,4,4,0,0,1-1.44,1.62,1.86,1.86,0,0,1-2.05-.06,1.43,1.43,0,0,1,.44-2.47Z"/><path class="cls-75" d="M2707.27,809.87c0,.37.46.58.81.46s.62-.41,1-.56a1.28,1.28,0,0,1,1.1,0,.62.62,0,0,1,.41.49.8.8,0,0,1-.13.42,4,4,0,0,1-1.44,1.61,1.88,1.88,0,0,1-2.06-.06,1.44,1.44,0,0,1,.45-2.47Z"/><path class="cls-75" d="M2654.27,800.63c0,.36.46.57.81.45a10.41,10.41,0,0,0,1-.56,1.32,1.32,0,0,1,1.1,0,.65.65,0,0,1,.41.49.8.8,0,0,1-.13.42,4,4,0,0,1-1.44,1.62,1.9,1.9,0,0,1-2.06-.07,1.43,1.43,0,0,1,.45-2.46Z"/><path class="cls-75" d="M2698.9,849.67a.9.9,0,0,0-.53-1.12,1.29,1.29,0,0,0-1.28.31c-.15.14-.28.36-.17.53a.5.5,0,0,0,.37.17l1.68.27Z"/><path class="cls-75" d="M2682,822.77a3.57,3.57,0,0,0-.3-1.41,1.24,1.24,0,0,0-1.17-.71,1.12,1.12,0,0,0-.62.34,1.34,1.34,0,1,0,2,1.74Z"/><path class="cls-75" d="M2665.31,810.8a1.86,1.86,0,0,0-.33-.76.69.69,0,0,0-.73-.28c-.44.15-.48.76-.8,1.09s-.91.38-1.1.8.21.9.66,1a2,2,0,0,0,1.28-.37,2.25,2.25,0,0,0,.89-.81.87.87,0,0,0-.17-1.1Z"/><path class="cls-75" d="M2705.72,815.52a5.79,5.79,0,0,0,1.64-5.35,6.09,6.09,0,0,0-5.55.81c-1.5,1.24-1.94,3.77-.58,5.16s4.32.55,4.39-1.39Z"/><path class="cls-75" d="M2716,820.19c-.49,0-.8.53-1,1s-.39,1-.87,1.12a.43.43,0,0,1-.38-.08c-.25-.23,0-.63.12-1a3.28,3.28,0,0,0,0-.83,1.65,1.65,0,0,1,1.15-1.45.93.93,0,0,1,.72.69,1,1,0,0,1-.35.94Z"/><path class="cls-75" d="M2700.36,819.85l-.39-.41a.69.69,0,0,0-.48.71.59.59,0,0,0,.68.48.5.5,0,0,0,.26-.75Z"/><path class="cls-75" d="M2710.46,823.71a.38.38,0,0,1-.29.48.83.83,0,0,1-.61-.11,1,1,0,0,1-.42-.3.76.76,0,0,1,.07-.94,1,1,0,0,1,.94-.25.61.61,0,0,1,.4.28.33.33,0,0,1-.1.44Z"/><path class="cls-75" d="M2656.87,798.06a5.78,5.78,0,0,0-1.89-5.27,6.06,6.06,0,0,0-4,4c-.46,1.89.7,4.18,2.62,4.48s3.79-2.14,2.68-3.74Z"/><path class="cls-75" d="M2715,824.27a13.58,13.58,0,0,0-3.89-4.75,2.57,2.57,0,0,0-.87-.48,1.91,1.91,0,0,0-1.73.65,4,4,0,0,0-.66,4.39,4.91,4.91,0,0,0,3.71,2.63,3.31,3.31,0,0,0,2.48-.49,1.88,1.88,0,0,0,.61-2.3.4.4,0,0,0-.42.53Z"/><path class="cls-75" d="M2696.79,817.5a5.78,5.78,0,0,0-1.9-5.26,6,6,0,0,0-3.95,4c-.46,1.9.7,4.19,2.62,4.48s3.79-2.14,2.68-3.74Z"/><path class="cls-75" d="M2686.75,800.86a3,3,0,0,0-.83-2.48,3,3,0,0,0-.81.9,1,1,0,0,0,.08,1.14c.37.42,1,.31,1.57.17-.08.13-.16.26-.23.4Z"/><path class="cls-75" d="M2680.69,798.4a1.16,1.16,0,0,0-.38-.64,1.26,1.26,0,0,0-.72-.13,11.16,11.16,0,0,1-2-.15l2.17,2.55a.59.59,0,0,1,.14.22c.09.3-.23.55-.32.85s.3.83.7,1C2683.14,803.62,2681.12,799.71,2680.69,798.4Z"/><path class="cls-75" d="M2715,818.21l-.6-.78a1.57,1.57,0,0,0-.51,1.76.94.94,0,0,0,1.58.18c.19-.36.35-1,.7-.79Z"/><path class="cls-75" d="M2687.59,811.84a1.35,1.35,0,0,1,.41.7,2.28,2.28,0,0,1-1.73-1.07c-.25-.3-.5-.72-.31-1.06s.43-.33.65-.5c.42-.35.61-1.11,1.16-1.07a.68.68,0,0,1,.54.66,2,2,0,0,1-.23.89l-.83,1.86Z"/><path class="cls-75" d="M2680.19,819.58c0-.57-1-.64-1.28-.16a2.05,2.05,0,0,0,0,1.65,2,2,0,0,0,1.68-1.45Z"/><path class="cls-75" d="M2677,807.84a.53.53,0,0,1-.6.41.94.94,0,0,1-.62-.47.89.89,0,0,1-.17-.43.68.68,0,0,1,.69-.68.72.72,0,0,1,.65.74.79.79,0,0,1-.71.7Z"/><path class="cls-75" d="M2680.33,806.44a.8.8,0,0,0,.36-1.32,1.48,1.48,0,0,0-.77.41.68.68,0,0,0-.06.82.45.45,0,0,0,.73-.05Z"/><path class="cls-75" d="M2692.55,802.69a2.29,2.29,0,0,0,0-2l-1.44.87a1.4,1.4,0,0,0-.59.51.9.9,0,0,0,.58,1.22,1.27,1.27,0,0,0,1.33-.57Z"/><path class="cls-75" d="M2674.49,815.42a1.06,1.06,0,0,1-.74.84,1,1,0,0,1-1.06-.35c-.17-.22-.22-.59,0-.72a.62.62,0,0,1,.33,0l1.5.08-.06.26Z"/><path class="cls-75" d="M2667.07,817.81c-.46-.17-.92.23-1.23.61s-.7.82-1.19.77a.43.43,0,0,1-.33-.2c-.17-.31.23-.59.43-.87a3.42,3.42,0,0,0,.3-.77,1.66,1.66,0,0,1,1.57-1,.93.93,0,0,1,.45.89,1,1,0,0,1-.64.77Z"/><path class="cls-75" d="M2665.66,813.09l-.24-.52a.7.7,0,0,0-.69.52.58.58,0,0,0,.48.67.49.49,0,0,0,.49-.62Z"/><path class="cls-75" d="M2684,804.52c0,.37.46.58.81.46s.62-.41.95-.56a1.31,1.31,0,0,1,1.11,0,.62.62,0,0,1,.4.49.8.8,0,0,1-.13.42,3.94,3.94,0,0,1-1.44,1.61,1.86,1.86,0,0,1-2.05-.06,1.43,1.43,0,0,1,.44-2.47Z"/><path class="cls-75" d="M2687.56,795.32a.9.9,0,0,0-.54-1.12,1.3,1.3,0,0,0-1.28.31c-.15.13-.28.36-.17.53a.5.5,0,0,0,.37.17l1.68.27Z"/><path class="cls-75" d="M2688.12,820.79a1.51,1.51,0,0,1-2.38.17,3.67,3.67,0,0,1,1.62-1.41,1.29,1.29,0,0,1,1.72.83c-.23.36-.46.71-.68,1.07Z"/><path class="cls-75" d="M2676.47,803c-.09-.17-.18-.35-.28-.52a1.23,1.23,0,0,0-.73.5c-.14.27.05.7.35.64a.55.55,0,0,0,.29-.18l.81-.74Z"/><path class="cls-75" d="M2691.56,833.77,2691,833a1.76,1.76,0,0,0-.61.44.93.93,0,0,0,1.16.59Z"/><path class="cls-75" d="M2691.41,825.6l-.61-.78a1.9,1.9,0,0,0-.61.44.94.94,0,0,0,1.16.6Z"/><path class="cls-75" d="M2656.81,785.48c.15-.34-.27-.68-.64-.68a10.58,10.58,0,0,0-1.08.26,1.36,1.36,0,0,1-1.06-.33.66.66,0,0,1-.24-.59.84.84,0,0,1,.25-.36,4,4,0,0,1,1.85-1.12,1.86,1.86,0,0,1,2,.66,1.44,1.44,0,0,1-1.15,2.23Z"/><path class="cls-75" d="M2698.53,811.13a11,11,0,0,0,4.19,2.73,2,2,0,0,0,.8.16,1.59,1.59,0,0,0,1.18-.93,3.23,3.23,0,0,0-.57-3.57,4,4,0,0,0-3.52-1.13,2.72,2.72,0,0,0-1.81,1,1.52,1.52,0,0,0,.09,1.93.32.32,0,0,0,.2-.51Z"/><path class="cls-75" d="M2709.55,805.89a1.19,1.19,0,0,0,.37-.65,1.16,1.16,0,0,0-.25-.68,11.2,11.2,0,0,1-.86-1.82c-.38,1-.76,2.1-1.13,3.16a.65.65,0,0,1-.13.23c-.21.23-.59.07-.89.14s-.57.67-.55,1.13C2706.24,810.62,2708.63,806.92,2709.55,805.89Z"/><path class="cls-75" d="M2698.73,810.77l-.2-.54a.69.69,0,0,0-.72.47.58.58,0,0,0,.43.7.49.49,0,0,0,.53-.58Z"/><path class="cls-75" d="M2704.63,803.87a.89.89,0,0,0,.7-1,1.27,1.27,0,0,0-.9-1c-.19-.06-.45-.06-.55.12a.54.54,0,0,0,0,.41c.2.53.4,1.06.61,1.59Z"/><path class="cls-75" d="M2699.69,807.47a3,3,0,0,0,1.74-2,2.84,2.84,0,0,0-1.18-.25,1,1,0,0,0-.95.63c-.18.53.25,1.05.64,1.45h-.46Z"/><path class="cls-75" d="M2695.62,807.94a1.35,1.35,0,0,1-.41.71,2.33,2.33,0,0,1,.07-2c.14-.37.38-.79.77-.79s.5.21.75.31c.52.19,1.27,0,1.51.48a.68.68,0,0,1-.3.8,1.93,1.93,0,0,1-.89.23l-2,.21Z"/><path class="cls-75" d="M2706,807.7a2.29,2.29,0,0,0,1.72-1l-1.47-.82a1.42,1.42,0,0,0-.73-.25.9.9,0,0,0-.77,1.11,1.29,1.29,0,0,0,1.16.87Z"/><path class="cls-75" d="M2700.17,801.18c-.34.14-.27.68,0,.93s.66.33,1,.55a1.33,1.33,0,0,1,.55,1,.65.65,0,0,1-.23.6.78.78,0,0,1-.43.09,4.06,4.06,0,0,1-2.12-.44,1.88,1.88,0,0,1-1-1.82,1.45,1.45,0,0,1,.93-1.11,1.48,1.48,0,0,1,1.43.27Z"/><path class="cls-75" d="M2702.54,825a3.73,3.73,0,0,0,1.08-1,1.22,1.22,0,0,0,0-1.37,1.11,1.11,0,0,0-.6-.37,1.34,1.34,0,1,0-.49,2.64Z"/><path class="cls-75" d="M2712.24,820.15a2.94,2.94,0,0,0,1.74-2,3.24,3.24,0,0,0-1.18-.25,1.05,1.05,0,0,0-1,.63c-.17.53.25,1,.64,1.45H2712Z"/><path class="cls-75" d="M2694,807.4c-.45-.2-.94.16-1.28.52s-.75.77-1.23.68a.4.4,0,0,1-.32-.22c-.14-.31.27-.57.49-.83a3.45,3.45,0,0,0,.36-.75,1.65,1.65,0,0,1,1.63-.88.91.91,0,0,1-.31,1.64Z"/><path class="cls-75" d="M2705.31,812.27c.11-.17.22-.33.32-.5a1.22,1.22,0,0,0-.8-.39c-.3,0-.58.4-.38.63a.55.55,0,0,0,.3.16l1.05.33Z"/><path class="cls-75" d="M2775.77,869.22a3,3,0,0,0,.82-2.49,3.16,3.16,0,0,0-1.19.24,1.07,1.07,0,0,0-.63,1c.06.56.65.87,1.16,1.08l-.42.18Z"/><path class="cls-75" d="M2778.55,871.48a1.29,1.29,0,0,1,.41.7,2.29,2.29,0,0,1-1.73-1.07c-.25-.31-.5-.72-.3-1.06s.43-.33.64-.5c.42-.35.62-1.11,1.16-1.07a.69.69,0,0,1,.55.66,1.88,1.88,0,0,1-.24.89l-.82,1.86Z"/><path class="cls-75" d="M2762.06,896a2,2,0,0,0-.32-.76.71.71,0,0,0-.74-.28c-.43.15-.47.76-.79,1.09s-.92.38-1.11.8.22.9.67,1a2,2,0,0,0,1.28-.37,2.25,2.25,0,0,0,.89-.81.88.88,0,0,0-.18-1.1Z"/><path class="cls-75" d="M2767.28,869.84a.79.79,0,0,0,1.08-.84,1.36,1.36,0,0,0-.86-.13.67.67,0,0,0-.54.62.45.45,0,0,0,.62.4Z"/><path class="cls-75" d="M2779.31,874.16a2.26,2.26,0,0,0,1.19-1.58l-1.67-.17a1.47,1.47,0,0,0-.78.06.9.9,0,0,0-.26,1.32,1.26,1.26,0,0,0,1.41.34Z"/><path class="cls-75" d="M2771.36,870.5c-.26.27,0,.73.38.85a10,10,0,0,0,1.1.12,1.33,1.33,0,0,1,.88.67.66.66,0,0,1,0,.64.78.78,0,0,1-.36.25,4,4,0,0,1-2.12.44,1.9,1.9,0,0,1-1.61-1.29,1.44,1.44,0,0,1,1.84-1.71Z"/><path class="cls-75" d="M2779.73,865.26a.88.88,0,0,0,.24-1.21,1.28,1.28,0,0,0-1.21-.52c-.2,0-.44.12-.45.32a.5.5,0,0,0,.19.36l1.19,1.22Z"/><path class="cls-75" d="M2766.28,864.73c0-.19.06-.39.1-.58a1.28,1.28,0,0,0-.9,0c-.27.14-.37.6-.1.73a.66.66,0,0,0,.34,0l1.1-.11Z"/><path class="cls-75" d="M2757.51,858.87a3.57,3.57,0,0,0-.3-1.41,1.22,1.22,0,0,0-1.17-.71,1,1,0,0,0-.62.34,1.34,1.34,0,1,0,2,1.74Z"/><path class="cls-75" d="M2763.62,894.83a.51.51,0,0,1-.59.4.92.92,0,0,1-.63-.46.87.87,0,0,1-.16-.43.66.66,0,0,1,.68-.68.71.71,0,0,1,.65.73.78.78,0,0,1-.71.71Z"/><path class="cls-75" d="M2735.94,850.68c-.47-.16-.93.23-1.24.62s-.7.82-1.18.76a.4.4,0,0,1-.34-.19c-.16-.31.23-.59.43-.87a4.27,4.27,0,0,0,.31-.77,1.65,1.65,0,0,1,1.56-1,.94.94,0,0,1,.45.9.92.92,0,0,1-.64.76Z"/><path class="cls-75" d="M2731.32,852.61c-.05.37.46.57.81.46s.61-.41.95-.56a1.31,1.31,0,0,1,1.11,0,.61.61,0,0,1,.4.48.8.8,0,0,1-.13.42A4,4,0,0,1,2733,855,1.86,1.86,0,0,1,2731,855a1.43,1.43,0,0,1,.44-2.47Z"/><path class="cls-75" d="M2734.84,849.36c0,.36.46.57.81.45a9.23,9.23,0,0,0,1-.56,1.34,1.34,0,0,1,1.11,0,.62.62,0,0,1,.4.49.8.8,0,0,1-.13.42,3.94,3.94,0,0,1-1.44,1.61,1.88,1.88,0,0,1-2.06-.06,1.46,1.46,0,0,1-.5-1.36,1.49,1.49,0,0,1,1-1.11Z"/><path class="cls-75" d="M2738.63,855.71c-.05.37.46.57.81.45a7.63,7.63,0,0,0,.95-.56,1.34,1.34,0,0,1,1.11,0,.64.64,0,0,1,.4.49.8.8,0,0,1-.13.42,4,4,0,0,1-1.43,1.62,1.86,1.86,0,0,1-2.06-.07,1.43,1.43,0,0,1,.44-2.46Z"/><path class="cls-75" d="M2765.27,901.25a.9.9,0,0,0-.54-1.12,1.3,1.3,0,0,0-1.28.31c-.15.13-.28.36-.16.53a.46.46,0,0,0,.36.17l1.69.27Z"/><path class="cls-75" d="M2748.38,874.35a3.58,3.58,0,0,0-.31-1.41,1.2,1.2,0,0,0-1.16-.71,1.06,1.06,0,0,0-.63.34,1.35,1.35,0,1,0,2,1.74Z"/><path class="cls-75" d="M2737.07,861.36a5.8,5.8,0,0,0,1.65-5.36,6.09,6.09,0,0,0-5.55.81c-1.5,1.24-1.94,3.77-.58,5.16s4.31.55,4.38-1.39Z"/><path class="cls-75" d="M2782.41,871.77c-.5,0-.8.53-1,1s-.38,1-.86,1.12a.43.43,0,0,1-.38-.08c-.26-.23,0-.63.12-1a3.82,3.82,0,0,0,0-.83,1.64,1.64,0,0,1,1.15-1.45.9.9,0,0,1,.36,1.62Z"/><path class="cls-75" d="M2766.73,871.43l-.39-.41a.68.68,0,0,0-.48.71.57.57,0,0,0,.68.47.49.49,0,0,0,.25-.74Z"/><path class="cls-75" d="M2776.82,875.29a.38.38,0,0,1-.28.48.9.9,0,0,1-.62-.11,1,1,0,0,1-.41-.3.75.75,0,0,1,.06-.94,1,1,0,0,1,.95-.25.63.63,0,0,1,.4.27.37.37,0,0,1-.1.45Z"/><path class="cls-75" d="M2781.36,875.85a13.52,13.52,0,0,0-3.9-4.75,2.26,2.26,0,0,0-.87-.48,1.92,1.92,0,0,0-1.73.65,4,4,0,0,0-.65,4.39,4.93,4.93,0,0,0,3.7,2.63,3.35,3.35,0,0,0,2.48-.49,1.87,1.87,0,0,0,.61-2.3.41.41,0,0,0-.42.53Z"/><path class="cls-75" d="M2763.15,869.08a5.77,5.77,0,0,0-1.89-5.27,6.11,6.11,0,0,0-4,4c-.46,1.89.7,4.18,2.63,4.48s3.78-2.14,2.68-3.74Z"/><path class="cls-75" d="M2781.4,869.79l-.6-.78a1.56,1.56,0,0,0-.51,1.75c.27.6,1.26.76,1.57.19.2-.36.36-1,.71-.79Z"/><path class="cls-75" d="M2754,863.42a1.37,1.37,0,0,1,.42.7,2.32,2.32,0,0,1-1.74-1.07c-.25-.31-.5-.72-.3-1.07s.43-.32.64-.49c.42-.35.62-1.12,1.16-1.07a.69.69,0,0,1,.55.66,1.92,1.92,0,0,1-.24.89c-.27.62-.55,1.24-.82,1.85Z"/><path class="cls-75" d="M2746.56,871.16c0-.57-1-.64-1.28-.17a2.08,2.08,0,0,0-.05,1.66,2,2,0,0,0,1.67-1.45Z"/><path class="cls-75" d="M2754.49,872.37a1.51,1.51,0,0,1-2.39.16,3.92,3.92,0,0,1,1.62-1.41,1.31,1.31,0,0,1,1.73.83l-.69,1.08Z"/><path class="cls-75" d="M2757.92,885.35l-.6-.79a1.93,1.93,0,0,0-.61.45.93.93,0,0,0,1.16.59Z"/><path class="cls-75" d="M2757.77,877.18l-.6-.78a1.68,1.68,0,0,0-.61.44.93.93,0,0,0,1.16.6Z"/><path class="cls-75" d="M2700.28,837.55a11,11,0,0,0,4.19,2.73,1.83,1.83,0,0,0,.79.16,1.57,1.57,0,0,0,1.19-.93,3.25,3.25,0,0,0-.57-3.57,4,4,0,0,0-3.53-1.13,2.72,2.72,0,0,0-1.8,1,1.52,1.52,0,0,0,.09,1.94.33.33,0,0,0,.2-.52Z"/><path class="cls-75" d="M2740.91,851.72a1.06,1.06,0,0,0,.36-.65,1.17,1.17,0,0,0-.24-.68,11.1,11.1,0,0,1-.86-1.81l-1.14,3.15a.63.63,0,0,1-.12.23c-.21.23-.59.07-.89.15s-.57.67-.56,1.12C2737.6,856.45,2740,852.75,2740.91,851.72Z"/><path class="cls-75" d="M2765.1,862.34c-.07-.17-.14-.35-.2-.53a.69.69,0,0,0-.72.47.56.56,0,0,0,.43.7.49.49,0,0,0,.53-.58Z"/><path class="cls-75" d="M2736,849.71a.9.9,0,0,0,.7-1,1.29,1.29,0,0,0-.9-.95c-.2-.07-.46-.07-.55.12a.52.52,0,0,0,0,.4l.6,1.59Z"/><path class="cls-75" d="M2731.05,853.3a2.94,2.94,0,0,0,1.74-2,3.24,3.24,0,0,0-1.18-.25,1,1,0,0,0-1,.64c-.17.52.25,1,.64,1.44h-.46Z"/><path class="cls-75" d="M2762,859.52a1.33,1.33,0,0,1-.4.71,2.27,2.27,0,0,1,.07-2c.14-.37.37-.79.77-.79s.49.21.75.31c.51.19,1.27,0,1.5.47a.67.67,0,0,1-.3.8,1.94,1.94,0,0,1-.89.24l-2,.21Z"/><path class="cls-75" d="M2737.38,853.53a2.28,2.28,0,0,0,1.72-1l-1.47-.82a1.52,1.52,0,0,0-.74-.25.9.9,0,0,0-.76,1.11,1.26,1.26,0,0,0,1.16.87Z"/><path class="cls-75" d="M2731.53,847c-.34.15-.27.69,0,.93a8.23,8.23,0,0,0,1,.55,1.33,1.33,0,0,1,.54,1,.64.64,0,0,1-.22.59.8.8,0,0,1-.43.09,3.87,3.87,0,0,1-2.12-.44,1.87,1.87,0,0,1-1-1.82,1.48,1.48,0,0,1,.94-1.11,1.46,1.46,0,0,1,1.42.27Z"/><path class="cls-75" d="M2768.91,876.54a3.52,3.52,0,0,0,1.07-1,1.24,1.24,0,0,0,0-1.37,1.1,1.1,0,0,0-.61-.37,1.4,1.4,0,0,0-1.64,1.06,1.41,1.41,0,0,0,1.15,1.58Z"/><path class="cls-75" d="M2778.61,871.73a3,3,0,0,0,1.74-2,2.92,2.92,0,0,0-1.19-.25,1,1,0,0,0-.95.63c-.17.53.25,1.05.64,1.45h-.46Z"/><path class="cls-75" d="M2760.35,859c-.45-.19-.94.17-1.28.53s-.75.77-1.24.68a.43.43,0,0,1-.32-.22c-.14-.31.27-.57.5-.84a3.6,3.6,0,0,0,.35-.74,1.66,1.66,0,0,1,1.64-.88.91.91,0,0,1-.31,1.64Z"/><path class="cls-75" d="M2736.67,858.1c.11-.16.21-.33.32-.5a1.29,1.29,0,0,0-.8-.39c-.31,0-.58.4-.38.63a.66.66,0,0,0,.29.17l1.05.32Z"/></g><g class="cls-74"><path class="cls-75" d="M2645.25,995.09a5.8,5.8,0,0,0-1.89-5.27,6.09,6.09,0,0,0-4,4c-.46,1.89.7,4.18,2.62,4.48s3.79-2.14,2.68-3.74Z"/><path class="cls-75" d="M2666.25,1014.82a3,3,0,0,0,.82-2.49,3.16,3.16,0,0,0-1.19.24,1,1,0,0,0-.62,1c0,.55.64.86,1.16,1.07l-.43.18Z"/><path class="cls-75" d="M2669,1017.08a1.35,1.35,0,0,1,.41.7,2.32,2.32,0,0,1-1.74-1.07c-.24-.31-.49-.73-.3-1.07s.43-.32.64-.5c.43-.35.62-1.11,1.16-1.06a.68.68,0,0,1,.55.66,2,2,0,0,1-.24.89c-.27.61-.55,1.23-.82,1.85Z"/><path class="cls-75" d="M2636.08,985.19c0-.57-1-.63-1.28-.16a2.05,2.05,0,0,0-.05,1.65,2,2,0,0,0,1.67-1.45Z"/><path class="cls-75" d="M2652.55,1041.63a2.34,2.34,0,0,0-.33-.76.7.7,0,0,0-.74-.27c-.43.15-.47.76-.79,1.09s-.91.37-1.1.79.21.91.66,1a2,2,0,0,0,1.28-.38,2.15,2.15,0,0,0,.89-.8.87.87,0,0,0-.18-1.1Z"/><path class="cls-75" d="M2620.35,998.05a.51.51,0,0,1-.59.41,1,1,0,0,1-.63-.46,1,1,0,0,1-.16-.44.68.68,0,0,1,.69-.68.71.71,0,0,1,.64.74.76.76,0,0,1-.7.7Z"/><path class="cls-75" d="M2657.76,1015.43a.8.8,0,0,0,1.09-.83,1.4,1.4,0,0,0-.87-.13.68.68,0,0,0-.54.62.45.45,0,0,0,.62.39Z"/><path class="cls-75" d="M2669.79,1019.76a2.3,2.3,0,0,0,1.2-1.58l-1.68-.17a1.44,1.44,0,0,0-.77.06.89.89,0,0,0-.26,1.32,1.26,1.26,0,0,0,1.4.34Z"/><path class="cls-75" d="M2628,999.57l-.56-.1a.69.69,0,0,0,.05.86.56.56,0,0,0,.82,0,.49.49,0,0,0-.24-.74Z"/><path class="cls-75" d="M2661.84,1016.09c-.25.27,0,.74.38.85a10,10,0,0,0,1.1.13,1.33,1.33,0,0,1,.88.67.65.65,0,0,1,0,.63.73.73,0,0,1-.36.26,3.92,3.92,0,0,1-2.12.43,1.87,1.87,0,0,1-1.61-1.28,1.49,1.49,0,0,1,.42-1.4,1.47,1.47,0,0,1,1.42-.31Z"/><path class="cls-75" d="M2670.21,1010.86a.89.89,0,0,0,.24-1.21,1.31,1.31,0,0,0-1.21-.53c-.2,0-.44.13-.45.33a.54.54,0,0,0,.19.36c.4.4.8.81,1.19,1.22Z"/><path class="cls-75" d="M2653.15,997.46a1.51,1.51,0,0,1-2.38.16,3.73,3.73,0,0,1,1.62-1.41,1.3,1.3,0,0,1,1.72.83l-.68,1.08Z"/><path class="cls-75" d="M2656.76,1010.33c0-.19.07-.39.1-.58a1.25,1.25,0,0,0-.89,0c-.28.13-.38.59-.1.73a.61.61,0,0,0,.33,0l1.1-.12Z"/><path class="cls-75" d="M2648,1004.47a3.41,3.41,0,0,0-.3-1.42,1.23,1.23,0,0,0-1.17-.7,1.05,1.05,0,0,0-.62.33,1.34,1.34,0,1,0,2,1.74Z"/><path class="cls-75" d="M2647.45,999.38l-.61-.78a1.76,1.76,0,0,0-.61.44.94.94,0,0,0,1.16.6Z"/><path class="cls-75" d="M2626.25,987.59a12.37,12.37,0,0,0-5.17-2.32,2.15,2.15,0,0,0-.91,0,1.76,1.76,0,0,0-1.16,1.25,3.65,3.65,0,0,0,1.26,3.89,4.53,4.53,0,0,0,4.14.65,3.07,3.07,0,0,0,1.85-1.43,1.72,1.72,0,0,0-.44-2.14.37.37,0,0,0-.13.61Z"/><path class="cls-75" d="M2654.1,1040.43a.51.51,0,0,1-.59.4,1.07,1.07,0,0,1-.79-.9.67.67,0,0,1,.68-.68.72.72,0,0,1,.65.74.77.77,0,0,1-.7.7Z"/><path class="cls-75" d="M2661.43,1002c-.46-.16-.93.24-1.24.62s-.69.82-1.18.76a.41.41,0,0,1-.34-.19c-.16-.31.23-.59.43-.87a4,4,0,0,0,.31-.77,1.63,1.63,0,0,1,1.56-1,.9.9,0,0,1-.19,1.65Z"/><path class="cls-75" d="M2649.28,1001.16c-.47-.16-.93.24-1.24.62s-.69.82-1.18.76a.41.41,0,0,1-.34-.19c-.16-.31.23-.59.43-.87a4,4,0,0,0,.31-.77,1.63,1.63,0,0,1,1.56-1,.9.9,0,0,1-.19,1.65Z"/><path class="cls-75" d="M2643.8,993.91a2.73,2.73,0,0,0-.81-.88.53.53,0,0,0-.17-.08.36.36,0,0,0-.33.15.77.77,0,0,0-.07.86,1,1,0,0,0,.74.46.72.72,0,0,0,.48-.12.37.37,0,0,0,.09-.46.09.09,0,0,0-.08.11Z"/><path class="cls-75" d="M2693.51,1057a1.37,1.37,0,0,1,.42.7,2.3,2.3,0,0,1-1.74-1.07c-.25-.3-.5-.72-.3-1.06s.43-.33.64-.5c.42-.35.62-1.11,1.16-1.07a.69.69,0,0,1,.55.66,1.88,1.88,0,0,1-.24.89l-.82,1.86Z"/><path class="cls-75" d="M2656.81,1004c0,.37.46.58.81.46s.62-.41,1-.56a1.31,1.31,0,0,1,1.11,0,.61.61,0,0,1,.4.49.86.86,0,0,1-.13.42,4,4,0,0,1-1.43,1.61,1.88,1.88,0,0,1-2.06-.06,1.44,1.44,0,0,1-.5-1.37,1.46,1.46,0,0,1,.94-1.1Z"/><path class="cls-75" d="M2660.33,1000.7c0,.36.46.57.82.45a10.26,10.26,0,0,0,.95-.56,1.34,1.34,0,0,1,1.11,0,.64.64,0,0,1,.4.49.8.8,0,0,1-.13.42,4,4,0,0,1-1.44,1.62,1.9,1.9,0,0,1-2.06-.07,1.46,1.46,0,0,1-.5-1.36,1.49,1.49,0,0,1,.95-1.11Z"/><path class="cls-75" d="M2664.12,1007.05c0,.37.46.57.81.45a7.63,7.63,0,0,0,1-.56,1.38,1.38,0,0,1,1.11,0,.67.67,0,0,1,.41.49.81.81,0,0,1-.14.42,4,4,0,0,1-1.43,1.62,1.86,1.86,0,0,1-2.06-.07,1.46,1.46,0,0,1-.5-1.36,1.45,1.45,0,0,1,.94-1.1Z"/><path class="cls-75" d="M2611.12,997.8c0,.37.46.57.81.46s.62-.41,1-.56a1.31,1.31,0,0,1,1.11,0,.64.64,0,0,1,.41.48.81.81,0,0,1-.14.42,4,4,0,0,1-1.43,1.62,1.88,1.88,0,0,1-2.06-.06,1.49,1.49,0,0,1-.5-1.37,1.45,1.45,0,0,1,.94-1.1Z"/><path class="cls-75" d="M2655.75,1046.84a.89.89,0,0,0-.54-1.11,1.3,1.3,0,0,0-1.28.3c-.15.14-.27.37-.16.54a.51.51,0,0,0,.36.17l1.69.26Z"/><path class="cls-75" d="M2638.86,1020a3.76,3.76,0,0,0-.3-1.42,1.23,1.23,0,0,0-1.17-.7,1.11,1.11,0,0,0-.63.33,1.35,1.35,0,1,0,2,1.74Z"/><path class="cls-75" d="M2622.16,1008a2.25,2.25,0,0,0-.33-.76.69.69,0,0,0-.73-.27c-.44.15-.48.75-.8,1.09s-.91.37-1.1.79.21.9.66,1a2,2,0,0,0,1.28-.38,2.23,2.23,0,0,0,.89-.8.87.87,0,0,0-.18-1.1Z"/><path class="cls-75" d="M2662.57,1012.7a5.82,5.82,0,0,0,1.64-5.36,6.09,6.09,0,0,0-5.55.81c-1.5,1.24-1.94,3.77-.58,5.16s4.31.56,4.38-1.39Z"/><path class="cls-75" d="M2672.89,1017.37c-.49,0-.8.52-1,1s-.38,1-.86,1.11a.43.43,0,0,1-.38-.07c-.26-.23,0-.63.12-1a3.73,3.73,0,0,0,0-.82,1.67,1.67,0,0,1,1.15-1.46.91.91,0,0,1,.37,1.63Z"/><path class="cls-75" d="M2657.21,1017l-.39-.41a.7.7,0,0,0-.48.72.57.57,0,0,0,.68.47.49.49,0,0,0,.25-.74Z"/><path class="cls-75" d="M2667.31,1020.88a.4.4,0,0,1-.29.49,1,1,0,0,1-.62-.11,1.24,1.24,0,0,1-.41-.3.77.77,0,0,1,.07-1,1,1,0,0,1,.94-.25.65.65,0,0,1,.4.28.33.33,0,0,1-.1.44Z"/><path class="cls-75" d="M2613.72,995.23a5.8,5.8,0,0,0-1.9-5.27,6.11,6.11,0,0,0-4,4c-.45,1.89.71,4.18,2.63,4.48s3.79-2.14,2.68-3.74Z"/><path class="cls-75" d="M2671.84,1021.44a13.59,13.59,0,0,0-3.9-4.75,2.24,2.24,0,0,0-.87-.47,1.93,1.93,0,0,0-1.73.65,4,4,0,0,0-.65,4.39,4.91,4.91,0,0,0,3.7,2.62,3.26,3.26,0,0,0,2.48-.49,1.84,1.84,0,0,0,.61-2.29.4.4,0,0,0-.42.53Z"/><path class="cls-75" d="M2653.63,1014.68a5.77,5.77,0,0,0-1.89-5.27,6.11,6.11,0,0,0-4,4c-.46,1.89.71,4.18,2.63,4.48s3.79-2.14,2.68-3.74Z"/><path class="cls-75" d="M2643.6,998a3,3,0,0,0-.84-2.49,3.16,3.16,0,0,0-.8.91,1,1,0,0,0,.07,1.14c.38.41,1,.3,1.57.16-.07.14-.15.27-.23.4Z"/><path class="cls-75" d="M2637.54,995.57a1.18,1.18,0,0,0-.39-.64,1.21,1.21,0,0,0-.71-.13,11.16,11.16,0,0,1-2-.15l2.17,2.55a.88.88,0,0,1,.14.23c.09.29-.24.54-.32.84s.3.83.7,1C2640,1000.79,2638,996.89,2637.54,995.57Z"/><path class="cls-75" d="M2671.88,1015.39l-.6-.78a1.56,1.56,0,0,0-.51,1.75c.28.59,1.26.76,1.58.18.19-.35.35-1,.7-.79Z"/><path class="cls-75" d="M2644.44,1009a1.43,1.43,0,0,1,.41.7,2.23,2.23,0,0,1-1.73-1.07c-.25-.3-.5-.72-.31-1.06s.43-.32.64-.5c.43-.35.62-1.11,1.17-1.06a.67.67,0,0,1,.54.65,1.88,1.88,0,0,1-.24.89l-.82,1.86Z"/><path class="cls-75" d="M2637,1016.75c0-.57-1-.63-1.28-.16a2.07,2.07,0,0,0-.05,1.66,2,2,0,0,0,1.67-1.46Z"/><path class="cls-75" d="M2633.86,1005a.52.52,0,0,1-.6.4,1,1,0,0,1-.63-.46,1,1,0,0,1-.16-.44.68.68,0,0,1,.69-.68.74.74,0,0,1,.65.74.78.78,0,0,1-.71.7Z"/><path class="cls-75" d="M2637.17,1003.61a.79.79,0,0,0,.37-1.31,1.32,1.32,0,0,0-.77.41.66.66,0,0,0-.06.82.44.44,0,0,0,.73-.06Z"/><path class="cls-75" d="M2649.4,999.87a2.29,2.29,0,0,0,0-2l-1.44.86a1.54,1.54,0,0,0-.58.52.89.89,0,0,0,.58,1.21,1.26,1.26,0,0,0,1.33-.57Z"/><path class="cls-75" d="M2631.33,1012.59a1,1,0,0,1-.73.84,1.06,1.06,0,0,1-1.07-.35c-.17-.21-.21-.58,0-.71a.62.62,0,0,1,.33,0l1.5.09-.06.25Z"/><path class="cls-75" d="M2623.92,1015c-.46-.17-.92.23-1.24.61s-.69.83-1.18.77a.44.44,0,0,1-.34-.2c-.16-.3.23-.58.44-.87a3.34,3.34,0,0,0,.3-.76,1.66,1.66,0,0,1,1.57-1,.94.94,0,0,1,.45.89,1,1,0,0,1-.65.77Z"/><path class="cls-75" d="M2622.5,1010.26l-.23-.51a.69.69,0,0,0-.69.51.57.57,0,0,0,.48.67.49.49,0,0,0,.49-.62Z"/><path class="cls-75" d="M2640.83,1001.7c0,.37.46.57.82.45a8.43,8.43,0,0,0,.95-.56,1.34,1.34,0,0,1,1.11,0,.64.64,0,0,1,.4.49.8.8,0,0,1-.13.42,4,4,0,0,1-1.44,1.62,1.86,1.86,0,0,1-2.06-.07,1.43,1.43,0,0,1,.45-2.46Z"/><path class="cls-75" d="M2644.4,992.49a.89.89,0,0,0-.53-1.11,1.27,1.27,0,0,0-1.28.3c-.15.14-.28.36-.17.54s.23.14.37.17l1.68.26Z"/><path class="cls-75" d="M2645,1018a1.52,1.52,0,0,1-2.39.16,3.82,3.82,0,0,1,1.63-1.41,1.3,1.3,0,0,1,1.72.83l-.69,1.08Z"/><path class="cls-75" d="M2633.32,1000.13l-.28-.53a1.22,1.22,0,0,0-.73.51c-.14.27.05.7.35.64a.59.59,0,0,0,.29-.18l.81-.75Z"/><path class="cls-75" d="M2648.41,1030.94l-.61-.78a1.76,1.76,0,0,0-.61.44.94.94,0,0,0,1.16.6Z"/><path class="cls-75" d="M2648.25,1022.78l-.6-.78a1.76,1.76,0,0,0-.61.44.92.92,0,0,0,1.16.59Z"/><path class="cls-75" d="M2613.66,982.65c.15-.33-.28-.68-.65-.67a9.81,9.81,0,0,0-1.07.26,1.37,1.37,0,0,1-1.06-.34.65.65,0,0,1-.24-.59.79.79,0,0,1,.25-.36,4,4,0,0,1,1.85-1.12,1.87,1.87,0,0,1,2,.67,1.44,1.44,0,0,1-1.15,2.22Z"/><path class="cls-75" d="M2655.38,1008.31a11.15,11.15,0,0,0,4.19,2.73,2,2,0,0,0,.79.15,1.57,1.57,0,0,0,1.19-.93,3.25,3.25,0,0,0-.57-3.57,4,4,0,0,0-3.53-1.13,2.76,2.76,0,0,0-1.8,1,1.52,1.52,0,0,0,.09,1.94.34.34,0,0,0,.2-.52Z"/><path class="cls-75" d="M2666.4,1003.07a1.19,1.19,0,0,0,.37-.66,1.26,1.26,0,0,0-.25-.68,11.1,11.1,0,0,1-.86-1.81l-1.14,3.15a.63.63,0,0,1-.12.23c-.21.23-.59.07-.89.15s-.57.67-.55,1.12C2663.09,1007.79,2665.47,1004.09,2666.4,1003.07Z"/><path class="cls-75" d="M2655.58,1007.94l-.2-.53a.68.68,0,0,0-.72.46.58.58,0,0,0,.43.71.5.5,0,0,0,.53-.59Z"/><path class="cls-75" d="M2661.48,1001.05a.9.9,0,0,0,.7-1,1.27,1.27,0,0,0-.9-.95c-.19-.07-.46-.06-.55.12a.52.52,0,0,0,0,.4l.6,1.59Z"/><path class="cls-75" d="M2656.54,1004.64a2.94,2.94,0,0,0,1.74-2,3.24,3.24,0,0,0-1.18-.25,1,1,0,0,0-1,.64c-.17.52.25,1,.64,1.44h-.46Z"/><path class="cls-75" d="M2652.46,1005.12a1.27,1.27,0,0,1-.4.7,2.28,2.28,0,0,1,.07-2c.14-.37.38-.79.77-.8s.5.22.75.31c.52.2,1.27,0,1.5.48a.67.67,0,0,1-.29.8,2,2,0,0,1-.89.24l-2,.21Z"/><path class="cls-75" d="M2662.87,1004.87a2.28,2.28,0,0,0,1.72-1l-1.47-.82a1.52,1.52,0,0,0-.74-.25.9.9,0,0,0-.76,1.11,1.26,1.26,0,0,0,1.16.87Z"/><path class="cls-75" d="M2657,998.35c-.34.15-.27.69,0,.93a8.23,8.23,0,0,0,1,.55,1.35,1.35,0,0,1,.54,1,.64.64,0,0,1-.22.59.8.8,0,0,1-.43.09,3.87,3.87,0,0,1-2.12-.44,1.89,1.89,0,0,1-1-1.82,1.45,1.45,0,0,1,2.37-.84Z"/><path class="cls-75" d="M2659.39,1022.14a3.55,3.55,0,0,0,1.07-1,1.23,1.23,0,0,0,0-1.36,1.05,1.05,0,0,0-.61-.37,1.34,1.34,0,1,0-.49,2.63Z"/><path class="cls-75" d="M2669.09,1017.33a3,3,0,0,0,1.74-2,3.07,3.07,0,0,0-1.19-.26,1.06,1.06,0,0,0-.95.64c-.17.53.25,1,.64,1.44h-.46Z"/><path class="cls-75" d="M2650.83,1004.57c-.45-.2-.94.17-1.28.53s-.75.77-1.23.68a.42.42,0,0,1-.32-.22c-.15-.32.27-.57.49-.84a4.61,4.61,0,0,0,.36-.74,1.64,1.64,0,0,1,1.63-.88.91.91,0,0,1,.38.92.94.94,0,0,1-.69.72Z"/><path class="cls-75" d="M2662.16,1009.44c.11-.16.22-.33.32-.5a1.23,1.23,0,0,0-.8-.38c-.31,0-.58.39-.38.63a.72.72,0,0,0,.3.16l1.05.33Z"/><path class="cls-75" d="M2732.61,1066.4a2.94,2.94,0,0,0,.82-2.49,2.8,2.8,0,0,0-1.18.24,1,1,0,0,0-.63,1c.05.55.65.86,1.16,1.07l-.42.18Z"/><path class="cls-75" d="M2735.4,1068.65a1.36,1.36,0,0,1,.41.7,2.27,2.27,0,0,1-1.73-1.07c-.25-.3-.5-.72-.3-1.06s.43-.32.64-.5c.42-.35.61-1.11,1.16-1.06a.65.65,0,0,1,.54.65,2,2,0,0,1-.23.89c-.28.62-.55,1.24-.82,1.86Z"/><path class="cls-75" d="M2718.91,1093.21a2.05,2.05,0,0,0-.32-.76.71.71,0,0,0-.74-.27c-.43.15-.48.75-.8,1.09s-.91.37-1.1.79.21.9.66,1a2.05,2.05,0,0,0,1.29-.38,2.23,2.23,0,0,0,.89-.8.89.89,0,0,0-.18-1.1Z"/><path class="cls-75" d="M2724.13,1067a.79.79,0,0,0,1.08-.83,1.36,1.36,0,0,0-.86-.13.66.66,0,0,0-.54.61.45.45,0,0,0,.62.4Z"/><path class="cls-75" d="M2736.16,1071.33a2.25,2.25,0,0,0,1.19-1.58l-1.67-.17a1.58,1.58,0,0,0-.78.06.91.91,0,0,0-.26,1.33,1.29,1.29,0,0,0,1.41.34Z"/><path class="cls-75" d="M2728.21,1067.67c-.26.27,0,.74.37.85a8,8,0,0,0,1.1.12,1.37,1.37,0,0,1,.89.68.64.64,0,0,1,0,.63,1,1,0,0,1-.36.26,4.05,4.05,0,0,1-2.12.43,1.87,1.87,0,0,1-1.61-1.29,1.43,1.43,0,0,1,1.83-1.7Z"/><path class="cls-75" d="M2736.58,1062.44a.91.91,0,0,0,.24-1.22,1.3,1.3,0,0,0-1.21-.52c-.2,0-.44.12-.45.33a.48.48,0,0,0,.19.35c.39.41.79.82,1.19,1.22Z"/><path class="cls-75" d="M2723.13,1061.91l.09-.59a1.24,1.24,0,0,0-.89,0c-.27.13-.37.59-.1.73a.56.56,0,0,0,.34,0l1.09-.11Z"/><path class="cls-75" d="M2714.36,1056a3.75,3.75,0,0,0-.3-1.41,1.22,1.22,0,0,0-1.17-.7,1.11,1.11,0,0,0-.63.33,1.35,1.35,0,1,0,2,1.74Z"/><path class="cls-75" d="M2720.47,1092a.52.52,0,0,1-.59.41,1,1,0,0,1-.63-.46.92.92,0,0,1-.17-.44.68.68,0,0,1,.69-.68.73.73,0,0,1,.65.74.78.78,0,0,1-.71.7Z"/><path class="cls-75" d="M2692.78,1047.86c-.46-.17-.92.23-1.23.61s-.7.82-1.19.77a.43.43,0,0,1-.33-.2c-.17-.3.23-.59.43-.87a3.76,3.76,0,0,0,.31-.77,1.64,1.64,0,0,1,1.56-1,.93.93,0,0,1,.45.89.94.94,0,0,1-.64.77Z"/><path class="cls-75" d="M2688.16,1049.79c0,.36.46.57.81.45a9.23,9.23,0,0,0,1-.56,1.34,1.34,0,0,1,1.11,0,.64.64,0,0,1,.4.49.8.8,0,0,1-.13.42,4,4,0,0,1-1.44,1.62,1.9,1.9,0,0,1-2.06-.07,1.46,1.46,0,0,1-.5-1.36,1.49,1.49,0,0,1,1-1.11Z"/><path class="cls-75" d="M2691.69,1046.53c0,.37.46.57.81.46a10.53,10.53,0,0,0,1-.57,1.36,1.36,0,0,1,1.1,0,.67.67,0,0,1,.41.49.73.73,0,0,1-.14.42,4,4,0,0,1-1.43,1.62,1.86,1.86,0,0,1-2.06-.07,1.46,1.46,0,0,1-.5-1.36,1.45,1.45,0,0,1,.94-1.1Z"/><path class="cls-75" d="M2695.47,1052.88c0,.37.47.58.82.46s.61-.41.95-.56a1.31,1.31,0,0,1,1.11,0,.61.61,0,0,1,.4.49.83.83,0,0,1-.13.42,4,4,0,0,1-1.44,1.61,1.88,1.88,0,0,1-2.06-.06,1.44,1.44,0,0,1,.45-2.47Z"/><path class="cls-75" d="M2722.12,1098.42a.89.89,0,0,0-.54-1.11,1.27,1.27,0,0,0-1.28.3c-.15.14-.28.36-.17.53a.5.5,0,0,0,.37.17l1.68.27Z"/><path class="cls-75" d="M2705.23,1071.52a3.58,3.58,0,0,0-.31-1.41,1.21,1.21,0,0,0-1.17-.7,1.08,1.08,0,0,0-.62.33,1.34,1.34,0,1,0,2,1.74Z"/><path class="cls-75" d="M2693.92,1058.53a5.76,5.76,0,0,0,1.64-5.35,6.07,6.07,0,0,0-5.54.81c-1.5,1.23-1.95,3.76-.59,5.15s4.32.56,4.39-1.39Z"/><path class="cls-75" d="M2739.25,1069c-.49,0-.79.52-1,1s-.38,1-.86,1.12a.44.44,0,0,1-.39-.07c-.25-.24,0-.64.12-1a3.73,3.73,0,0,0,0-.82,1.64,1.64,0,0,1,1.15-1.46.91.91,0,0,1,.36,1.63Z"/><path class="cls-75" d="M2723.58,1068.6l-.39-.41a.68.68,0,0,0-.48.72.57.57,0,0,0,.67.47.5.5,0,0,0,.26-.75Z"/><path class="cls-75" d="M2733.67,1072.46a.39.39,0,0,1-.29.49.94.94,0,0,1-.61-.11,1.18,1.18,0,0,1-.42-.31.77.77,0,0,1,.07-.94,1,1,0,0,1,.94-.25.59.59,0,0,1,.4.28.34.34,0,0,1-.09.44Z"/><path class="cls-75" d="M2738.2,1073a13.56,13.56,0,0,0-3.89-4.75,2.48,2.48,0,0,0-.87-.48,2,2,0,0,0-1.73.65,4,4,0,0,0-.65,4.39,4.88,4.88,0,0,0,3.7,2.63,3.3,3.3,0,0,0,2.48-.49,1.86,1.86,0,0,0,.61-2.3.41.41,0,0,0-.42.53Z"/><path class="cls-75" d="M2720,1066.26a5.78,5.78,0,0,0-1.89-5.27,6.06,6.06,0,0,0-4,4c-.46,1.89.7,4.18,2.62,4.48s3.79-2.14,2.68-3.74Z"/><path class="cls-75" d="M2738.24,1067l-.59-.78a1.6,1.6,0,0,0-.52,1.76c.28.59,1.27.75,1.58.18.19-.35.36-1,.71-.79Z"/><path class="cls-75" d="M2710.8,1060.59a1.32,1.32,0,0,1,.41.7,2.27,2.27,0,0,1-1.73-1.07c-.25-.3-.5-.72-.3-1.06s.43-.33.64-.5c.42-.35.61-1.11,1.16-1.07a.69.69,0,0,1,.55.66,2.15,2.15,0,0,1-.24.89c-.28.62-.55,1.24-.82,1.86Z"/><path class="cls-75" d="M2703.4,1068.33c0-.57-1-.63-1.27-.16a2,2,0,0,0-.06,1.65,2,2,0,0,0,1.68-1.45Z"/><path class="cls-75" d="M2711.33,1069.54a1.5,1.5,0,0,1-2.38.17,3.73,3.73,0,0,1,1.62-1.41,1.3,1.3,0,0,1,1.72.83l-.68,1.07Z"/><path class="cls-75" d="M2714.77,1082.52l-.6-.78a1.6,1.6,0,0,0-.61.44.93.93,0,0,0,1.16.6Z"/><path class="cls-75" d="M2714.62,1074.36l-.61-.79a1.79,1.79,0,0,0-.6.45.93.93,0,0,0,1.16.59Z"/><path class="cls-75" d="M2657.13,1034.73a11.15,11.15,0,0,0,4.19,2.73,2,2,0,0,0,.79.15,1.58,1.58,0,0,0,1.19-.93,3.24,3.24,0,0,0-.58-3.57,4,4,0,0,0-3.52-1.12,2.65,2.65,0,0,0-1.8,1,1.51,1.51,0,0,0,.09,1.93.33.33,0,0,0,.2-.51Z"/><path class="cls-75" d="M2697.76,1048.9a1.18,1.18,0,0,0,.36-.65,1.22,1.22,0,0,0-.24-.68,12.16,12.16,0,0,1-.87-1.82c-.37,1-.75,2.1-1.13,3.15a.68.68,0,0,1-.12.24c-.21.23-.6.07-.9.14s-.57.67-.55,1.12C2694.45,1053.63,2696.83,1049.93,2697.76,1048.9Z"/><path class="cls-75" d="M2721.94,1059.52c-.06-.18-.13-.36-.19-.53a.69.69,0,0,0-.73.46.57.57,0,0,0,.44.7.49.49,0,0,0,.53-.58Z"/><path class="cls-75" d="M2692.83,1046.88a.89.89,0,0,0,.7-1,1.28,1.28,0,0,0-.89-1c-.2-.06-.46-.06-.55.12a.51.51,0,0,0,0,.4c.21.53.41,1.07.61,1.6Z"/><path class="cls-75" d="M2687.9,1050.48a3,3,0,0,0,1.74-2,3.11,3.11,0,0,0-1.19-.26,1.06,1.06,0,0,0-.95.64c-.17.53.25,1,.64,1.44h-.46Z"/><path class="cls-75" d="M2718.83,1056.69a1.4,1.4,0,0,1-.4.71,2.27,2.27,0,0,1,.06-2c.14-.37.38-.8.78-.8s.49.22.75.31c.51.19,1.27,0,1.5.48a.68.68,0,0,1-.3.8,2.07,2.07,0,0,1-.89.24l-2,.21Z"/><path class="cls-75" d="M2694.22,1050.7a2.26,2.26,0,0,0,1.72-1c-.48-.28-1-.55-1.46-.82a1.57,1.57,0,0,0-.74-.26.89.89,0,0,0-.76,1.11,1.25,1.25,0,0,0,1.15.87Z"/><path class="cls-75" d="M2688.38,1044.19c-.34.14-.27.68,0,.93s.67.33,1,.55a1.31,1.31,0,0,1,.54,1,.66.66,0,0,1-.22.6.82.82,0,0,1-.43.09,4,4,0,0,1-2.12-.44,1.88,1.88,0,0,1-1-1.82,1.48,1.48,0,0,1,.93-1.11,1.46,1.46,0,0,1,1.43.27Z"/><path class="cls-75" d="M2725.76,1073.72a3.55,3.55,0,0,0,1.07-1,1.21,1.21,0,0,0,0-1.36,1.09,1.09,0,0,0-.6-.38,1.34,1.34,0,1,0-.49,2.64Z"/><path class="cls-75" d="M2735.45,1068.9a3,3,0,0,0,1.74-2,3,3,0,0,0-1.18-.26,1,1,0,0,0-1,.64c-.18.53.25,1.05.64,1.44h-.46Z"/><path class="cls-75" d="M2717.19,1056.15c-.45-.2-.93.17-1.27.52s-.75.78-1.24.69a.46.46,0,0,1-.32-.22c-.14-.32.27-.57.49-.84a3.45,3.45,0,0,0,.36-.75,1.65,1.65,0,0,1,1.63-.88.93.93,0,0,1,.39.92.92.92,0,0,1-.7.72Z"/><path class="cls-75" d="M2693.52,1055.28c.11-.17.21-.34.32-.5a1.27,1.27,0,0,0-.81-.39c-.3,0-.58.4-.38.63a.59.59,0,0,0,.3.16l1.05.33Z"/></g></g></g></g></svg>