<?xml version="1.0" standalone="no"?>
<!DOCTYPE svg PUBLIC "-//W3C//DTD SVG 20010904//EN"
 "http://www.w3.org/TR/2001/REC-SVG-20010904/DTD/svg10.dtd">
<svg version="1.0" xmlns="http://www.w3.org/2000/svg"
 width="550.000000pt" height="360.000000pt" viewBox="0 0 550.000000 360.000000"
 preserveAspectRatio="xMidYMid meet">
<metadata>
Created by potrace 1.16, written by Peter Selinger 2001-2019
</metadata>
<g transform="translate(0.000000,360.000000) scale(0.100000,-0.100000)"
fill="#000000" stroke="none">
<path d="M1192 2573 c-61 -21 -145 -102 -172 -165 -42 -98 -38 -231 12 -348
18 -42 18 -47 3 -111 l-17 -68 -38 20 c-87 46 -217 31 -294 -32 -112 -94 -115
-301 -5 -393 79 -67 195 -80 291 -33 30 15 63 36 73 47 17 19 18 18 52 -38 19
-31 52 -75 74 -97 21 -23 39 -51 39 -63 0 -39 39 -128 75 -170 22 -25 63 -54
103 -74 63 -31 72 -33 177 -33 98 0 116 3 167 27 67 31 147 102 182 162 32 56
56 139 56 199 0 43 2 48 18 42 124 -53 246 -33 324 53 86 96 86 265 0 355 -50
53 -99 72 -187 72 -70 -1 -87 -4 -134 -30 -58 -32 -104 -91 -117 -149 -3 -17
-8 -34 -11 -38 -2 -4 -30 10 -61 31 -31 21 -79 47 -105 58 l-48 20 55 27 c153
75 205 270 109 408 -47 68 -159 128 -239 128 -23 0 -34 5 -37 18 -4 15 -5 15
-6 0 -1 -12 -12 -18 -43 -21 l-43 -4 43 -1 c37 -2 42 -5 42 -25 0 -12 -10 -43
-22 -67 -33 -65 -105 -100 -205 -100 -64 0 -73 -2 -73 -18 0 -43 29 -52 161
-52 140 0 185 -9 218 -44 43 -45 37 -149 -10 -192 -15 -14 -42 -20 -98 -24
l-76 -5 -3 -37 -3 -38 79 0 c66 0 85 -4 112 -22 56 -38 72 -69 73 -135 1 -100
-41 -152 -132 -161 -66 -6 -93 2 -136 39 -54 48 -65 100 -65 316 0 221 -7 243
-77 243 l-33 0 0 -90 c0 -60 -4 -90 -11 -90 -22 0 -79 42 -119 87 -22 25 -40
41 -40 35 0 -18 86 -100 129 -121 l41 -21 0 -123 c0 -153 16 -213 69 -266 51
-51 124 -75 224 -74 66 0 87 5 143 33 93 45 119 87 119 191 0 42 3 75 7 73 4
-3 5 2 2 10 -3 9 -11 13 -18 9 -6 -3 -8 -2 -3 2 4 5 -3 20 -15 34 l-23 25 30
-18 c57 -35 82 -66 89 -109 10 -58 40 -122 72 -152 25 -24 26 -28 22 -98 -9
-144 -94 -268 -226 -330 -62 -30 -74 -32 -172 -32 -86 1 -114 5 -152 22 -91
42 -157 121 -173 206 l-7 37 78 -37 c77 -37 82 -38 189 -38 100 0 115 3 167
28 65 32 122 90 151 156 28 63 35 193 13 241 -9 19 -14 26 -10 15 13 -44 16
-143 5 -197 -45 -217 -313 -305 -545 -180 l-48 27 5 62 c4 36 2 65 -3 68 -13
8 -22 -17 -24 -61 0 -19 -4 -34 -8 -34 -12 0 -67 73 -97 129 -28 54 -29 57
-14 86 9 16 18 60 21 96 5 77 -12 139 -53 193 -23 31 -25 38 -16 77 41 176
130 310 262 392 15 9 53 25 85 37 35 13 46 19 26 16 -106 -18 -255 -140 -321
-265 l-34 -64 -15 29 c-42 81 -54 215 -26 302 40 124 156 212 279 212 104 0
183 -47 219 -130 8 -19 15 -28 16 -19 0 8 -13 36 -29 61 -55 87 -191 123 -309
81z m471 -223 c116 -43 187 -141 186 -255 0 -33 -6 -74 -12 -92 -19 -49 -70
-116 -107 -137 l-34 -19 24 33 c36 50 39 141 8 195 -35 59 -109 94 -220 102
l-87 6 40 29 c41 30 78 94 79 136 0 18 5 22 35 22 19 0 58 -9 88 -20z m-743
-503 c59 -39 75 -79 75 -184 0 -77 -3 -96 -21 -119 -35 -48 -72 -69 -119 -69
-88 0 -145 78 -145 200 0 53 5 82 23 115 38 76 122 102 187 57z m1275 -1 c55
-36 85 -147 64 -244 -34 -164 -217 -172 -274 -13 -27 78 -13 183 32 233 42 48
125 59 178 24z"/>
<path d="M2460 1808 c0 -240 2 -277 18 -307 32 -65 95 -91 195 -83 45 4 48 6
45 31 -3 24 -6 26 -55 26 -41 0 -57 5 -75 23 -22 21 -23 31 -26 187 l-4 165
81 0 81 0 0 35 0 35 -80 0 -80 0 0 58 c0 66 -5 77 -43 91 -60 23 -57 35 -57
-261z"/>
<path d="M3657 2025 c-42 -39 -109 -77 -199 -113 -22 -9 -28 -18 -28 -43 0
-26 3 -30 18 -24 9 4 45 12 79 18 107 19 166 -13 180 -97 l6 -36 -60 0 c-117
0 -217 -41 -248 -100 -33 -63 -8 -161 47 -191 64 -35 176 -27 225 15 l27 23
20 -24 c12 -12 36 -26 54 -29 l32 -6 0 185 c0 107 -5 198 -11 214 -22 59 -63
87 -154 108 l-30 7 35 18 c40 21 130 97 130 111 0 5 -17 9 -37 9 -31 -1 -47
-9 -86 -45z m51 -415 c-5 -67 -29 -102 -85 -126 -48 -21 -71 -17 -104 15 -35
36 -39 86 -8 125 25 31 64 44 143 45 l58 1 -4 -60z"/>
<path d="M3140 1915 c-57 -18 -114 -65 -143 -118 -32 -61 -32 -204 0 -264 46
-85 120 -118 254 -111 101 5 115 12 99 52 -8 23 -13 25 -29 16 -29 -15 -128
-12 -161 5 -40 21 -72 86 -78 161 -13 163 88 244 246 198 19 -6 22 -3 22 24 0
25 -6 32 -31 41 -43 15 -124 13 -179 -4z"/>
<path d="M4560 1915 c-97 -31 -159 -113 -167 -220 -9 -113 39 -207 130 -253
90 -47 231 -27 306 41 86 80 95 259 17 361 -53 70 -187 103 -286 71z m151 -68
c19 -12 44 -42 57 -67 20 -38 23 -57 20 -127 -2 -63 -8 -88 -24 -109 -35 -48
-72 -69 -119 -69 -88 0 -145 78 -145 200 0 53 5 82 23 115 38 76 122 102 188
57z"/>
<path d="M2787 1913 c-4 -3 -7 -114 -7 -245 l0 -238 55 0 55 0 0 245 0 245
-48 0 c-27 0 -52 -3 -55 -7z"/>
<path d="M3984 1906 c-17 -8 -42 -29 -55 -47 -23 -33 -24 -42 -27 -231 l-3
-198 50 0 51 0 0 174 c0 233 9 256 104 256 44 0 46 1 46 30 l0 30 -67 0 c-38
-1 -82 -7 -99 -14z"/>
<path d="M4200 1675 l0 -245 55 0 55 0 0 245 0 245 -55 0 -55 0 0 -245z"/>
</g>
</svg>
