<?xml version="1.0" encoding="UTF-8" ?>
<!DOCTYPE svg PUBLIC "-//W3C//DTD SVG 1.1//EN" "http://www.w3.org/Graphics/SVG/1.1/DTD/svg11.dtd">
<svg width="1200pt" height="816pt" viewBox="0 0 1200 816" version="1.1" xmlns="http://www.w3.org/2000/svg">
<g id="#ecececff">
<path fill="#ececec" opacity="1.00" d=" M 806.74 595.34 C 809.27 595.37 811.81 595.48 814.33 595.79 C 814.29 597.26 814.25 598.73 814.21 600.21 C 811.72 600.51 809.21 600.64 806.71 600.67 C 806.71 598.89 806.72 597.11 806.74 595.34 Z" />
</g>
<g id="#d12322ff">
<path fill="#d12322" opacity="1.00" d=" M 609.32 162.82 C 613.99 170.27 618.69 177.71 623.24 185.23 C 628.53 178.59 633.65 171.81 638.99 165.20 C 642.55 173.12 646.02 181.07 649.54 189.01 C 655.95 182.87 662.25 176.62 668.80 170.64 C 671.41 179.17 673.84 187.75 676.21 196.35 C 683.33 191.26 689.99 185.50 697.35 180.74 C 698.74 189.26 700.26 197.76 701.74 206.27 C 709.40 202.71 716.54 198.14 723.93 194.06 C 724.36 203.12 724.85 212.19 724.81 221.26 C 733.00 217.76 741.10 214.05 749.35 210.71 C 748.52 219.91 747.98 229.13 747.02 238.32 C 755.82 236.08 764.55 233.59 773.39 231.52 C 771.26 239.98 768.88 248.39 766.55 256.80 C 775.11 256.07 783.67 255.29 792.23 254.48 C 789.42 262.49 786.06 270.30 783.44 278.37 C 792.50 278.99 801.58 279.32 810.66 279.36 C 806.39 287.03 801.96 294.61 797.69 302.29 C 806.23 302.97 814.77 303.71 823.32 304.36 C 818.49 311.59 812.70 318.14 807.54 325.14 C 816.06 327.74 824.62 330.18 833.16 332.72 C 827.38 339.11 821.53 345.44 815.65 351.74 C 823.55 355.54 831.43 359.39 839.39 363.06 C 833.69 368.15 827.79 372.99 822.00 377.96 C 819.52 380.15 816.13 380.61 813.08 381.55 C 806.22 383.33 799.49 385.58 792.57 387.12 C 785.91 360.93 778.89 334.84 772.15 308.68 C 766.74 310.12 761.33 311.57 755.90 312.97 C 763.97 344.15 772.12 375.32 780.47 406.44 C 799.44 401.20 818.47 396.13 837.51 391.15 C 839.10 392.28 840.69 393.41 842.28 394.56 C 835.41 398.62 828.39 402.42 821.66 406.70 C 828.45 412.33 835.35 417.81 842.22 423.33 C 834.55 427.13 826.71 430.55 819.02 434.30 C 825.27 441.14 832.02 447.50 838.21 454.39 C 829.87 456.91 821.61 459.63 813.29 462.18 C 818.60 469.19 823.98 476.16 829.12 483.30 C 820.76 485.16 812.41 487.05 804.06 488.92 C 808.88 497.25 813.91 505.45 818.63 513.83 C 809.37 514.09 800.12 513.69 790.87 513.58 C 794.47 521.71 798.37 529.71 802.12 537.78 C 793.30 537.74 784.50 537.04 775.68 536.94 C 778.40 545.33 781.06 553.74 783.91 562.09 C 775.40 560.28 766.91 558.43 758.42 556.57 C 760.00 565.40 762.36 574.07 763.95 582.90 C 755.21 580.40 746.54 577.67 737.73 575.45 C 738.51 583.85 738.88 592.28 739.69 600.68 C 731.54 597.55 723.55 594.04 715.46 590.77 C 714.75 599.85 714.98 608.98 714.76 618.09 C 707.28 613.43 699.90 608.59 692.33 604.07 C 690.74 612.36 689.01 620.62 687.42 628.91 C 680.33 623.82 673.50 618.37 666.35 613.38 C 663.85 621.65 660.74 629.73 658.17 637.98 C 651.43 632.11 645.37 625.50 638.54 619.75 C 635.29 627.39 632.31 635.15 629.08 642.80 C 623.02 636.25 617.24 629.41 611.53 622.54 C 607.00 629.75 602.78 637.16 598.15 644.30 C 593.42 637.08 589.17 629.54 584.24 622.47 C 584.11 622.44 583.87 622.36 583.74 622.33 C 578.25 628.63 573.31 635.40 567.90 641.77 C 564.26 633.54 560.85 625.22 557.30 616.95 C 551.00 623.27 545.09 629.98 538.72 636.23 C 536.05 627.55 533.48 618.84 530.79 610.17 C 523.73 615.96 516.46 621.49 509.39 627.26 C 508.17 618.28 506.88 609.29 505.91 600.28 C 498.60 604.86 491.21 609.31 484.00 614.06 C 484.01 605.12 484.00 596.19 484.01 587.25 C 475.65 590.54 467.36 593.98 458.99 597.22 C 459.54 588.38 461.01 579.64 461.98 570.84 C 453.05 573.20 444.10 575.44 435.12 577.58 C 437.42 569.22 439.87 560.92 442.26 552.59 C 433.48 553.76 424.64 554.50 415.88 555.85 C 418.54 547.50 421.84 539.37 424.57 531.04 C 415.64 530.75 406.76 529.93 397.83 529.72 C 401.58 521.99 405.98 514.60 409.92 506.98 C 410.82 504.60 413.61 504.56 415.64 503.79 C 410.15 481.10 404.42 458.46 398.94 435.77 C 410.04 453.76 421.25 471.69 432.42 489.64 C 434.26 492.38 435.66 495.45 437.86 497.93 C 443.11 496.75 448.28 495.21 453.45 493.75 C 455.28 468.36 457.00 442.96 459.17 417.60 C 465.12 440.89 471.07 464.18 477.00 487.48 C 482.50 486.03 488.00 484.54 493.50 483.04 C 485.50 452.01 477.43 421.00 469.36 389.99 C 460.85 392.00 452.39 394.18 443.91 396.29 C 442.52 421.14 441.52 446.01 440.10 470.85 C 427.06 449.96 413.86 429.16 400.83 408.25 C 392.52 410.35 384.24 412.58 375.90 414.57 C 376.35 416.67 376.80 418.77 377.22 420.88 C 372.49 418.31 367.72 415.80 362.93 413.36 C 370.13 408.40 377.71 404.02 384.97 399.15 C 378.00 393.47 370.67 388.23 363.73 382.51 C 371.53 378.56 379.65 375.18 387.18 370.73 C 380.55 364.84 373.89 358.99 367.49 352.85 C 376.16 350.19 384.79 347.42 393.49 344.87 C 387.67 337.97 381.56 331.32 375.72 324.44 C 384.52 322.50 393.30 320.48 402.12 318.61 C 397.45 311.09 392.41 303.81 387.76 296.28 C 396.51 295.23 405.29 294.52 414.06 293.59 C 410.19 285.37 406.30 277.15 402.27 269.01 C 411.47 269.30 420.67 269.40 429.88 269.73 C 427.36 261.57 424.65 253.48 422.07 245.35 C 431.11 246.32 440.19 247.00 449.26 247.66 C 447.35 239.40 445.46 231.14 443.50 222.90 C 452.07 225.36 460.60 227.98 469.17 230.44 C 468.25 221.57 467.93 212.66 467.23 203.78 C 475.58 207.44 483.99 210.98 492.38 214.55 C 493.25 205.99 493.64 197.39 494.30 188.82 C 501.82 193.75 509.55 198.37 517.14 203.20 C 518.67 194.43 519.94 185.61 521.41 176.83 C 528.51 182.14 535.09 188.15 542.47 193.06 C 545.10 184.96 547.71 176.85 550.47 168.80 C 556.69 175.04 562.74 181.45 568.93 187.73 C 572.61 180.09 575.81 172.23 579.60 164.64 C 585.16 171.30 590.54 178.09 596.09 184.75 C 600.63 177.52 604.89 170.11 609.32 162.82 M 677.97 333.86 C 685.80 364.99 693.94 396.05 701.91 427.15 C 725.03 421.22 748.04 414.89 771.12 408.80 C 769.91 403.91 768.69 399.03 767.55 394.13 C 749.68 398.78 731.90 403.78 714.00 408.31 C 711.85 399.58 709.58 390.89 707.39 382.18 C 722.56 377.88 737.73 373.60 752.96 369.52 C 751.95 364.68 750.57 359.94 749.35 355.15 C 734.00 359.41 718.70 363.86 703.34 368.10 C 701.34 360.14 699.21 352.21 697.24 344.24 C 715.07 339.67 732.82 334.77 750.63 330.10 C 749.41 325.15 748.06 320.23 746.71 315.32 C 723.78 321.43 700.90 327.72 677.97 333.86 M 539.18 371.11 C 540.42 376.08 541.73 381.03 542.91 386.01 C 552.83 383.51 562.64 380.60 572.53 377.96 C 579.07 404.17 585.93 430.29 592.45 456.50 C 597.85 455.19 603.21 453.72 608.58 452.27 C 602.12 426.00 595.16 399.85 588.55 373.62 C 602.19 370.05 615.75 366.10 629.47 362.85 C 636.37 388.91 643.30 414.97 650.49 440.95 C 655.85 439.64 661.14 438.00 666.54 436.82 C 660.07 410.62 652.98 384.56 646.11 358.46 C 655.51 355.56 665.00 352.95 674.45 350.20 C 673.05 345.46 671.62 340.74 670.33 335.98 C 626.57 347.52 582.90 359.43 539.18 371.11 M 505.11 380.23 C 502.64 414.12 500.12 448.01 497.85 481.91 C 503.19 480.48 508.55 479.07 513.91 477.68 C 514.43 471.12 514.87 464.56 515.32 458.00 C 528.16 454.57 540.92 450.88 553.82 447.68 C 557.24 453.19 560.76 458.64 564.16 464.16 C 570.11 462.64 576.00 460.94 581.94 459.38 C 563.32 431.03 544.42 402.87 525.87 374.47 C 518.90 376.21 512.03 378.33 505.11 380.23 Z" />
<path fill="#d12322" opacity="1.00" d=" M 519.26 392.54 C 527.85 406.08 536.34 419.68 544.81 433.30 C 535.29 435.93 525.78 438.60 516.22 441.06 C 517.19 424.88 518.33 408.72 519.26 392.54 Z" />
<path fill="#d12322" opacity="1.00" d=" M 365.01 444.21 C 370.00 439.84 374.94 435.41 380.01 431.13 C 381.76 437.76 383.68 444.35 385.05 451.06 C 378.29 449.03 371.75 446.32 365.01 444.21 Z" />
<path fill="#d12322" opacity="1.00" d=" M 372.82 472.83 C 377.62 468.15 382.30 463.32 387.24 458.78 C 389.01 465.54 390.85 472.29 392.52 479.08 C 385.91 477.13 379.40 474.85 372.82 472.83 Z" />
<path fill="#d12322" opacity="1.00" d=" M 383.32 502.90 C 387.15 497.73 390.94 492.53 394.51 487.17 C 396.31 492.85 397.90 498.61 398.99 504.48 C 393.82 503.38 388.48 503.99 383.32 502.90 Z" />
<path fill="#d12322" opacity="1.00" d=" M 805.50 584.64 C 812.90 582.70 821.52 585.96 825.13 592.86 C 829.57 600.86 827.26 612.35 819.17 617.12 C 810.81 622.46 798.11 619.06 794.19 609.76 C 789.43 600.21 794.80 587.03 805.50 584.64 M 805.23 588.20 C 796.14 591.48 793.93 604.23 799.59 611.44 C 803.83 617.19 812.99 617.98 818.37 613.40 C 825.25 607.65 825.09 595.53 817.99 590.03 C 814.49 587.12 809.42 586.84 805.23 588.20 Z" />
<path fill="#d12322" opacity="1.00" d=" M 803.12 592.38 C 806.81 592.57 810.59 591.94 814.22 592.74 C 817.71 593.46 818.61 597.76 817.45 600.67 C 816.66 602.43 814.61 602.84 813.06 603.64 C 814.80 606.42 816.55 609.19 818.28 611.98 C 816.96 611.95 815.65 611.92 814.35 611.90 C 812.04 608.93 811.23 603.39 806.72 603.33 C 806.70 606.22 806.71 609.11 806.70 612.00 C 805.51 611.99 804.33 611.98 803.16 611.98 C 803.09 605.45 803.11 598.91 803.12 592.38 M 806.74 595.34 C 806.72 597.11 806.71 598.89 806.71 600.67 C 809.21 600.64 811.72 600.51 814.21 600.21 C 814.25 598.73 814.29 597.26 814.33 595.79 C 811.81 595.48 809.27 595.37 806.74 595.34 Z" />
</g>
</svg>
