<?xml version="1.0" standalone="no"?>
<!DOCTYPE svg PUBLIC "-//W3C//DTD SVG 20010904//EN"
 "http://www.w3.org/TR/2001/REC-SVG-20010904/DTD/svg10.dtd">
<svg version="1.0" xmlns="http://www.w3.org/2000/svg"
 width="400.000000pt" height="400.000000pt" viewBox="0 0 400.000000 400.000000"
 preserveAspectRatio="xMidYMid meet">
<metadata>
Created by potrace 1.16, written by Peter Selinger 2001-2019
</metadata>
<g transform="translate(0.000000,400.000000) scale(0.100000,-0.100000)"
fill="#000000" stroke="none">
<path d="M2320 2765 c-94 -17 -157 -34 -192 -52 l-28 -14 0 -300 c0 -283 1
-301 18 -294 40 15 222 54 285 61 l68 6 -3 -38 -3 -39 -70 -8 c-90 -10 -256
-50 -318 -76 -27 -12 -51 -21 -53 -21 -2 0 -4 149 -4 331 l0 330 -73 34 c-78
36 -198 69 -289 80 l-58 7 0 -306 0 -306 33 0 c42 0 197 -34 267 -58 54 -19
55 -19 58 -62 3 -38 1 -42 -15 -36 -104 41 -262 78 -378 88 l-30 3 -3 301 -2
302 -33 5 c-18 2 -35 0 -39 -7 -7 -10 -12 -676 -5 -676 1 0 43 -3 92 -6 130
-8 250 -30 359 -65 l94 -31 74 25 c102 35 214 57 348 67 63 5 116 10 118 10 1
0 2 155 2 344 l0 345 -35 -6 -35 -6 0 42 c0 41 0 41 -37 40 -21 0 -72 -7 -113
-14z"/>
<path d="M870 1775 c0 -8 5 -15 10 -15 6 0 10 -43 10 -110 0 -67 -4 -110 -10
-110 -5 0 -10 -7 -10 -15 0 -10 10 -15 30 -15 17 0 30 5 30 10 0 7 6 7 19 0
56 -29 110 9 118 84 5 40 2 48 -25 76 -32 32 -51 36 -83 20 -18 -10 -19 -7
-19 40 l0 50 -35 0 c-24 0 -35 -5 -35 -15z"/>
<path d="M540 1765 c0 -8 5 -15 10 -15 6 0 10 -40 10 -100 0 -60 -4 -100 -10
-100 -5 0 -10 -9 -10 -20 0 -19 7 -20 95 -20 l95 0 0 50 c0 43 -3 50 -20 50
-16 0 -20 -7 -20 -30 0 -28 -2 -30 -40 -30 l-40 0 0 95 c0 76 3 97 15 101 8 4
15 12 15 20 0 10 -14 14 -50 14 -38 0 -50 -4 -50 -15z"/>
<path d="M2000 1766 c0 -8 6 -16 14 -19 20 -8 21 -197 0 -197 -8 0 -14 -9 -14
-20 0 -19 7 -20 95 -20 l95 0 0 50 c0 38 -4 50 -15 50 -10 0 -15 -10 -15 -30
0 -29 -2 -30 -45 -30 l-45 0 0 95 c0 76 3 97 15 101 8 4 15 12 15 20 0 10 -14
14 -50 14 -36 0 -50 -4 -50 -14z"/>
<path d="M2220 1766 c0 -8 5 -16 11 -18 16 -5 15 -191 0 -196 -6 -2 -11 -12
-11 -23 0 -17 8 -19 100 -19 l100 0 0 45 c0 32 -4 45 -14 45 -8 0 -16 -10 -18
-22 -3 -20 -10 -23 -50 -26 l-48 -3 0 40 0 40 53 3 c38 2 52 7 52 18 0 11 -14
16 -52 18 l-53 3 0 35 c0 34 0 34 45 34 38 0 45 -3 45 -20 0 -13 7 -20 20 -20
17 0 20 7 20 40 l0 40 -100 0 c-80 0 -100 -3 -100 -14z"/>
<path d="M2460 1765 c0 -8 5 -15 10 -15 6 0 10 -40 10 -100 0 -60 -4 -100 -10
-100 -5 0 -10 -9 -10 -20 0 -17 7 -20 50 -20 43 0 50 3 50 20 0 11 -7 20 -15
20 -10 0 -15 10 -15 34 0 19 3 37 8 39 19 12 50 -15 71 -62 21 -43 29 -51 52
-51 32 0 49 29 21 37 -11 2 -27 21 -36 40 -16 34 -16 36 4 57 28 30 27 89 -2
116 -18 17 -35 20 -105 20 -67 0 -83 -3 -83 -15z"/>
<path d="M2710 1766 c0 -8 7 -16 15 -20 12 -4 15 -25 15 -101 0 -78 -3 -95
-15 -95 -8 0 -15 -9 -15 -20 0 -17 7 -20 50 -20 43 0 50 3 50 20 0 11 -7 20
-15 20 -12 0 -15 15 -15 78 l1 77 25 -40 c13 -22 39 -66 56 -97 24 -45 36 -58
54 -58 24 0 24 1 24 120 0 103 2 120 16 120 9 0 14 6 12 13 -6 16 -98 22 -98
6 0 -6 7 -17 16 -23 12 -9 14 -27 12 -81 l-3 -70 -53 93 c-53 91 -54 92 -93
92 -27 0 -39 -4 -39 -14z"/>
<path d="M2990 1766 c0 -8 5 -16 11 -18 15 -5 15 -191 0 -196 -6 -2 -11 -12
-11 -23 0 -17 8 -19 100 -19 l100 0 0 45 c0 32 -4 45 -14 45 -8 0 -16 -10 -18
-22 -3 -20 -10 -23 -50 -26 l-48 -3 0 40 0 41 49 0 c33 0 51 5 54 14 8 21 -2
26 -55 26 l-48 0 0 35 c0 35 0 35 45 35 38 0 45 -3 45 -20 0 -13 7 -20 20 -20
17 0 20 7 20 40 l0 40 -100 0 c-80 0 -100 -3 -100 -14z"/>
<path d="M3225 1770 c-3 -6 1 -13 9 -16 23 -9 24 -199 1 -208 -8 -3 -12 -12
-9 -21 4 -11 20 -15 55 -15 42 0 49 3 49 20 0 11 -7 20 -15 20 -10 0 -15 10
-15 34 0 68 43 55 80 -23 20 -44 27 -51 52 -51 21 0 28 5 28 20 0 11 -6 20
-13 20 -7 0 -21 16 -30 36 -17 34 -17 36 3 61 27 35 26 84 -3 111 -20 19 -35
22 -105 22 -44 0 -84 -5 -87 -10z"/>
<path d="M1283 1700 c-30 -12 -43 -41 -43 -95 0 -35 6 -51 25 -70 26 -27 80
-34 116 -15 23 13 26 45 3 36 -47 -18 -63 -17 -86 6 l-23 23 65 5 c43 3 65 9
64 18 -1 6 -2 21 -2 31 -4 48 -70 82 -119 61z"/>
<path d="M1733 1700 c-13 -5 -23 -18 -23 -30 0 -17 3 -19 19 -10 11 5 34 10
51 10 47 0 37 -33 -12 -41 -50 -8 -68 -25 -68 -65 0 -44 18 -52 108 -52 55 0
72 3 72 14 0 8 -4 14 -10 14 -6 0 -10 28 -10 63 0 36 -6 71 -13 81 -15 20 -82
30 -114 16z"/>
</g>
</svg>
