<?xml version="1.0" encoding="UTF-8" ?>
<!DOCTYPE svg PUBLIC "-//W3C//DTD SVG 1.1//EN" "http://www.w3.org/Graphics/SVG/1.1/DTD/svg11.dtd">
<svg width="1280pt" height="720pt" viewBox="0 0 1280 720" version="1.1" xmlns="http://www.w3.org/2000/svg">
<g id="#000000ff">
</g>
<g id="#231f20ff">
<path fill="#231f20" opacity="1.00" d=" M 20.08 264.11 C 31.88 251.21 48.16 242.09 65.59 239.86 C 59.68 243.15 53.34 245.73 48.01 249.99 C 29.85 263.28 19.41 285.68 19.23 308.01 C 18.70 323.17 22.68 338.82 32.06 350.93 C 43.72 366.46 63.83 375.00 83.09 372.93 C 93.91 371.88 104.36 367.60 112.83 360.80 C 125.55 350.80 133.57 335.12 134.23 318.95 C 134.96 305.11 129.68 291.00 119.73 281.29 C 108.60 269.93 91.65 264.81 76.07 267.90 C 64.70 269.92 54.45 276.27 46.60 284.61 C 43.15 288.23 40.52 292.52 37.25 296.30 C 40.93 285.50 47.81 275.88 56.16 268.19 C 65.65 259.60 78.15 254.32 90.98 253.99 C 106.52 253.23 121.93 259.29 133.74 269.21 C 144.73 278.41 152.17 291.69 154.26 305.87 C 156.96 324.32 152.59 343.71 142.21 359.20 C 131.76 375.20 115.12 386.98 96.59 391.62 C 81.05 395.56 64.28 394.59 49.33 388.75 C 34.23 382.97 21.17 372.20 12.34 358.68 C 5.71 348.79 2.23 337.28 0.00 325.69 L 0.00 307.35 C 2.64 291.47 8.95 275.95 20.08 264.11 Z" />
<path fill="#231f20" opacity="1.00" d=" M 845.99 256.04 C 851.71 255.93 857.43 256.02 863.16 255.97 C 883.92 301.08 904.21 346.43 924.70 391.67 C 917.23 391.81 909.77 391.77 902.31 391.71 C 897.10 380.20 892.37 368.49 887.07 357.03 C 865.17 357.04 843.27 356.86 821.38 357.12 C 816.21 368.64 811.48 380.36 806.03 391.75 C 798.88 391.74 791.72 391.80 784.57 391.70 C 804.93 346.43 825.39 301.20 845.99 256.04 M 829.54 338.71 C 846.07 338.77 862.60 338.76 879.13 338.72 C 871.03 319.71 862.69 300.81 854.45 281.86 C 846.05 300.77 837.73 319.72 829.54 338.71 Z" />
<path fill="#231f20" opacity="1.00" d=" M 215.29 256.81 C 234.55 256.66 253.81 256.78 273.07 256.75 C 286.49 256.78 300.67 259.90 310.96 269.01 C 327.08 282.99 327.79 310.72 312.69 325.69 C 306.72 331.95 298.63 335.51 290.49 338.04 C 303.72 356.04 317.43 373.67 330.62 391.70 C 323.42 391.82 316.22 391.68 309.02 391.79 C 307.21 391.64 304.78 392.26 303.72 390.32 C 291.78 374.09 280.00 357.73 267.97 341.57 C 257.17 341.45 246.36 341.48 235.56 341.56 C 235.41 358.27 235.60 374.98 235.48 391.68 C 228.75 391.80 222.02 391.77 215.30 391.71 C 215.22 346.75 215.23 301.78 215.29 256.81 M 235.52 276.08 C 235.52 291.62 235.47 307.15 235.54 322.69 C 245.36 322.84 255.18 322.69 265.00 322.76 C 272.42 322.70 280.10 322.85 287.14 320.12 C 293.52 317.78 299.18 312.87 301.38 306.31 C 303.94 298.41 302.49 288.67 295.93 283.09 C 289.14 277.16 279.68 276.04 271.00 276.00 C 259.18 276.06 247.34 275.89 235.52 276.08 Z" />
<path fill="#231f20" opacity="1.00" d=" M 393.27 257.05 C 400.01 256.96 406.76 256.93 413.50 257.08 C 413.50 301.94 413.55 346.81 413.48 391.68 C 406.75 391.80 400.02 391.77 393.30 391.71 C 393.21 346.82 393.26 301.94 393.27 257.05 Z" />
<path fill="#231f20" opacity="1.00" d=" M 490.27 257.05 C 523.09 256.97 555.92 256.95 588.73 257.06 C 588.76 263.43 588.78 269.81 588.71 276.18 C 562.75 276.38 536.78 276.16 510.82 276.29 C 510.68 289.67 510.72 303.05 510.80 316.43 C 534.02 316.63 557.26 316.33 580.48 316.57 C 580.55 322.84 580.52 329.11 580.50 335.38 C 557.27 335.73 534.03 335.34 510.80 335.57 C 510.64 354.28 510.84 373.00 510.70 391.71 C 503.90 391.78 497.09 391.78 490.29 391.71 C 490.22 346.82 490.25 301.94 490.27 257.05 Z" />
<path fill="#231f20" opacity="1.00" d=" M 652.02 257.04 C 658.85 256.98 665.67 256.92 672.50 257.08 C 672.56 295.53 672.43 333.99 672.56 372.44 C 696.68 372.57 720.80 372.44 744.92 372.50 C 745.07 378.90 745.04 385.32 744.94 391.73 C 713.98 391.76 683.02 391.75 652.06 391.73 C 651.94 346.83 652.01 301.93 652.02 257.04 Z" />
<path fill="#231f20" opacity="1.00" d=" M 976.03 257.03 C 982.03 257.02 988.04 256.88 994.05 257.05 C 996.22 257.00 996.82 259.57 998.02 260.95 C 1012.21 282.29 1026.45 303.60 1040.76 324.87 C 1055.98 302.32 1070.98 279.61 1086.19 257.05 C 1092.63 256.96 1099.07 256.93 1105.51 257.08 C 1105.49 301.95 1105.56 346.82 1105.47 391.69 C 1098.66 391.80 1091.85 391.76 1085.05 391.72 C 1084.90 358.74 1085.09 325.75 1084.96 292.76 C 1070.08 314.83 1055.50 337.10 1040.58 359.14 C 1025.55 337.16 1011.05 314.81 996.09 292.78 C 995.83 325.76 996.15 358.75 995.94 391.74 C 989.31 391.76 982.68 391.77 976.06 391.73 C 975.94 346.83 976.00 301.93 976.03 257.03 Z" />
<path fill="#231f20" opacity="1.00" d=" M 1179.03 257.03 C 1212.09 256.99 1245.15 256.96 1278.21 257.05 C 1278.29 263.35 1278.30 269.65 1278.21 275.95 C 1251.99 276.09 1225.78 275.92 1199.56 276.03 C 1199.48 288.75 1199.45 301.48 1199.57 314.20 C 1223.03 314.34 1246.49 314.20 1269.94 314.27 C 1270.05 320.58 1270.03 326.89 1269.95 333.21 C 1246.48 333.37 1223.00 333.13 1199.53 333.32 C 1199.49 346.44 1199.48 359.56 1199.54 372.69 C 1226.01 372.86 1252.48 372.64 1278.95 372.79 C 1279.03 379.10 1279.05 385.42 1278.94 391.73 C 1245.65 391.76 1212.35 391.76 1179.06 391.73 C 1178.94 346.83 1178.99 301.93 1179.03 257.03 Z" />
<path fill="#231f20" opacity="1.00" d=" M 394.86 441.85 C 401.77 438.01 410.86 439.70 416.75 444.72 C 415.86 445.84 414.98 446.99 414.11 448.13 C 410.17 445.70 405.72 443.32 400.93 444.14 C 397.89 444.52 394.77 446.69 394.48 449.95 C 394.39 452.15 395.58 454.35 397.61 455.30 C 403.32 458.25 410.68 457.67 415.48 462.43 C 419.97 467.35 417.70 476.17 411.59 478.66 C 403.69 481.93 394.27 479.49 388.12 473.77 C 389.10 472.70 390.08 471.61 391.06 470.54 C 396.04 474.45 402.74 477.62 409.07 475.06 C 413.11 473.78 414.63 467.63 411.07 465.03 C 405.58 461.39 398.16 462.30 392.97 458.03 C 388.01 453.84 389.27 444.95 394.86 441.85 Z" />
<path fill="#231f20" opacity="1.00" d=" M 472.42 440.51 C 474.09 440.51 475.77 440.51 477.45 440.50 C 481.28 451.06 484.62 461.79 488.49 472.33 C 492.06 461.64 495.35 450.84 499.16 440.24 C 500.36 440.22 501.57 440.21 502.78 440.21 C 506.53 450.85 509.76 461.67 513.47 472.33 C 517.18 461.73 520.67 451.06 524.46 440.50 C 526.04 440.49 527.61 440.48 529.19 440.48 C 524.87 453.65 520.03 466.65 515.41 479.71 C 514.08 479.72 512.75 479.73 511.43 479.76 C 507.83 469.47 504.54 459.09 500.87 448.83 C 497.21 459.03 493.87 469.35 490.33 479.60 C 489.01 479.67 487.70 479.74 486.39 479.82 C 481.60 466.76 477.02 453.63 472.42 440.51 Z" />
<path fill="#231f20" opacity="1.00" d=" M 588.06 440.27 C 597.55 440.27 607.05 440.16 616.55 440.34 C 616.52 441.70 616.50 443.07 616.49 444.45 C 608.59 444.65 600.70 444.37 592.80 444.57 C 592.69 448.85 592.69 453.14 592.80 457.42 C 599.86 457.61 606.91 457.39 613.97 457.51 C 613.98 458.91 613.99 460.30 614.01 461.71 C 606.94 461.84 599.88 461.63 592.81 461.80 C 592.69 466.18 592.68 470.57 592.80 474.95 C 600.80 475.13 608.80 474.85 616.80 475.08 C 616.77 476.44 616.75 477.81 616.73 479.18 C 607.17 479.32 597.61 479.28 588.05 479.21 C 587.97 466.23 587.95 453.25 588.06 440.27 Z" />
<path fill="#231f20" opacity="1.00" d=" M 685.29 440.29 C 690.54 440.26 695.80 440.14 701.05 440.31 C 708.55 440.60 715.86 445.45 718.42 452.61 C 720.52 458.67 719.87 465.82 716.12 471.11 C 712.54 476.28 706.23 479.19 700.02 479.25 C 695.11 479.32 690.20 479.28 685.29 479.19 C 685.23 466.22 685.22 453.26 685.29 440.29 M 689.80 444.58 C 689.70 454.70 689.70 464.82 689.79 474.94 C 696.20 474.91 703.42 476.07 708.91 471.92 C 716.69 466.44 716.73 453.47 709.12 447.82 C 703.71 443.35 696.27 444.60 689.80 444.58 Z" />
<path fill="#231f20" opacity="1.00" d=" M 787.06 440.27 C 796.47 440.25 805.88 440.21 815.30 440.29 C 815.22 441.68 815.16 443.09 815.11 444.49 C 807.26 444.59 799.41 444.41 791.57 444.56 C 791.45 448.85 791.45 453.14 791.57 457.44 C 798.61 457.60 805.66 457.39 812.71 457.53 C 812.73 458.91 812.75 460.29 812.79 461.69 C 805.72 461.87 798.65 461.62 791.58 461.80 C 791.45 466.18 791.45 470.58 791.57 474.97 C 799.64 475.11 807.72 474.86 815.80 475.08 C 815.77 476.44 815.75 477.81 815.73 479.18 C 806.17 479.32 796.61 479.28 787.05 479.21 C 786.97 466.23 786.95 453.25 787.06 440.27 Z" />
<path fill="#231f20" opacity="1.00" d=" M 887.31 440.21 C 888.76 440.23 890.22 440.25 891.69 440.27 C 899.94 450.35 907.72 460.81 915.96 470.91 C 916.07 460.70 915.93 450.49 916.02 440.28 C 917.49 440.27 918.97 440.26 920.46 440.26 C 920.53 453.27 920.57 466.28 920.44 479.29 C 919.55 479.28 917.78 479.26 916.89 479.25 C 908.35 469.06 900.46 458.33 892.03 448.04 C 891.91 458.45 892.11 468.86 891.95 479.27 C 890.38 479.24 888.83 479.23 887.29 479.22 C 887.24 466.22 887.20 453.22 887.31 440.21 Z" />
<path fill="#231f20" opacity="1.00" d=" M 13.25 457.82 C 115.17 457.68 217.09 457.72 319.01 457.80 C 319.01 458.59 319.01 460.17 319.01 460.96 C 217.07 461.00 115.13 461.08 13.19 460.92 C 13.21 460.14 13.24 458.59 13.25 457.82 Z" />
<path fill="#231f20" opacity="1.00" d=" M 994.76 457.81 C 1089.51 457.70 1184.26 457.71 1279.01 457.80 C 1279.01 458.59 1279.01 460.17 1279.01 460.95 C 1184.25 461.03 1089.50 461.03 994.74 460.95 C 994.75 460.17 994.75 458.59 994.76 457.81 Z" />
</g>
</svg>
