<?xml version="1.0" encoding="UTF-8" ?>
<!DOCTYPE svg PUBLIC "-//W3C//DTD SVG 1.1//EN" "http://www.w3.org/Graphics/SVG/1.1/DTD/svg11.dtd">
<svg width="232pt" height="154pt" viewBox="0 0 232 154" version="1.1" xmlns="http://www.w3.org/2000/svg">
<g id="#ffffffff">
</g>
<g id="#f0a8ccff">
<path fill="#f0a8cc" opacity="1.00" d=" M 102.70 41.56 C 104.34 39.43 105.37 36.30 108.46 36.06 C 112.50 42.16 116.54 50.96 111.42 57.59 C 111.07 52.65 111.32 46.89 107.20 43.33 C 105.95 47.55 106.45 51.95 106.79 56.26 C 105.08 54.50 104.08 52.26 103.32 49.96 C 101.42 50.28 99.55 50.71 97.72 51.27 C 100.48 55.23 105.10 56.82 109.59 57.88 C 105.01 60.39 99.05 59.23 95.34 55.68 C 93.60 53.94 90.55 52.80 90.52 49.98 C 91.33 48.44 93.23 48.07 94.63 47.24 C 94.82 46.66 95.01 46.09 95.19 45.52 C 95.65 45.80 96.57 46.38 97.03 46.66 C 97.35 46.82 98.00 47.13 98.33 47.29 C 99.88 47.44 101.45 47.57 103.02 47.50 C 103.26 45.54 103.18 43.55 102.92 41.60 L 102.70 41.56 Z" />
</g>
<g id="#c38ec0ff">
<path fill="#c38ec0" opacity="1.00" d=" M 95.19 45.52 C 96.28 42.46 99.46 40.40 102.70 41.56 L 102.92 41.60 C 101.16 43.31 99.63 45.22 98.33 47.29 C 98.00 47.13 97.35 46.82 97.03 46.66 C 96.57 46.38 95.65 45.80 95.19 45.52 Z" />
</g>
<g id="#fcf9fbff">
</g>
<g id="#bbdec1ff">
<path fill="#bbdec1" opacity="1.00" d=" M 118.25 60.70 C 114.89 55.41 117.57 47.73 123.04 44.97 C 121.51 49.65 121.24 54.66 123.36 59.22 C 122.70 61.37 119.85 62.81 118.25 60.70 Z" />
<path fill="#bbdec1" opacity="1.00" d=" M 110.46 63.00 C 109.74 60.59 110.67 57.21 113.88 58.25 C 116.90 60.52 119.55 63.38 123.09 64.90 C 127.53 67.28 132.56 67.92 137.51 68.31 C 131.29 73.06 122.49 70.21 116.08 67.17 C 112.78 69.41 108.70 68.11 105.04 68.83 C 102.36 69.38 99.76 70.31 97.01 70.47 C 99.86 65.72 105.38 64.07 110.46 63.00 Z" />
</g>
<g id="#837066ff">
<path fill="#837066" opacity="1.00" d=" M 22.50 85.37 C 24.32 85.38 26.14 85.39 27.96 85.40 C 30.01 91.39 33.30 96.87 35.97 102.60 C 38.56 96.91 41.40 91.29 43.38 85.35 C 45.09 85.35 46.80 85.33 48.51 85.31 C 47.93 85.64 46.77 86.30 46.19 86.63 C 46.76 93.25 48.48 99.70 49.28 106.29 C 50.01 106.82 50.74 107.35 51.47 107.87 C 49.75 107.86 48.03 107.85 46.31 107.86 C 46.15 101.94 44.62 96.16 43.66 90.34 C 40.96 96.28 38.35 102.25 35.54 108.14 C 32.49 102.29 29.78 96.27 26.67 90.45 C 25.77 95.66 24.66 100.85 24.18 106.11 C 24.50 106.59 25.13 107.54 25.45 108.02 C 23.58 107.85 21.70 107.93 19.85 108.17 C 20.67 107.19 22.07 106.48 22.15 105.07 C 23.11 99.03 24.33 93.04 25.38 87.02 C 24.42 86.47 23.46 85.92 22.50 85.37 Z" />
<path fill="#837066" opacity="1.00" d=" M 65.90 84.81 C 70.34 92.27 71.85 101.32 77.20 108.23 C 75.55 108.05 73.89 107.90 72.24 107.78 C 71.87 105.87 71.34 103.99 70.73 102.14 C 67.25 101.92 63.77 101.87 60.29 101.93 C 59.46 103.83 58.79 105.80 58.40 107.84 C 56.98 108.00 55.57 108.17 54.16 108.34 C 57.44 105.77 58.37 101.60 60.05 98.00 C 62.04 93.62 63.93 89.20 65.90 84.81 M 60.63 100.83 C 63.81 100.81 66.98 100.78 70.15 100.71 C 68.63 96.97 67.00 93.27 65.67 89.45 C 63.62 93.07 62.06 96.93 60.63 100.83 Z" />
<path fill="#837066" opacity="1.00" d=" M 102.55 85.27 C 104.61 85.39 106.68 85.35 108.74 85.10 C 108.48 86.16 107.83 87.32 108.47 88.39 C 110.65 93.42 112.99 98.40 115.12 103.46 C 117.97 98.27 120.87 93.11 123.52 87.82 C 123.52 87.16 123.51 85.84 123.51 85.19 C 125.13 85.21 126.75 85.22 128.37 85.22 C 127.21 86.48 125.96 87.70 125.14 89.23 C 120.98 97.01 116.88 104.83 112.65 112.58 C 111.57 114.92 108.93 115.45 106.65 115.80 C 108.11 114.62 109.60 113.44 110.79 111.97 C 111.63 110.23 112.54 108.54 113.48 106.86 C 111.77 103.08 110.18 99.24 108.47 95.46 C 106.81 91.89 105.78 87.82 102.55 85.27 Z" />
<path fill="#837066" opacity="1.00" d=" M 186.14 85.29 C 188.12 85.35 190.09 85.34 192.07 85.25 C 191.41 87.97 192.94 90.43 193.99 92.82 C 195.63 96.25 197.12 99.75 198.51 103.30 C 201.25 99.57 203.04 95.28 205.35 91.30 C 206.47 89.45 207.16 87.39 207.43 85.25 C 209.00 85.25 210.57 85.23 212.15 85.19 C 209.97 86.83 208.59 89.19 207.42 91.60 C 203.78 98.57 200.07 105.50 196.34 112.42 C 195.25 114.96 192.39 115.44 189.97 115.78 C 193.40 113.85 195.68 110.54 196.80 106.81 C 195.77 103.04 193.76 99.61 192.26 96.00 C 190.51 92.28 189.49 87.98 186.14 85.29 Z" />
</g>
<g id="#826f65ff">
<path fill="#826f65" opacity="1.00" d=" M 82.36 85.25 C 86.80 85.94 92.97 83.40 95.87 88.04 C 98.08 91.83 95.36 95.88 91.96 97.71 C 95.21 101.44 97.32 106.55 102.36 108.25 C 95.18 109.08 91.99 101.44 88.00 96.96 C 92.89 97.43 95.83 90.92 92.37 87.59 C 90.93 85.81 88.60 86.11 86.71 86.83 C 86.80 92.90 86.53 98.97 86.77 105.04 C 86.62 106.47 88.04 107.25 88.80 108.24 C 86.46 107.81 84.01 107.61 81.77 108.58 C 82.79 107.63 84.21 106.74 84.09 105.14 C 84.31 101.10 84.05 97.06 84.17 93.02 C 84.05 90.35 84.84 87.09 82.36 85.25 Z" />
<path fill="#826f65" opacity="1.00" d=" M 143.11 84.92 C 144.97 85.36 146.88 85.44 148.78 85.28 C 147.06 88.37 146.88 92.63 148.85 95.64 C 150.31 91.43 154.61 89.27 156.74 85.45 C 158.27 85.43 159.81 85.42 161.34 85.39 C 158.27 86.94 155.56 89.12 153.56 91.93 C 152.67 92.78 151.79 93.64 150.90 94.48 C 154.88 98.98 158.34 103.99 163.05 107.78 C 165.88 106.05 166.61 102.70 167.92 99.90 C 170.16 94.90 172.26 89.85 174.57 84.88 C 177.00 89.21 178.51 93.98 180.62 98.46 C 182.24 101.80 182.85 106.02 186.26 108.10 C 184.42 107.92 182.58 107.96 180.75 108.21 C 180.79 106.05 180.06 104.04 179.02 102.18 C 175.68 102.34 172.32 102.34 168.98 102.19 C 167.99 104.10 167.26 106.14 167.10 108.30 C 164.18 108.20 160.88 108.53 158.49 106.49 C 155.05 103.55 151.91 100.20 149.35 96.46 C 148.89 96.23 147.96 95.77 147.50 95.53 C 148.14 99.66 146.58 104.21 148.70 108.02 C 146.86 107.90 145.01 107.88 143.17 107.94 C 144.18 106.84 145.20 105.65 144.90 104.04 C 144.92 98.44 144.82 92.85 144.90 87.25 C 144.31 86.47 143.71 85.69 143.11 84.92 M 169.10 100.62 C 172.33 100.86 175.57 100.86 178.80 100.75 C 177.20 96.94 175.59 93.14 174.01 89.33 C 172.47 93.13 170.93 96.94 169.10 100.62 Z" />
</g>
</svg>
